if (_typeface_js && _typeface_js.loadFace) _typeface_js.loadFace({"glyphs":{"0":{"ha":836,"x_min":83,"x_max":753,"o":"m 334 505 q 358 566 334 541 q 418 590 382 590 q 478 566 454 590 q 503 505 503 541 q 478 446 503 470 q 418 421 454 421 q 358 445 382 421 q 334 505 334 469 m 418 861 q 317 777 349 861 q 285 505 285 692 q 317 235 285 319 q 418 150 349 150 q 519 235 488 150 q 551 505 551 319 q 519 777 551 692 q 418 861 488 861 m 83 505 q 167 900 83 768 q 418 1031 250 1031 q 669 900 586 1031 q 753 505 753 769 q 669 111 753 242 q 418 -20 586 -20 q 167 112 250 -20 q 83 505 83 243 z "},"1":{"ha":836,"x_min":127,"x_max":770,"o":"m 127 176 l 351 176 l 351 833 l 143 782 l 143 962 l 353 1013 l 546 1013 l 546 176 l 770 176 l 770 0 l 127 0 l 127 176 z "},"2":{"ha":836,"x_min":78,"x_max":721,"o":"m 294 176 l 721 176 l 721 0 l 78 0 l 78 171 l 186 286 q 421 539 380 492 q 494 643 472 597 q 517 732 517 688 q 476 837 517 800 q 359 873 435 873 q 239 852 306 873 q 100 790 172 831 l 100 977 q 242 1017 172 1003 q 375 1031 311 1031 q 628 956 536 1031 q 720 751 720 881 q 700 640 720 692 q 631 524 680 587 q 433 316 595 477 q 294 176 346 229 z "},"3":{"ha":836,"x_min":85,"x_max":746,"o":"m 372 453 l 265 453 l 265 629 l 372 629 q 488 659 447 629 q 529 742 529 688 q 488 830 529 798 q 372 861 447 861 q 250 847 315 861 q 115 806 185 833 l 115 987 q 253 1020 185 1008 q 383 1031 321 1031 q 633 961 543 1031 q 722 768 722 891 q 671 621 722 678 q 524 546 619 564 q 689 459 632 527 q 746 282 746 392 q 652 58 746 135 q 378 -20 557 -20 q 227 -7 301 -20 q 85 31 153 6 l 85 216 q 222 168 149 184 q 378 151 296 151 q 507 189 459 151 q 554 290 554 227 q 507 411 554 368 q 372 453 459 453 z "},"4":{"ha":836,"x_min":69,"x_max":774,"o":"m 471 790 l 215 390 l 471 390 l 471 790 m 453 1013 l 663 1013 l 663 390 l 774 390 l 774 218 l 663 218 l 663 0 l 471 0 l 471 218 l 69 218 l 69 412 l 453 1013 z "},"5":{"ha":836,"x_min":97,"x_max":742,"o":"m 131 1013 l 681 1013 l 681 836 l 293 836 l 293 648 q 345 662 317 658 q 404 667 373 667 q 648 572 555 667 q 742 325 742 477 q 641 73 742 165 q 364 -20 539 -20 q 233 -9 299 -20 q 97 24 166 2 l 97 204 q 213 162 153 176 q 332 149 272 149 q 492 194 437 149 q 547 325 547 239 q 493 452 547 404 q 347 500 438 500 q 240 487 294 500 q 131 447 186 473 l 131 1013 z "},"6":{"ha":836,"x_min":89,"x_max":761,"o":"m 436 507 q 337 460 371 507 q 302 323 302 413 q 337 188 302 235 q 436 140 371 140 q 536 188 501 140 q 571 323 571 235 q 536 460 571 412 q 436 507 501 507 m 699 989 l 699 807 q 596 853 645 838 q 501 868 547 868 q 336 795 393 868 q 277 580 279 722 q 358 646 309 624 q 475 668 408 668 q 686 582 612 668 q 761 336 761 495 q 677 73 761 166 q 441 -21 593 -21 q 173 103 256 -21 q 89 504 89 227 q 191 898 89 767 q 498 1029 294 1029 q 596 1019 546 1029 q 699 989 647 1009 z "},"7":{"ha":836,"x_min":92,"x_max":732,"o":"m 92 1013 l 732 1013 l 732 871 l 389 0 l 184 0 l 514 836 l 92 836 l 92 1013 z "},"8":{"ha":836,"x_min":87,"x_max":749,"o":"m 418 452 q 309 409 351 452 q 268 297 268 367 q 309 184 268 227 q 418 142 351 142 q 527 185 485 142 q 568 297 568 229 q 527 409 568 367 q 418 452 486 452 m 269 536 q 153 620 193 563 q 113 758 113 676 q 195 958 113 884 q 418 1031 277 1031 q 642 958 559 1031 q 724 758 724 884 q 684 620 724 677 q 570 536 645 564 q 701 444 654 511 q 749 285 749 378 q 663 60 749 139 q 418 -20 576 -20 q 174 60 260 -20 q 87 285 87 139 q 136 445 87 378 q 269 536 184 511 m 290 742 q 325 647 290 682 q 418 612 359 612 q 512 647 477 612 q 546 742 546 682 q 512 835 546 801 q 418 869 477 869 q 325 835 359 869 q 290 742 290 800 z "},"9":{"ha":836,"x_min":75,"x_max":747,"o":"m 138 14 l 138 196 q 240 150 191 165 q 335 135 290 135 q 499 207 443 135 q 559 423 556 279 q 478 357 528 379 q 361 335 429 335 q 150 421 224 335 q 75 667 75 508 q 159 929 75 836 q 395 1022 242 1022 q 664 898 580 1022 q 747 498 747 774 q 645 105 747 236 q 338 -26 543 -26 q 240 -16 290 -26 q 138 14 189 -6 m 400 503 q 499 550 465 503 q 533 686 533 597 q 499 822 533 775 q 400 869 465 869 q 300 822 335 869 q 265 686 265 775 q 300 550 265 597 q 400 503 335 503 z "}," ":{"ha":836,"x_min":0,"x_max":0,"o":""},"!":{"ha":836,"x_min":328,"x_max":509,"o":"m 328 192 l 509 192 l 509 0 l 328 0 l 328 192 m 328 1013 l 509 1013 l 509 568 l 486 326 l 351 326 l 328 568 l 328 1013 z "},"\"":{"ha":836,"x_min":157,"x_max":677,"o":"m 677 1013 l 677 636 l 504 636 l 504 1013 l 677 1013 m 330 1013 l 330 636 l 157 636 l 157 1013 l 330 1013 z "},"#":{"ha":836,"x_min":1,"x_max":833,"o":"m 479 997 l 415 743 l 553 743 l 616 997 l 768 997 l 703 743 l 833 743 l 833 597 l 667 597 l 616 399 l 755 399 l 755 253 l 581 253 l 517 0 l 367 0 l 431 253 l 292 253 l 228 0 l 78 0 l 142 253 l 1 253 l 1 399 l 178 399 l 228 597 l 79 597 l 79 743 l 265 743 l 329 997 l 479 997 m 517 597 l 378 597 l 328 399 l 467 399 l 517 597 z "},"$":{"ha":836,"x_min":111,"x_max":741,"o":"m 471 358 l 471 153 q 537 186 513 159 q 561 254 561 213 q 537 323 561 296 q 471 358 514 350 m 375 554 l 375 746 q 312 718 333 741 q 290 656 290 695 q 312 591 290 617 q 375 554 333 566 m 471 -204 l 375 -204 l 374 0 q 251 18 315 2 q 117 62 186 33 l 117 240 q 252 176 186 199 q 375 153 317 154 l 375 376 q 176 468 241 403 q 111 639 111 532 q 180 819 111 752 q 375 895 250 886 l 375 1055 l 471 1055 l 471 895 q 571 882 519 892 q 677 856 623 873 l 677 682 q 584 726 635 709 q 471 746 532 742 l 471 538 q 672 447 604 517 q 741 260 741 376 q 667 77 741 149 q 471 0 593 6 l 471 -204 z "},"%":{"ha":836,"x_min":22,"x_max":827,"o":"m 22 754 q 85 908 22 845 q 239 971 149 971 q 392 908 329 971 q 456 754 456 844 q 392 601 456 664 q 239 538 329 538 q 85 601 149 538 q 22 754 22 663 m 239 847 q 173 820 200 847 q 146 754 146 793 q 173 688 146 715 q 239 661 200 661 q 305 688 278 661 q 332 754 332 715 q 304 820 332 793 q 239 847 277 847 m 58 380 l 765 664 l 793 599 l 82 315 l 58 380 m 393 216 q 456 370 393 307 q 610 433 519 433 q 763 370 699 433 q 827 216 827 307 q 763 63 827 127 q 610 0 699 0 q 456 63 519 0 q 393 216 393 125 m 608 310 q 544 283 570 310 q 517 216 517 256 q 543 150 517 177 q 608 123 570 123 q 675 151 648 123 q 703 216 703 178 q 675 282 703 255 q 608 310 647 310 z "},"&":{"ha":836,"x_min":25,"x_max":838,"o":"m 590 49 q 482 -2 539 15 q 366 -20 425 -20 q 119 69 214 -20 q 25 300 25 158 q 73 479 25 398 q 215 619 121 559 q 165 717 181 672 q 149 803 149 762 q 222 972 149 913 q 436 1031 296 1031 q 533 1023 486 1031 q 627 1002 581 1016 l 627 828 q 539 865 583 852 q 450 878 494 878 q 368 859 396 878 q 340 803 340 840 q 361 736 340 779 q 428 624 382 693 l 640 298 q 662 357 654 324 q 669 429 669 391 q 668 469 669 450 q 664 505 667 488 l 823 505 l 823 471 q 800 299 823 372 q 728 167 777 225 l 838 0 l 623 0 l 590 49 m 298 496 q 231 426 254 467 q 208 336 208 386 q 261 197 208 254 q 392 140 315 140 q 431 145 411 140 q 470 157 451 149 q 475 160 471 158 q 507 178 495 170 l 298 496 z "},"'":{"ha":836,"x_min":330,"x_max":504,"o":"m 504 1013 l 504 636 l 330 636 l 330 1013 l 504 1013 z "},"(":{"ha":836,"x_min":260,"x_max":627,"o":"m 627 1055 q 494 741 537 893 q 450 437 450 589 q 494 132 450 286 q 627 -184 537 -21 l 472 -184 q 312 125 364 -27 q 260 437 260 278 q 312 747 260 594 q 472 1055 365 901 l 627 1055 z "},")":{"ha":836,"x_min":210,"x_max":576,"o":"m 210 1055 l 364 1055 q 524 747 471 901 q 576 437 576 594 q 524 125 576 278 q 364 -184 472 -27 l 210 -184 q 342 132 299 -21 q 386 437 386 286 q 342 741 386 589 q 210 1055 299 893 z "},"*":{"ha":836,"x_min":28,"x_max":798,"o":"m 797 771 l 517 620 l 798 467 l 738 364 l 473 524 l 473 228 l 353 228 l 353 524 q 220 444 288 485 q 87 364 151 402 l 28 467 l 310 620 l 29 771 l 87 875 l 353 715 l 353 1011 l 473 1011 l 473 715 q 606 795 538 754 q 738 875 674 837 l 797 771 z "},"+":{"ha":836,"x_min":45,"x_max":790,"o":"m 498 808 l 498 517 l 790 517 l 790 355 l 498 355 l 498 62 l 338 62 l 338 355 l 45 355 l 45 517 l 338 517 l 338 808 l 498 808 z "},",":{"ha":836,"x_min":245,"x_max":525,"o":"m 313 249 l 525 249 l 525 65 l 392 -195 l 245 -195 l 313 65 l 313 249 z "},"-":{"ha":836,"x_min":69,"x_max":788,"o":"m 69 491 l 788 491 l 788 309 l 69 309 l 69 491 z "},".":{"ha":836,"x_min":304,"x_max":531,"o":"m 304 249 l 531 249 l 531 0 l 304 0 l 304 249 z "},"/":{"ha":836,"x_min":77,"x_max":760,"o":"m 610 1013 l 760 1013 l 227 -129 l 77 -129 l 610 1013 z "},":":{"ha":836,"x_min":304,"x_max":531,"o":"m 304 721 l 531 721 l 531 473 l 304 473 l 304 721 m 304 249 l 531 249 l 531 0 l 304 0 l 304 249 z "},";":{"ha":836,"x_min":252,"x_max":531,"o":"m 304 249 l 531 249 l 531 65 l 397 -195 l 252 -195 l 304 65 l 304 249 m 304 721 l 531 721 l 531 473 l 304 473 l 304 721 z "},"<":{"ha":836,"x_min":60,"x_max":777,"o":"m 777 628 l 237 435 l 777 243 l 777 74 l 60 355 l 60 515 l 777 798 l 777 628 z "},"=":{"ha":836,"x_min":60,"x_max":777,"o":"m 60 361 l 777 361 l 777 200 l 60 200 l 60 361 m 60 669 l 777 669 l 777 510 l 60 510 l 60 669 z "},">":{"ha":836,"x_min":60,"x_max":777,"o":"m 60 628 l 60 798 l 777 515 l 777 355 l 60 74 l 60 243 l 599 435 l 60 628 z "},"?":{"ha":836,"x_min":158,"x_max":722,"o":"m 298 192 l 479 192 l 479 0 l 298 0 l 298 192 m 479 272 l 298 272 l 298 376 q 319 491 298 444 q 395 591 340 538 l 456 652 q 514 720 498 693 q 529 777 529 747 q 498 845 529 822 q 404 868 467 868 q 285 844 347 868 q 158 772 223 820 l 158 954 q 293 1011 224 992 q 429 1031 361 1031 q 644 967 566 1031 q 722 791 722 903 q 699 695 722 740 q 612 589 676 651 l 553 530 q 494 457 507 486 q 481 387 481 429 q 480 373 481 381 q 479 355 480 365 l 479 272 z "},"@":{"ha":836,"x_min":4,"x_max":786,"o":"m 660 370 q 625 490 660 446 q 530 533 591 533 q 436 490 470 533 q 401 370 401 446 q 436 249 401 292 q 530 205 470 205 q 625 249 591 205 q 660 370 660 292 m 786 92 l 653 92 l 653 147 q 592 95 627 111 q 509 78 557 78 q 329 158 397 78 q 261 370 261 238 q 329 580 261 500 q 509 660 397 660 q 593 643 557 660 q 653 595 630 627 l 653 623 q 603 765 653 715 q 458 815 552 815 q 228 691 317 815 q 139 368 139 567 q 242 37 139 160 q 517 -86 345 -86 q 622 -70 571 -86 q 720 -22 673 -54 l 782 -142 q 662 -198 727 -179 q 524 -216 597 -216 q 145 -58 286 -216 q 4 368 4 100 q 131 788 4 631 q 467 946 258 946 q 700 857 614 946 q 786 614 786 768 l 786 92 z "},"A":{"ha":836,"x_min":22,"x_max":814,"o":"m 418 829 l 323 415 l 513 415 l 418 829 m 296 1013 l 541 1013 l 814 0 l 614 0 l 551 250 l 283 250 l 222 0 l 22 0 l 296 1013 z "},"B":{"ha":836,"x_min":85,"x_max":786,"o":"m 278 460 l 278 160 l 411 160 q 545 193 507 160 q 583 306 583 225 q 543 424 583 388 q 411 460 503 460 l 278 460 m 278 854 l 278 619 l 411 619 q 519 646 487 619 q 551 736 551 673 q 518 826 551 798 q 411 854 486 854 l 278 854 m 85 1014 l 411 1014 q 665 950 580 1014 q 750 758 750 886 q 700 606 750 661 q 553 542 650 551 q 727 464 669 530 q 786 278 786 397 q 698 66 786 132 q 411 0 610 0 l 85 0 l 85 1014 z "},"C":{"ha":836,"x_min":103,"x_max":733,"o":"m 733 29 q 633 -7 686 5 q 524 -20 581 -20 q 211 115 319 -20 q 103 505 103 250 q 211 896 103 761 q 524 1031 319 1031 q 634 1019 581 1031 q 733 982 687 1006 l 733 760 q 633 829 682 807 q 533 851 585 851 q 367 764 423 851 q 311 505 311 677 q 367 247 311 334 q 533 160 423 160 q 633 182 585 160 q 733 252 682 204 l 733 29 z "},"D":{"ha":836,"x_min":93,"x_max":774,"o":"m 293 832 l 293 180 l 347 180 q 515 255 465 180 q 566 507 566 329 q 515 758 566 684 q 347 832 465 832 l 293 832 m 93 1013 l 307 1013 q 665 894 555 1013 q 774 507 774 776 q 665 119 774 238 q 307 0 555 0 l 93 0 l 93 1013 z "},"E":{"ha":836,"x_min":114,"x_max":745,"o":"m 745 0 l 114 0 l 114 1013 l 745 1013 l 745 836 l 314 836 l 314 618 l 704 618 l 704 441 l 314 441 l 314 176 l 745 176 l 745 0 z "},"F":{"ha":836,"x_min":123,"x_max":754,"o":"m 754 836 l 323 836 l 323 618 l 715 618 l 715 441 l 323 441 l 323 0 l 123 0 l 123 1013 l 754 1013 l 754 836 z "},"G":{"ha":836,"x_min":79,"x_max":766,"o":"m 591 183 l 591 376 l 454 376 l 454 545 l 766 545 l 766 81 q 639 6 709 31 q 490 -20 570 -20 q 186 117 294 -20 q 79 505 79 254 q 188 896 79 761 q 500 1031 296 1031 q 620 1014 561 1031 q 730 964 679 996 l 730 742 q 634 824 688 796 q 514 851 579 851 q 344 765 400 851 q 288 505 288 680 q 342 248 288 336 q 500 160 396 160 q 554 166 531 160 q 591 183 577 172 z "},"H":{"ha":836,"x_min":93,"x_max":743,"o":"m 93 1013 l 293 1013 l 293 627 l 543 627 l 543 1013 l 743 1013 l 743 0 l 543 0 l 543 450 l 293 450 l 293 0 l 93 0 l 93 1013 z "},"I":{"ha":836,"x_min":117,"x_max":720,"o":"m 117 836 l 117 1013 l 720 1013 l 720 836 l 518 836 l 518 176 l 720 176 l 720 0 l 117 0 l 117 176 l 318 176 l 318 836 l 117 836 z "},"J":{"ha":836,"x_min":74,"x_max":684,"o":"m 74 50 l 74 282 q 198 191 132 222 q 332 160 264 160 q 447 199 410 160 q 484 325 484 239 l 484 836 l 239 836 l 239 1013 l 684 1013 l 684 325 q 606 60 684 140 q 350 -20 528 -20 q 215 -2 286 -20 q 74 50 145 16 z "},"K":{"ha":836,"x_min":79,"x_max":831,"o":"m 79 1013 l 279 1013 l 279 612 l 593 1013 l 819 1013 l 500 614 l 831 0 l 608 0 l 368 456 l 279 343 l 279 0 l 79 0 l 79 1013 z "},"L":{"ha":836,"x_min":153,"x_max":781,"o":"m 153 0 l 153 1013 l 353 1013 l 353 176 l 781 176 l 781 0 l 153 0 z "},"M":{"ha":836,"x_min":58,"x_max":778,"o":"m 58 1013 l 297 1013 l 418 568 l 538 1013 l 778 1013 l 778 0 l 606 0 l 606 811 l 498 368 l 339 368 l 231 811 l 231 0 l 58 0 l 58 1013 z "},"N":{"ha":836,"x_min":81,"x_max":754,"o":"m 81 1013 l 296 1013 l 578 277 l 578 1013 l 754 1013 l 754 0 l 541 0 l 257 736 l 257 0 l 81 0 l 81 1013 z "},"O":{"ha":836,"x_min":62,"x_max":774,"o":"m 418 851 q 306 769 341 851 q 271 505 271 688 q 306 242 271 323 q 418 160 341 160 q 530 242 495 160 q 566 505 566 323 q 530 769 566 688 q 418 851 495 851 m 62 505 q 152 898 62 765 q 418 1031 242 1031 q 684 898 594 1031 q 774 505 774 765 q 684 113 774 246 q 418 -20 594 -20 q 152 113 242 -20 q 62 505 62 246 z "},"P":{"ha":836,"x_min":110,"x_max":778,"o":"m 310 844 l 310 547 l 392 547 q 530 581 490 547 q 570 696 570 614 q 530 811 570 778 q 392 844 490 844 l 310 844 m 110 1013 l 385 1013 q 686 938 594 1013 q 778 696 778 863 q 686 454 778 528 q 385 379 594 379 l 310 379 l 310 0 l 110 0 l 110 1013 z "},"Q":{"ha":836,"x_min":62,"x_max":774,"o":"m 445 -16 q 429 -19 435 -18 q 416 -20 422 -20 q 152 113 242 -20 q 62 505 62 246 q 152 898 62 765 q 418 1031 242 1031 q 684 898 594 1031 q 774 505 774 765 q 731 207 774 327 q 607 35 688 86 l 733 -89 l 596 -191 l 445 -16 m 418 851 q 306 769 341 851 q 271 505 271 688 q 306 242 271 323 q 418 160 341 160 q 530 242 495 160 q 566 505 566 323 q 530 769 566 688 q 418 851 495 851 z "},"R":{"ha":836,"x_min":90,"x_max":836,"o":"m 547 478 q 599 450 577 472 q 653 364 621 428 l 836 0 l 616 0 l 494 256 q 480 286 489 267 q 354 400 427 400 l 290 400 l 290 0 l 90 0 l 90 1013 l 379 1013 q 660 943 574 1013 q 745 718 745 874 q 694 552 745 614 q 547 478 643 490 m 290 844 l 290 568 l 385 568 q 502 601 467 568 q 538 707 538 633 q 503 812 538 781 q 385 844 467 844 l 290 844 z "},"S":{"ha":836,"x_min":87,"x_max":753,"o":"m 346 444 q 141 565 195 502 q 87 736 87 629 q 176 952 87 873 q 418 1031 264 1031 q 557 1015 488 1031 q 696 968 627 999 l 696 772 q 565 842 631 818 q 433 865 498 865 q 322 836 361 865 q 283 753 283 807 q 312 683 283 711 q 429 623 340 656 l 515 590 q 695 471 637 545 q 753 285 753 397 q 662 56 753 132 q 389 -20 572 -20 q 238 -2 313 -20 q 92 52 162 16 l 92 258 q 247 174 172 201 q 395 146 321 146 q 509 179 469 146 q 550 273 550 213 q 523 353 550 319 q 444 407 496 387 l 346 444 z "},"T":{"ha":836,"x_min":61,"x_max":775,"o":"m 518 0 l 318 0 l 318 838 l 61 838 l 61 1013 l 775 1013 l 775 838 l 518 838 l 518 0 z "},"U":{"ha":836,"x_min":72,"x_max":764,"o":"m 72 374 l 72 1013 l 272 1013 l 272 323 q 311 204 272 248 q 418 161 349 161 q 525 204 486 161 q 564 323 564 248 l 564 1013 l 764 1013 l 764 374 q 682 74 764 168 q 418 -20 600 -20 q 154 74 237 -20 q 72 374 72 168 z "},"V":{"ha":836,"x_min":39,"x_max":798,"o":"m 418 167 l 596 1013 l 798 1013 l 557 0 l 279 0 l 39 1013 l 240 1013 l 418 167 z "},"W":{"ha":836,"x_min":0,"x_max":836,"o":"m 0 1013 l 175 1013 l 248 269 l 335 750 l 501 750 l 603 269 l 660 1013 l 836 1013 l 720 0 l 533 0 l 418 532 l 310 0 l 125 0 l 0 1013 z "},"X":{"ha":836,"x_min":18,"x_max":818,"o":"m 818 0 l 611 0 l 418 335 l 225 0 l 18 0 l 315 514 l 26 1013 l 233 1013 l 418 690 l 603 1013 l 810 1013 l 522 514 l 818 0 z "},"Y":{"ha":836,"x_min":5,"x_max":831,"o":"m 5 1013 l 221 1013 l 418 606 l 615 1013 l 831 1013 l 518 399 l 518 0 l 318 0 l 318 399 l 5 1013 z "},"Z":{"ha":836,"x_min":78,"x_max":787,"o":"m 93 1013 l 778 1013 l 778 847 l 309 176 l 787 176 l 787 0 l 78 0 l 78 165 l 533 836 l 93 836 l 93 1013 z "},"[":{"ha":836,"x_min":286,"x_max":631,"o":"m 286 1055 l 631 1055 l 631 926 l 467 926 l 467 -55 l 631 -55 l 631 -184 l 286 -184 l 286 1055 z "},"\\":{"ha":836,"x_min":75,"x_max":760,"o":"m 227 1013 l 760 -129 l 608 -129 l 75 1013 l 227 1013 z "},"]":{"ha":836,"x_min":205,"x_max":550,"o":"m 550 1055 l 550 -184 l 205 -184 l 205 -55 l 370 -55 l 370 926 l 205 926 l 205 1055 l 550 1055 z "},"^":{"ha":836,"x_min":39,"x_max":798,"o":"m 501 1013 l 798 635 l 633 635 l 418 839 l 203 635 l 39 635 l 335 1013 l 501 1013 z "},"_":{"ha":836,"x_min":0,"x_max":836,"o":"m 836 -129 l 836 -264 l 0 -264 l 0 -129 l 836 -129 z "},"`":{"ha":836,"x_min":135,"x_max":518,"o":"m 326 1111 l 518 856 l 385 856 l 135 1111 l 326 1111 z "},"a":{"ha":836,"x_min":64,"x_max":751,"o":"m 475 357 q 319 328 363 357 q 275 231 275 300 q 306 149 275 179 q 389 118 336 118 q 511 177 467 118 q 554 343 554 237 l 554 357 l 475 357 m 751 433 l 751 0 l 554 0 l 554 85 q 462 7 518 35 q 338 -20 406 -20 q 136 49 208 -20 q 64 240 64 117 q 150 436 64 373 q 416 500 236 500 l 554 500 l 554 533 q 519 606 554 581 q 416 631 484 631 q 278 613 345 631 q 139 555 212 595 l 139 725 q 273 765 205 752 q 416 778 340 778 q 676 703 602 778 q 751 433 751 627 z "},"b":{"ha":836,"x_min":102,"x_max":775,"o":"m 576 378 q 540 550 576 488 q 439 612 503 612 q 337 550 374 612 q 300 378 300 488 q 337 205 300 268 q 439 143 374 143 q 540 205 503 143 q 576 378 576 268 m 300 652 q 385 746 336 715 q 494 778 433 778 q 702 675 629 778 q 775 379 775 572 q 703 85 775 189 q 501 -20 631 -20 q 382 14 433 -20 q 300 113 331 47 l 300 0 l 102 0 l 102 1055 l 300 1055 l 300 652 z "},"c":{"ha":836,"x_min":114,"x_max":720,"o":"m 720 39 q 612 -5 669 9 q 488 -20 554 -20 q 213 86 312 -20 q 114 379 114 192 q 214 673 114 567 q 489 779 313 779 q 607 765 550 779 q 720 721 663 751 l 720 539 q 624 596 676 576 q 517 616 572 616 q 368 555 420 616 q 315 379 315 493 q 368 204 315 265 q 517 143 420 143 q 625 162 574 143 q 720 221 675 182 l 720 39 z "},"d":{"ha":836,"x_min":61,"x_max":734,"o":"m 536 652 l 536 1055 l 734 1055 l 734 0 l 536 0 l 536 113 q 454 14 505 47 q 335 -20 404 -20 q 133 85 205 -20 q 61 379 61 189 q 134 675 61 572 q 342 778 207 778 q 451 746 403 778 q 536 652 500 715 m 260 378 q 296 205 260 268 q 397 143 333 143 q 499 205 462 143 q 536 378 536 268 q 499 550 536 488 q 397 612 462 612 q 296 550 333 612 q 260 378 260 488 z "},"e":{"ha":836,"x_min":62,"x_max":779,"o":"m 747 37 q 606 -5 678 9 q 454 -20 534 -20 q 163 82 264 -20 q 62 376 62 184 q 159 670 62 562 q 424 778 256 778 q 686 678 593 778 q 779 396 779 578 l 779 315 l 264 315 q 317 182 265 226 q 473 138 370 138 q 608 157 542 138 q 747 220 675 177 l 747 37 m 579 465 q 539 584 578 543 q 424 624 500 624 q 315 582 355 624 q 267 464 274 541 l 579 465 z "},"f":{"ha":836,"x_min":118,"x_max":734,"o":"m 501 826 l 501 760 l 734 760 l 734 607 l 501 607 l 501 0 l 302 0 l 302 607 l 118 607 l 118 760 l 302 760 l 302 812 q 359 1002 302 949 q 571 1055 416 1055 l 734 1055 l 734 903 l 579 903 q 518 886 534 903 q 501 826 503 870 z "},"g":{"ha":836,"x_min":66,"x_max":743,"o":"m 545 392 q 506 555 545 494 q 404 616 467 616 q 303 555 342 616 q 265 392 265 494 q 303 228 265 289 q 404 167 342 167 q 506 228 467 167 q 545 392 545 290 m 743 57 q 661 -207 743 -125 q 393 -288 578 -288 q 270 -278 331 -288 q 146 -250 209 -269 l 146 -68 q 260 -114 202 -99 q 380 -129 319 -129 q 505 -89 465 -129 q 545 35 545 -50 l 545 117 q 467 36 515 62 q 350 9 419 9 q 143 111 220 9 q 66 387 66 213 q 143 673 66 568 q 349 779 220 779 q 465 749 414 779 q 545 663 515 718 l 545 760 l 743 760 l 743 57 z "},"h":{"ha":836,"x_min":117,"x_max":726,"o":"m 726 493 l 726 0 l 529 0 l 529 463 q 506 580 529 545 q 429 615 482 615 q 345 567 375 615 q 314 435 314 519 l 314 0 l 117 0 l 117 1055 l 314 1055 l 314 646 q 386 743 335 709 q 509 778 437 778 q 671 706 616 778 q 726 493 726 635 z "},"i":{"ha":836,"x_min":97,"x_max":790,"o":"m 150 760 l 543 760 l 543 153 l 790 153 l 790 0 l 97 0 l 97 153 l 345 153 l 345 607 l 150 607 l 150 760 m 345 1129 l 543 1129 l 543 897 l 345 897 l 345 1129 z "},"j":{"ha":836,"x_min":97,"x_max":576,"o":"m 576 29 q 515 -215 576 -142 q 311 -288 454 -288 l 97 -288 l 97 -135 l 256 -135 q 350 -98 322 -135 q 378 29 378 -60 l 378 607 l 176 607 l 176 760 l 576 760 l 576 29 m 576 897 l 378 897 l 378 1129 l 576 1129 l 576 897 z "},"k":{"ha":836,"x_min":118,"x_max":812,"o":"m 118 1055 l 317 1055 l 317 501 l 555 760 l 796 760 l 509 476 l 812 0 l 593 0 l 385 355 l 317 290 l 317 0 l 118 0 l 118 1055 z "},"l":{"ha":836,"x_min":61,"x_max":742,"o":"m 262 317 l 262 903 l 61 903 l 61 1055 l 461 1055 l 461 317 q 489 190 461 227 q 583 153 517 153 l 742 153 l 742 0 l 528 0 q 324 73 386 0 q 262 317 262 146 z "},"m":{"ha":836,"x_min":56,"x_max":783,"o":"m 468 684 q 525 755 490 732 q 610 778 559 778 q 746 710 708 778 q 783 428 783 642 l 783 0 l 621 0 l 621 488 q 608 601 621 572 q 561 629 595 629 q 513 600 527 629 q 500 488 500 571 l 500 0 l 339 0 l 339 488 q 326 600 339 571 q 278 629 312 629 q 231 601 244 629 q 218 488 218 572 l 218 0 l 56 0 l 56 760 l 200 760 l 200 681 q 254 752 217 726 q 338 778 292 778 q 422 750 384 778 q 468 684 460 723 z "},"n":{"ha":836,"x_min":117,"x_max":726,"o":"m 726 493 l 726 0 l 529 0 l 529 463 q 506 581 529 545 q 429 616 482 616 q 345 568 376 616 q 314 435 314 520 l 314 0 l 117 0 l 117 760 l 314 760 l 314 646 q 386 743 335 709 q 509 778 437 778 q 671 706 616 778 q 726 493 726 635 z "},"o":{"ha":836,"x_min":66,"x_max":770,"o":"m 418 616 q 306 554 347 616 q 265 379 265 491 q 306 204 265 267 q 418 142 347 142 q 530 204 490 142 q 571 379 571 267 q 530 554 571 491 q 418 616 490 616 m 66 379 q 162 670 66 563 q 418 778 257 778 q 674 670 579 778 q 770 379 770 563 q 674 88 770 195 q 418 -20 579 -20 q 162 88 257 -20 q 66 379 66 195 z "},"p":{"ha":836,"x_min":102,"x_max":775,"o":"m 300 107 l 300 -289 l 102 -289 l 102 760 l 300 760 l 300 646 q 382 745 331 711 q 501 778 433 778 q 703 673 631 778 q 775 379 775 569 q 702 83 775 186 q 494 -20 629 -20 q 385 12 433 -20 q 300 107 336 43 m 576 380 q 540 553 576 490 q 439 615 503 615 q 337 553 374 615 q 300 380 300 490 q 337 208 300 271 q 439 146 374 146 q 540 208 503 146 q 576 380 576 271 z "},"q":{"ha":836,"x_min":61,"x_max":734,"o":"m 260 380 q 296 208 260 271 q 397 146 333 146 q 499 208 462 146 q 536 380 536 271 q 499 553 536 490 q 397 615 462 615 q 296 553 333 615 q 260 380 260 490 m 536 107 q 451 12 500 43 q 342 -20 403 -20 q 134 83 207 -20 q 61 379 61 186 q 133 673 61 569 q 335 778 205 778 q 454 745 404 778 q 536 646 505 711 l 536 760 l 734 760 l 734 -289 l 536 -289 l 536 107 z "},"r":{"ha":836,"x_min":197,"x_max":781,"o":"m 781 550 q 704 595 748 580 q 608 610 661 610 q 498 588 545 610 q 425 524 451 566 q 402 461 409 498 q 396 350 396 425 l 396 0 l 197 0 l 197 760 l 396 760 l 396 642 q 486 742 425 707 q 627 778 546 778 q 706 768 667 778 q 781 739 745 758 l 781 550 z "},"s":{"ha":836,"x_min":117,"x_max":724,"o":"m 672 736 l 672 562 q 558 615 617 597 q 439 633 498 633 q 338 614 372 633 q 304 557 304 595 q 450 469 304 503 l 457 467 l 514 453 q 673 370 623 427 q 724 215 724 313 q 647 39 724 98 q 415 -20 570 -20 q 275 -8 347 -20 q 129 28 203 4 l 129 201 q 263 144 195 164 q 395 125 331 125 q 500 145 465 125 q 536 204 536 165 q 511 262 536 242 q 390 306 486 283 l 335 318 q 169 399 221 344 q 117 546 117 454 q 196 717 117 656 q 419 778 275 778 q 548 767 484 778 q 672 736 612 757 z "},"t":{"ha":836,"x_min":75,"x_max":728,"o":"m 468 975 l 468 760 l 728 760 l 728 607 l 468 607 l 468 248 q 493 175 468 197 q 575 153 517 153 l 728 153 l 728 0 l 561 0 q 330 55 390 0 q 269 257 269 109 l 269 607 l 75 607 l 75 760 l 269 760 l 269 975 l 468 975 z "},"u":{"ha":836,"x_min":109,"x_max":720,"o":"m 109 265 l 109 760 l 307 760 l 307 296 q 330 178 307 214 q 407 143 353 143 q 491 191 460 143 q 521 323 521 238 l 521 760 l 720 760 l 720 0 l 521 0 l 521 113 q 449 15 500 50 q 328 -20 399 -20 q 164 52 219 -20 q 109 265 109 124 z "},"v":{"ha":836,"x_min":54,"x_max":782,"o":"m 782 760 l 541 0 l 296 0 l 54 760 l 256 760 l 418 167 l 581 760 l 782 760 z "},"w":{"ha":836,"x_min":0,"x_max":836,"o":"m 0 760 l 165 760 l 256 178 l 338 561 l 498 561 l 579 178 l 671 760 l 836 760 l 699 0 l 510 0 l 418 395 l 326 0 l 138 0 l 0 760 z "},"x":{"ha":836,"x_min":37,"x_max":799,"o":"m 777 760 l 521 396 l 799 0 l 567 0 l 418 256 l 269 0 l 37 0 l 318 396 l 60 760 l 292 760 l 418 533 l 545 760 l 777 760 z "},"y":{"ha":836,"x_min":40,"x_max":798,"o":"m 482 -82 q 386 -238 442 -189 q 250 -288 330 -288 l 86 -288 l 86 -136 l 167 -136 q 256 -116 228 -136 q 314 -20 285 -95 l 329 21 l 40 760 l 249 760 l 422 267 l 589 760 l 798 760 l 482 -82 z "},"z":{"ha":836,"x_min":110,"x_max":733,"o":"m 126 760 l 733 760 l 733 604 l 334 149 l 733 149 l 733 0 l 110 0 l 110 155 l 510 611 l 126 611 l 126 760 z "},"{":{"ha":836,"x_min":119,"x_max":714,"o":"m 714 -97 l 714 -227 l 612 -227 q 386 -176 444 -227 q 329 24 329 -126 l 329 170 q 293 311 329 272 q 161 350 256 350 l 119 350 l 119 479 l 161 479 q 293 518 256 479 q 329 660 329 557 l 329 806 q 386 1005 329 956 q 612 1055 444 1055 l 714 1055 l 714 926 l 631 926 q 536 898 560 926 q 513 772 513 869 l 513 631 q 479 473 513 519 q 361 415 446 428 q 479 355 446 401 q 513 197 513 309 l 513 58 q 536 -68 513 -39 q 631 -97 560 -97 l 714 -97 z "},"|":{"ha":836,"x_min":340,"x_max":494,"o":"m 494 1055 l 494 -334 l 340 -334 l 340 1055 l 494 1055 z "},"}":{"ha":836,"x_min":122,"x_max":717,"o":"m 122 -97 l 204 -97 q 299 -68 275 -97 q 323 58 323 -39 l 323 197 q 357 355 323 309 q 475 415 390 401 q 356 473 389 428 q 323 631 323 519 l 323 772 q 299 897 323 868 q 204 926 275 926 l 122 926 l 122 1055 l 224 1055 q 449 1005 392 1055 q 505 806 505 956 l 505 660 q 542 518 505 557 q 675 479 579 479 l 717 479 l 717 350 l 675 350 q 542 311 579 350 q 505 170 505 271 l 505 24 q 449 -176 505 -126 q 224 -227 392 -227 l 122 -227 l 122 -97 z "},"~":{"ha":836,"x_min":0,"x_max":821,"o":"m 821 435 q 702 244 759 294 q 581 195 643 195 q 406 294 483 200 l 302 422 q 235 454 276 456 q 169 413 192 454 q 110 280 145 370 l 0 343 q 47 458 21 410 q 104 537 74 507 q 235 598 168 598 q 346 565 294 599 q 444 462 398 532 q 581 335 528 335 q 654 385 625 335 q 684 442 669 411 q 712 507 699 473 l 821 435 z "}," ":{"ha":836,"x_min":0,"x_max":0,"o":""},"¡":{"ha":836,"x_min":328,"x_max":509,"o":"m 509 821 l 328 821 l 328 1013 l 509 1013 l 509 821 m 509 0 l 328 0 l 328 444 l 350 686 l 485 686 l 509 444 l 509 0 z "},"¢":{"ha":836,"x_min":100,"x_max":703,"o":"m 703 730 l 703 549 q 624 594 665 577 q 541 615 583 610 l 541 146 q 624 165 584 149 q 703 211 665 182 l 703 29 q 627 -2 667 9 q 541 -17 586 -14 l 541 -212 l 444 -212 l 444 -17 q 192 104 285 -2 q 100 380 100 211 q 192 660 100 553 q 444 777 285 766 l 444 971 l 541 971 l 541 777 q 622 762 582 773 q 703 730 661 751 m 444 146 l 444 615 q 325 545 367 606 q 283 380 283 484 q 326 213 283 275 q 444 146 369 150 z "},"£":{"ha":836,"x_min":81,"x_max":761,"o":"m 747 991 l 747 806 q 665 848 709 833 q 574 863 621 863 q 468 818 502 863 q 435 675 435 772 l 435 555 l 663 555 l 663 403 l 435 403 l 435 176 l 761 176 l 761 0 l 81 0 l 81 176 l 240 176 l 240 403 l 106 403 l 106 555 l 240 555 l 240 689 q 316 947 240 863 q 550 1031 393 1031 q 654 1021 606 1031 q 747 991 703 1011 z "},"¤":{"ha":836,"x_min":126,"x_max":758,"o":"m 561 436 q 527 519 561 486 q 443 553 493 553 q 359 519 393 553 q 325 436 325 486 q 359 351 325 386 q 443 317 393 317 q 527 351 493 317 q 561 436 561 386 m 555 636 l 672 751 l 758 664 l 643 549 q 666 493 659 521 q 673 435 673 465 q 666 375 673 403 q 642 323 658 348 l 758 208 l 669 119 l 554 236 q 503 212 530 220 q 443 204 475 204 q 388 211 416 204 q 329 233 359 218 l 214 119 l 126 207 l 241 322 q 219 379 227 351 q 211 435 211 407 q 219 494 211 467 q 243 547 227 522 l 126 663 l 215 751 l 328 635 q 384 659 355 651 q 443 667 412 667 q 497 659 469 667 q 555 636 524 652 z "},"¥":{"ha":836,"x_min":5,"x_max":831,"o":"m 5 1013 l 221 1013 l 418 606 l 615 1013 l 831 1013 l 646 654 l 798 654 l 798 528 l 579 528 l 521 425 l 798 425 l 798 297 l 518 297 l 518 0 l 318 0 l 318 297 l 39 297 l 39 425 l 315 425 l 257 528 l 39 528 l 39 654 l 191 654 l 5 1013 z "},"¦":{"ha":836,"x_min":340,"x_max":494,"o":"m 494 277 l 494 -237 l 340 -237 l 340 277 l 494 277 m 494 971 l 494 457 l 340 457 l 340 971 l 494 971 z "},"§":{"ha":836,"x_min":115,"x_max":720,"o":"m 351 581 q 297 533 314 556 q 281 482 281 509 q 314 416 281 446 q 482 321 347 386 q 536 369 519 345 q 553 421 553 392 q 373 570 553 476 l 351 581 m 631 990 l 631 838 q 528 868 573 858 q 447 878 484 878 q 367 858 395 878 q 338 803 338 838 q 475 681 338 752 q 494 671 488 674 q 680 548 640 596 q 720 432 720 500 q 687 328 720 372 q 586 253 655 285 q 655 177 633 219 q 677 81 677 136 q 607 -76 677 -19 q 410 -132 536 -132 q 291 -122 349 -132 q 175 -93 233 -113 l 175 62 q 288 32 233 42 q 392 21 342 21 q 472 40 444 21 q 500 96 500 60 q 355 221 500 143 l 347 225 l 330 235 q 115 467 115 350 q 151 577 115 530 q 252 647 186 625 q 182 722 203 681 q 160 818 160 762 q 231 972 160 914 q 418 1031 301 1031 q 521 1021 468 1031 q 631 990 574 1010 z "},"¨":{"ha":836,"x_min":204,"x_max":632,"o":"m 472 1075 l 632 1075 l 632 908 l 472 908 l 472 1075 m 204 1075 l 364 1075 l 364 908 l 204 908 l 204 1075 z "},"©":{"ha":836,"x_min":0,"x_max":836,"o":"m 575 710 l 575 596 q 509 627 540 617 q 446 636 478 636 q 343 601 380 636 q 307 502 307 566 q 343 403 307 437 q 446 368 379 368 q 514 378 481 368 q 575 408 547 388 l 575 294 q 502 277 538 283 q 432 271 466 271 q 249 334 317 271 q 180 502 180 397 q 249 670 180 608 q 432 733 317 733 q 505 727 469 733 q 575 710 541 722 m 418 921 q 578 890 504 921 q 713 799 652 860 q 805 663 774 737 q 836 503 836 588 q 805 344 836 418 q 713 208 774 270 q 577 116 651 146 q 418 85 503 85 q 259 116 333 85 q 123 208 185 146 q 31 344 62 270 q 0 503 0 418 q 31 663 0 588 q 123 799 62 737 q 258 890 184 860 q 418 921 332 921 m 418 832 q 293 808 351 832 q 186 734 235 784 q 113 628 138 686 q 89 502 89 570 q 113 378 89 435 q 186 272 138 321 q 292 198 234 223 q 418 174 351 174 q 544 198 486 174 q 650 272 602 223 q 723 378 699 321 q 747 502 747 435 q 723 628 747 570 q 650 734 699 686 q 544 808 601 784 q 418 832 486 832 z "},"ª":{"ha":836,"x_min":174,"x_max":665,"o":"m 533 711 l 533 732 l 464 732 q 356 714 390 732 q 322 659 322 696 q 343 606 322 625 q 400 587 363 587 q 496 622 458 587 q 533 711 533 657 m 533 549 q 458 492 499 510 q 364 473 417 473 q 225 520 276 473 q 174 646 174 566 q 236 782 174 736 q 427 827 299 827 l 533 827 l 533 844 q 502 894 533 878 q 410 911 471 911 q 306 900 354 911 q 214 865 257 888 l 214 993 q 313 1021 263 1012 q 415 1031 363 1031 q 604 972 543 1031 q 664 790 664 914 l 664 486 l 533 486 l 533 549 m 199 406 l 665 406 l 665 290 l 199 290 l 199 406 z "},"«":{"ha":836,"x_min":81,"x_max":707,"o":"m 707 718 l 707 557 l 519 407 l 707 257 l 707 96 l 389 363 l 389 452 l 707 718 m 399 718 l 399 557 l 211 407 l 399 257 l 399 96 l 81 363 l 81 452 l 399 718 z "},"¬":{"ha":836,"x_min":60,"x_max":777,"o":"m 60 610 l 777 610 l 777 245 l 615 245 l 615 449 l 60 449 l 60 610 z "},"­":{"ha":836,"x_min":69,"x_max":741,"o":"m 69 491 l 741 491 l 741 309 l 69 309 l 69 491 z "},"®":{"ha":836,"x_min":0,"x_max":836,"o":"m 418 921 q 578 890 504 921 q 713 799 652 860 q 805 663 774 737 q 836 503 836 588 q 805 344 836 418 q 713 208 774 270 q 577 116 651 146 q 418 85 503 85 q 259 116 333 85 q 123 208 185 146 q 31 344 62 270 q 0 503 0 418 q 31 663 0 588 q 123 799 62 737 q 258 890 184 860 q 418 921 332 921 m 399 639 l 355 639 l 355 529 l 399 529 q 457 543 437 529 q 476 583 476 556 q 457 625 476 612 q 399 639 438 639 m 411 714 q 545 685 501 714 q 589 594 589 655 q 562 522 589 550 q 488 485 536 493 q 532 456 513 475 q 567 404 551 437 l 621 292 l 504 292 l 461 382 q 424 437 443 421 q 376 454 404 453 l 355 454 l 355 292 l 244 292 l 244 714 l 411 714 m 418 832 q 293 808 351 832 q 186 734 235 784 q 113 628 138 686 q 89 502 89 570 q 113 378 89 435 q 186 271 138 321 q 293 198 235 222 q 418 174 351 174 q 543 198 485 174 q 650 271 602 222 q 723 378 699 321 q 747 502 747 435 q 723 628 747 570 q 650 734 699 686 q 544 808 601 784 q 418 832 486 832 z "},"¯":{"ha":836,"x_min":71,"x_max":750,"o":"m 71 1025 l 750 1025 l 750 902 l 71 902 l 71 1025 z "},"°":{"ha":836,"x_min":192,"x_max":643,"o":"m 418 1031 q 505 1014 463 1031 q 578 964 546 996 q 626 891 610 932 q 643 804 643 850 q 626 718 643 760 q 578 646 609 677 q 504 596 545 614 q 416 579 463 579 q 256 644 321 579 q 192 804 192 708 q 257 965 192 900 q 418 1031 322 1031 m 418 921 q 336 887 370 921 q 302 804 302 853 q 335 722 302 755 q 417 689 368 689 q 499 723 465 689 q 533 804 533 756 q 499 887 533 853 q 418 921 466 921 z "},"±":{"ha":836,"x_min":60,"x_max":777,"o":"m 499 871 l 499 631 l 777 631 l 777 471 l 499 471 l 499 231 l 338 231 l 338 471 l 60 471 l 60 631 l 338 631 l 338 871 l 499 871 m 60 161 l 777 161 l 777 0 l 60 0 l 60 161 z "},"²":{"ha":836,"x_min":186,"x_max":637,"o":"m 339 551 l 637 551 l 637 453 l 186 453 l 186 549 q 281 629 220 578 q 494 860 494 806 q 465 916 494 895 q 385 936 435 936 q 301 924 347 936 q 203 889 255 912 l 203 1000 q 302 1023 254 1015 q 395 1031 350 1031 q 573 988 509 1031 q 636 871 636 946 q 395 595 636 785 q 339 551 359 567 z "},"³":{"ha":836,"x_min":195,"x_max":653,"o":"m 395 707 l 319 707 l 319 806 l 395 806 q 474 823 445 806 q 503 869 503 840 q 476 917 503 900 q 401 935 449 935 q 308 927 355 935 q 215 904 261 920 l 215 1007 q 309 1025 262 1019 q 401 1031 356 1031 q 574 991 511 1031 q 636 884 636 952 q 601 802 636 834 q 498 760 565 770 q 613 711 574 749 q 653 611 653 673 q 588 486 653 529 q 397 443 522 443 q 296 450 347 443 q 195 471 245 457 l 195 575 q 292 547 240 557 q 397 538 343 538 q 487 559 455 538 q 519 619 519 581 q 486 684 519 661 q 395 707 453 707 z "},"´":{"ha":836,"x_min":318,"x_max":701,"o":"m 510 1111 l 701 1111 l 452 856 l 318 856 l 510 1111 z "},"µ":{"ha":836,"x_min":118,"x_max":806,"o":"m 118 -290 l 118 760 l 313 760 l 313 298 q 340 182 313 221 q 424 143 368 143 q 506 182 479 143 q 533 298 533 220 l 533 760 l 729 760 l 729 233 q 738 164 729 185 q 768 143 747 143 q 787 147 778 143 q 806 158 795 151 l 806 11 q 751 -12 777 -5 q 703 -20 726 -20 q 623 6 654 -20 q 574 87 592 31 q 511 7 549 35 q 427 -20 474 -20 q 358 -4 387 -20 q 313 45 330 12 l 314 -290 l 118 -290 z "},"¶":{"ha":836,"x_min":47,"x_max":722,"o":"m 370 1013 l 722 1013 l 722 -134 l 593 -134 l 593 913 l 464 913 l 464 -134 l 336 -134 l 336 440 q 122 531 197 457 q 47 726 47 606 q 136 934 47 855 q 370 1013 224 1013 z "},"·":{"ha":836,"x_min":304,"x_max":531,"o":"m 304 607 l 531 607 l 531 359 l 304 359 l 304 607 z "},"¸":{"ha":836,"x_min":249,"x_max":555,"o":"m 479 0 q 537 -78 518 -42 q 555 -146 555 -114 q 514 -241 555 -210 q 386 -272 472 -272 q 319 -268 353 -272 q 249 -254 285 -263 l 249 -149 q 308 -166 279 -160 q 361 -172 336 -172 q 422 -157 400 -172 q 444 -114 444 -141 q 430 -68 444 -96 q 385 0 416 -41 l 479 0 z "},"¹":{"ha":836,"x_min":212,"x_max":652,"o":"m 212 551 l 366 551 l 366 920 l 216 890 l 216 991 l 367 1019 l 498 1019 l 498 551 l 652 551 l 652 453 l 212 453 l 212 551 z "},"º":{"ha":836,"x_min":186,"x_max":677,"o":"m 199 406 l 665 406 l 665 290 l 199 290 l 199 406 m 186 751 q 253 955 186 880 q 432 1031 319 1031 q 611 956 545 1031 q 677 751 677 880 q 611 548 677 623 q 432 473 545 473 q 253 548 319 473 q 186 751 186 623 m 432 911 q 354 868 382 911 q 325 751 325 825 q 354 635 325 677 q 432 593 382 593 q 510 635 481 593 q 539 751 539 677 q 510 868 539 825 q 432 911 481 911 z "},"»":{"ha":836,"x_min":131,"x_max":757,"o":"m 131 718 l 449 452 l 449 363 l 131 96 l 131 257 l 318 407 l 131 557 l 131 718 m 439 718 l 757 452 l 757 363 l 439 96 l 439 257 l 627 407 l 439 557 l 439 718 z "},"¼":{"ha":836,"x_min":32,"x_max":775,"o":"m 558 260 l 389 37 l 558 37 l 558 260 m 546 384 l 684 384 l 684 37 l 758 37 l 758 -60 l 684 -60 l 684 -182 l 558 -182 l 558 -60 l 292 -60 l 292 50 l 546 384 m 38 657 l 191 657 l 191 1025 l 42 996 l 42 1097 l 193 1125 l 324 1125 l 324 657 l 477 657 l 477 559 l 38 559 l 38 657 m 57 339 l 32 419 l 750 597 l 775 517 l 57 339 z "},"½":{"ha":836,"x_min":32,"x_max":775,"o":"m 38 657 l 191 657 l 191 1025 l 42 996 l 42 1097 l 193 1125 l 324 1125 l 324 657 l 477 657 l 477 559 l 38 559 l 38 657 m 57 339 l 32 419 l 750 597 l 775 517 l 57 339 m 475 -84 l 774 -84 l 774 -182 l 322 -182 l 322 -87 q 418 -7 357 -58 q 631 224 631 171 q 601 280 631 260 q 521 300 572 300 q 437 289 483 300 q 339 254 391 277 l 339 365 q 438 388 390 380 q 531 395 486 395 q 709 353 646 395 q 772 235 772 311 q 532 -40 772 150 q 475 -84 495 -68 z "},"¾":{"ha":836,"x_min":32,"x_max":775,"o":"m 558 260 l 389 37 l 558 37 l 558 260 m 546 384 l 684 384 l 684 37 l 758 37 l 758 -60 l 684 -60 l 684 -182 l 558 -182 l 558 -60 l 292 -60 l 292 50 l 546 384 m 241 812 l 166 812 l 166 911 l 241 911 q 320 928 292 911 q 349 975 349 945 q 322 1023 349 1006 q 248 1040 296 1040 q 155 1033 201 1040 q 62 1010 108 1025 l 62 1113 q 156 1131 109 1124 q 248 1137 203 1137 q 420 1097 358 1137 q 483 989 483 1058 q 447 908 483 940 q 345 865 412 876 q 460 817 420 855 q 500 717 500 779 q 434 592 500 635 q 244 549 369 549 q 142 556 193 549 q 41 576 92 563 l 41 681 q 138 653 87 663 q 244 644 190 644 q 334 665 302 644 q 366 725 366 687 q 333 789 366 766 q 241 812 300 812 m 57 339 l 32 419 l 750 597 l 775 517 l 57 339 z "},"¿":{"ha":836,"x_min":119,"x_max":682,"o":"m 542 821 l 361 821 l 361 1013 l 542 1013 l 542 821 m 361 741 l 542 741 l 542 636 q 521 521 542 569 q 446 421 500 473 l 385 361 q 328 293 343 321 q 313 236 313 266 q 344 168 313 191 q 437 144 375 144 q 555 169 494 144 q 682 240 616 193 l 682 58 q 548 1 616 20 q 411 -18 479 -18 q 197 45 275 -18 q 119 221 119 109 q 142 317 119 273 q 229 424 165 361 l 289 482 q 347 554 334 526 q 359 625 359 583 q 360 629 359 626 q 361 657 361 644 l 361 741 z "},"À":{"ha":836,"x_min":22,"x_max":814,"o":"m 418 829 l 323 415 l 513 415 l 418 829 m 296 1013 l 541 1013 l 814 0 l 614 0 l 551 250 l 283 250 l 222 0 l 22 0 l 296 1013 m 385 1288 l 519 1109 l 386 1109 l 192 1288 l 385 1288 z "},"Á":{"ha":836,"x_min":22,"x_max":814,"o":"m 418 829 l 323 415 l 513 415 l 418 829 m 296 1013 l 541 1013 l 814 0 l 614 0 l 551 250 l 283 250 l 222 0 l 22 0 l 296 1013 m 453 1288 l 646 1288 l 452 1109 l 318 1109 l 453 1288 z "},"Â":{"ha":836,"x_min":22,"x_max":814,"o":"m 418 829 l 323 415 l 513 415 l 418 829 m 296 1013 l 541 1013 l 814 0 l 614 0 l 551 250 l 283 250 l 222 0 l 22 0 l 296 1013 m 313 1288 l 522 1288 l 673 1109 l 553 1109 l 418 1218 l 283 1109 l 163 1109 l 313 1288 z "},"Ã":{"ha":836,"x_min":22,"x_max":814,"o":"m 418 829 l 323 415 l 513 415 l 418 829 m 296 1013 l 541 1013 l 814 0 l 614 0 l 551 250 l 283 250 l 222 0 l 22 0 l 296 1013 m 419 1142 l 382 1165 q 374 1170 379 1167 q 325 1187 344 1187 q 290 1167 304 1187 q 277 1113 277 1147 l 277 1109 l 182 1109 l 182 1129 q 219 1245 182 1201 q 315 1289 256 1289 q 365 1281 340 1289 q 416 1256 391 1272 l 457 1230 q 485 1215 471 1220 q 509 1210 498 1210 q 546 1230 533 1210 q 559 1289 559 1251 l 654 1289 q 654 1279 654 1286 q 653 1268 653 1272 q 617 1153 653 1196 q 521 1109 581 1109 q 472 1116 496 1109 q 419 1142 448 1124 z "},"Ä":{"ha":836,"x_min":22,"x_max":814,"o":"m 418 829 l 323 415 l 513 415 l 418 829 m 296 1013 l 541 1013 l 814 0 l 614 0 l 551 250 l 283 250 l 222 0 l 22 0 l 296 1013 m 472 1288 l 632 1288 l 632 1121 l 472 1121 l 472 1288 m 204 1288 l 364 1288 l 364 1121 l 204 1121 l 204 1288 z "},"Å":{"ha":836,"x_min":22,"x_max":814,"o":"m 553 964 l 814 0 l 614 0 l 551 250 l 283 250 l 222 0 l 22 0 l 283 964 q 239 1022 254 989 q 225 1096 225 1055 q 282 1232 225 1175 q 418 1289 338 1289 q 554 1232 498 1289 q 611 1096 611 1175 q 597 1022 611 1054 q 553 964 583 989 m 329 1096 q 355 1033 329 1059 q 418 1007 382 1007 q 481 1033 455 1007 q 507 1096 507 1059 q 481 1159 507 1133 q 418 1185 454 1185 q 355 1159 382 1185 q 329 1096 329 1133 m 418 829 l 323 415 l 513 415 l 418 829 z "},"Æ":{"ha":836,"x_min":0,"x_max":800,"o":"m 787 1013 l 787 836 l 590 836 l 590 625 l 766 625 l 766 449 l 590 449 l 590 176 l 800 176 l 800 0 l 418 0 l 418 245 l 227 245 l 168 0 l 0 0 l 243 1013 l 787 1013 m 364 836 l 264 406 l 418 406 l 418 836 l 364 836 z "},"Ç":{"ha":836,"x_min":103,"x_max":733,"o":"m 559 0 q 616 -78 597 -42 q 635 -146 635 -114 q 593 -241 635 -210 q 465 -272 551 -272 q 398 -268 433 -272 q 328 -254 364 -263 l 328 -149 q 387 -166 359 -160 q 440 -172 416 -172 q 502 -157 479 -172 q 524 -114 524 -141 q 509 -68 524 -96 q 464 0 495 -41 l 559 0 m 733 29 q 633 -7 686 5 q 524 -20 581 -20 q 211 115 319 -20 q 103 505 103 250 q 211 896 103 761 q 524 1031 319 1031 q 634 1019 581 1031 q 733 982 687 1006 l 733 760 q 633 829 682 807 q 533 851 585 851 q 367 764 423 851 q 311 505 311 677 q 367 247 311 334 q 533 160 423 160 q 633 182 585 160 q 733 252 682 204 l 733 29 z "},"È":{"ha":836,"x_min":114,"x_max":745,"o":"m 745 0 l 114 0 l 114 1013 l 745 1013 l 745 836 l 314 836 l 314 618 l 704 618 l 704 441 l 314 441 l 314 176 l 745 176 l 745 0 m 406 1288 l 541 1109 l 407 1109 l 213 1288 l 406 1288 z "},"É":{"ha":836,"x_min":114,"x_max":745,"o":"m 745 0 l 114 0 l 114 1013 l 745 1013 l 745 836 l 314 836 l 314 618 l 704 618 l 704 441 l 314 441 l 314 176 l 745 176 l 745 0 m 474 1288 l 667 1288 l 473 1109 l 339 1109 l 474 1288 z "},"Ê":{"ha":836,"x_min":114,"x_max":745,"o":"m 745 0 l 114 0 l 114 1013 l 745 1013 l 745 836 l 314 836 l 314 618 l 704 618 l 704 441 l 314 441 l 314 176 l 745 176 l 745 0 m 334 1288 l 543 1288 l 694 1109 l 574 1109 l 439 1218 l 304 1109 l 184 1109 l 334 1288 z "},"Ë":{"ha":836,"x_min":114,"x_max":745,"o":"m 745 0 l 114 0 l 114 1013 l 745 1013 l 745 836 l 314 836 l 314 618 l 704 618 l 704 441 l 314 441 l 314 176 l 745 176 l 745 0 m 493 1288 l 653 1288 l 653 1121 l 493 1121 l 493 1288 m 225 1288 l 385 1288 l 385 1121 l 225 1121 l 225 1288 z "},"Ì":{"ha":836,"x_min":117,"x_max":720,"o":"m 117 836 l 117 1013 l 720 1013 l 720 836 l 518 836 l 518 176 l 720 176 l 720 0 l 117 0 l 117 176 l 318 176 l 318 836 l 117 836 m 385 1288 l 519 1109 l 386 1109 l 192 1288 l 385 1288 z "},"Í":{"ha":836,"x_min":117,"x_max":720,"o":"m 117 836 l 117 1013 l 720 1013 l 720 836 l 518 836 l 518 176 l 720 176 l 720 0 l 117 0 l 117 176 l 318 176 l 318 836 l 117 836 m 453 1288 l 646 1288 l 452 1109 l 318 1109 l 453 1288 z "},"Î":{"ha":836,"x_min":117,"x_max":720,"o":"m 117 836 l 117 1013 l 720 1013 l 720 836 l 518 836 l 518 176 l 720 176 l 720 0 l 117 0 l 117 176 l 318 176 l 318 836 l 117 836 m 313 1288 l 522 1288 l 673 1109 l 553 1109 l 418 1218 l 283 1109 l 163 1109 l 313 1288 z "},"Ï":{"ha":836,"x_min":117,"x_max":720,"o":"m 117 836 l 117 1013 l 720 1013 l 720 836 l 518 836 l 518 176 l 720 176 l 720 0 l 117 0 l 117 176 l 318 176 l 318 836 l 117 836 m 472 1288 l 632 1288 l 632 1121 l 472 1121 l 472 1288 m 204 1288 l 364 1288 l 364 1121 l 204 1121 l 204 1288 z "},"Ð":{"ha":836,"x_min":0,"x_max":774,"o":"m 293 832 l 293 611 l 436 611 l 436 450 l 293 450 l 293 180 l 347 180 q 515 255 465 180 q 566 507 566 329 q 515 758 566 684 q 347 832 465 832 l 293 832 m 93 1013 l 307 1013 q 665 894 555 1013 q 774 507 774 776 q 665 119 774 238 q 307 0 555 0 l 93 0 l 93 450 l 0 450 l 0 611 l 93 611 l 93 1013 z "},"Ñ":{"ha":836,"x_min":81,"x_max":754,"o":"m 81 1013 l 296 1013 l 578 277 l 578 1013 l 754 1013 l 754 0 l 541 0 l 257 736 l 257 0 l 81 0 l 81 1013 m 418 1142 l 382 1165 q 374 1170 378 1167 q 324 1187 343 1187 q 290 1167 303 1187 q 276 1113 276 1147 l 276 1109 l 181 1109 l 181 1129 q 218 1245 181 1201 q 315 1289 255 1289 q 365 1281 339 1289 q 416 1256 390 1272 l 456 1230 q 484 1215 471 1220 q 508 1210 497 1210 q 546 1230 532 1210 q 559 1289 559 1251 l 654 1289 q 653 1279 654 1286 q 652 1268 652 1272 q 616 1153 652 1196 q 520 1109 580 1109 q 471 1116 495 1109 q 418 1142 447 1124 z "},"Ò":{"ha":836,"x_min":62,"x_max":774,"o":"m 418 851 q 306 769 341 851 q 271 505 271 688 q 306 242 271 323 q 418 160 341 160 q 530 242 495 160 q 566 505 566 323 q 530 769 566 688 q 418 851 495 851 m 62 505 q 152 898 62 765 q 418 1031 242 1031 q 684 898 594 1031 q 774 505 774 765 q 684 113 774 246 q 418 -20 594 -20 q 152 113 242 -20 q 62 505 62 246 m 385 1288 l 519 1109 l 386 1109 l 192 1288 l 385 1288 z "},"Ó":{"ha":836,"x_min":62,"x_max":774,"o":"m 418 851 q 306 769 341 851 q 271 505 271 688 q 306 242 271 323 q 418 160 341 160 q 530 242 495 160 q 566 505 566 323 q 530 769 566 688 q 418 851 495 851 m 62 505 q 152 898 62 765 q 418 1031 242 1031 q 684 898 594 1031 q 774 505 774 765 q 684 113 774 246 q 418 -20 594 -20 q 152 113 242 -20 q 62 505 62 246 m 453 1288 l 646 1288 l 452 1109 l 318 1109 l 453 1288 z "},"Ô":{"ha":836,"x_min":62,"x_max":774,"o":"m 418 851 q 306 769 341 851 q 271 505 271 688 q 306 242 271 323 q 418 160 341 160 q 530 242 495 160 q 566 505 566 323 q 530 769 566 688 q 418 851 495 851 m 62 505 q 152 898 62 765 q 418 1031 242 1031 q 684 898 594 1031 q 774 505 774 765 q 684 113 774 246 q 418 -20 594 -20 q 152 113 242 -20 q 62 505 62 246 m 313 1288 l 522 1288 l 673 1109 l 553 1109 l 418 1218 l 283 1109 l 163 1109 l 313 1288 z "},"Õ":{"ha":836,"x_min":62,"x_max":774,"o":"m 418 851 q 306 769 341 851 q 271 505 271 688 q 306 242 271 323 q 418 160 341 160 q 530 242 495 160 q 566 505 566 323 q 530 769 566 688 q 418 851 495 851 m 62 505 q 152 898 62 765 q 418 1031 242 1031 q 684 898 594 1031 q 774 505 774 765 q 684 113 774 246 q 418 -20 594 -20 q 152 113 242 -20 q 62 505 62 246 m 419 1142 l 382 1165 q 374 1170 379 1167 q 325 1187 344 1187 q 290 1167 304 1187 q 277 1113 277 1147 l 277 1109 l 182 1109 l 182 1129 q 219 1245 182 1201 q 315 1289 256 1289 q 365 1281 340 1289 q 416 1256 391 1272 l 457 1230 q 485 1215 471 1220 q 509 1210 498 1210 q 546 1230 533 1210 q 559 1289 559 1251 l 654 1289 q 654 1279 654 1286 q 653 1268 653 1272 q 617 1153 653 1196 q 521 1109 581 1109 q 472 1116 496 1109 q 419 1142 448 1124 z "},"Ö":{"ha":836,"x_min":62,"x_max":774,"o":"m 418 851 q 306 769 341 851 q 271 505 271 688 q 306 242 271 323 q 418 160 341 160 q 530 242 495 160 q 566 505 566 323 q 530 769 566 688 q 418 851 495 851 m 62 505 q 152 898 62 765 q 418 1031 242 1031 q 684 898 594 1031 q 774 505 774 765 q 684 113 774 246 q 418 -20 594 -20 q 152 113 242 -20 q 62 505 62 246 m 472 1288 l 632 1288 l 632 1121 l 472 1121 l 472 1288 m 204 1288 l 364 1288 l 364 1121 l 204 1121 l 204 1288 z "},"×":{"ha":836,"x_min":81,"x_max":754,"o":"m 754 659 l 530 436 l 754 212 l 640 100 l 416 322 l 195 100 l 81 212 l 304 436 l 81 659 l 195 772 l 416 550 l 640 772 l 754 659 z "},"Ø":{"ha":836,"x_min":-4,"x_max":828,"o":"m 306 240 q 351 181 322 201 q 418 160 380 160 q 530 242 495 160 q 566 505 566 323 q 565 545 566 524 q 562 602 564 566 l 306 240 m 524 782 q 479 834 506 817 q 418 851 453 851 q 306 770 342 851 q 271 513 271 688 l 271 427 l 524 782 m 110 196 q 74 333 86 256 q 62 505 62 410 q 152 898 62 765 q 418 1031 242 1031 q 544 1010 488 1031 q 642 947 600 989 l 718 1057 l 828 979 l 721 828 q 761 683 747 764 q 774 505 774 602 q 684 113 774 246 q 418 -20 594 -20 q 288 3 346 -20 q 187 71 231 26 l 106 -43 l -4 35 l 110 196 z "},"Ù":{"ha":836,"x_min":72,"x_max":764,"o":"m 72 374 l 72 1013 l 272 1013 l 272 323 q 311 204 272 248 q 418 161 349 161 q 525 204 486 161 q 564 323 564 248 l 564 1013 l 764 1013 l 764 374 q 682 74 764 168 q 418 -20 600 -20 q 154 74 237 -20 q 72 374 72 168 m 385 1288 l 519 1109 l 386 1109 l 192 1288 l 385 1288 z "},"Ú":{"ha":836,"x_min":72,"x_max":764,"o":"m 72 374 l 72 1013 l 272 1013 l 272 323 q 311 204 272 248 q 418 161 349 161 q 525 204 486 161 q 564 323 564 248 l 564 1013 l 764 1013 l 764 374 q 682 74 764 168 q 418 -20 600 -20 q 154 74 237 -20 q 72 374 72 168 m 453 1288 l 646 1288 l 452 1109 l 318 1109 l 453 1288 z "},"Û":{"ha":836,"x_min":72,"x_max":764,"o":"m 72 374 l 72 1013 l 272 1013 l 272 323 q 311 204 272 248 q 418 161 349 161 q 525 204 486 161 q 564 323 564 248 l 564 1013 l 764 1013 l 764 374 q 682 74 764 168 q 418 -20 600 -20 q 154 74 237 -20 q 72 374 72 168 m 313 1288 l 522 1288 l 673 1109 l 552 1109 l 418 1218 l 283 1109 l 163 1109 l 313 1288 z "},"Ü":{"ha":836,"x_min":72,"x_max":764,"o":"m 72 374 l 72 1013 l 272 1013 l 272 323 q 311 204 272 248 q 418 161 349 161 q 525 204 486 161 q 564 323 564 248 l 564 1013 l 764 1013 l 764 374 q 682 74 764 168 q 418 -20 600 -20 q 154 74 237 -20 q 72 374 72 168 m 472 1288 l 632 1288 l 632 1121 l 472 1121 l 472 1288 m 203 1288 l 363 1288 l 363 1121 l 203 1121 l 203 1288 z "},"Ý":{"ha":836,"x_min":5,"x_max":831,"o":"m 5 1013 l 221 1013 l 418 606 l 615 1013 l 831 1013 l 518 399 l 518 0 l 318 0 l 318 399 l 5 1013 m 453 1288 l 646 1288 l 452 1109 l 318 1109 l 453 1288 z "},"Þ":{"ha":836,"x_min":110,"x_max":778,"o":"m 310 688 l 310 390 l 392 390 q 530 423 491 390 q 570 538 570 456 q 530 654 570 620 q 392 688 490 688 l 310 688 m 110 1013 l 310 1013 l 310 851 l 385 851 q 686 777 594 851 q 778 534 778 703 q 685 299 778 372 q 385 225 592 225 l 310 225 l 310 0 l 110 0 l 110 1013 z "},"ß":{"ha":836,"x_min":86,"x_max":796,"o":"m 701 718 q 573 683 616 714 q 529 597 529 652 q 608 494 529 554 q 621 484 616 487 l 686 433 q 769 339 742 391 q 796 224 796 288 q 720 45 796 111 q 513 -20 644 -20 q 429 -11 471 -20 q 342 14 387 -3 l 342 183 q 420 151 381 162 q 496 140 459 140 q 574 163 545 140 q 603 225 603 186 q 525 334 603 274 q 494 357 505 349 l 436 403 q 376 478 396 435 q 355 574 355 522 q 406 717 355 659 q 549 796 456 775 q 509 871 543 846 q 414 896 476 896 q 317 862 350 896 q 285 761 285 827 l 285 0 l 86 0 l 86 764 q 168 981 86 907 q 406 1055 250 1055 q 629 975 557 1055 q 701 728 701 895 l 701 718 z "},"à":{"ha":836,"x_min":64,"x_max":751,"o":"m 475 357 q 319 328 363 357 q 275 231 275 300 q 306 149 275 179 q 389 118 336 118 q 511 177 467 118 q 554 343 554 237 l 554 357 l 475 357 m 751 433 l 751 0 l 554 0 l 554 85 q 462 7 518 35 q 338 -20 406 -20 q 136 49 208 -20 q 64 240 64 117 q 150 436 64 373 q 416 500 236 500 l 554 500 l 554 533 q 519 606 554 581 q 416 631 484 631 q 278 613 345 631 q 139 555 212 595 l 139 725 q 273 765 205 752 q 416 778 340 778 q 676 703 602 778 q 751 433 751 627 m 326 1111 l 518 856 l 385 856 l 135 1111 l 326 1111 z "},"á":{"ha":836,"x_min":64,"x_max":751,"o":"m 475 357 q 319 328 363 357 q 275 231 275 300 q 306 149 275 179 q 389 118 336 118 q 511 177 467 118 q 554 343 554 237 l 554 357 l 475 357 m 751 433 l 751 0 l 554 0 l 554 85 q 462 7 518 35 q 338 -20 406 -20 q 136 49 208 -20 q 64 240 64 117 q 150 436 64 373 q 416 500 236 500 l 554 500 l 554 533 q 519 606 554 581 q 416 631 484 631 q 278 613 345 631 q 139 555 212 595 l 139 725 q 273 765 205 752 q 416 778 340 778 q 676 703 602 778 q 751 433 751 627 m 510 1111 l 701 1111 l 452 856 l 318 856 l 510 1111 z "},"â":{"ha":836,"x_min":64,"x_max":751,"o":"m 475 357 q 319 328 363 357 q 275 231 275 300 q 306 149 275 179 q 389 118 336 118 q 511 177 467 118 q 554 343 554 237 l 554 357 l 475 357 m 751 433 l 751 0 l 554 0 l 554 85 q 462 7 518 35 q 338 -20 406 -20 q 136 49 208 -20 q 64 240 64 117 q 150 436 64 373 q 416 500 236 500 l 554 500 l 554 533 q 519 606 554 581 q 416 631 484 631 q 278 613 345 631 q 139 555 212 595 l 139 725 q 273 765 205 752 q 416 778 340 778 q 676 703 602 778 q 751 433 751 627 m 336 1111 l 500 1111 l 673 856 l 553 856 l 418 1008 l 283 856 l 163 856 l 336 1111 z "},"ã":{"ha":836,"x_min":64,"x_max":751,"o":"m 475 357 q 319 328 363 357 q 275 231 275 300 q 306 149 275 179 q 389 118 336 118 q 511 177 467 118 q 554 343 554 237 l 554 357 l 475 357 m 751 433 l 751 0 l 554 0 l 554 85 q 462 7 518 35 q 338 -20 406 -20 q 136 49 208 -20 q 64 240 64 117 q 150 436 64 373 q 416 500 236 500 l 554 500 l 554 533 q 519 606 554 581 q 416 631 484 631 q 278 613 345 631 q 139 555 212 595 l 139 725 q 273 765 205 752 q 416 778 340 778 q 676 703 602 778 q 751 433 751 627 m 419 925 l 382 950 q 374 956 380 951 q 326 975 345 975 q 289 954 302 975 q 277 893 277 933 l 277 888 l 182 888 q 217 1030 182 980 q 315 1080 252 1080 q 364 1071 340 1080 q 416 1042 389 1062 l 458 1013 q 485 997 473 1002 q 509 991 498 991 q 546 1013 533 991 q 559 1074 559 1034 l 559 1079 l 654 1079 q 620 937 654 987 q 521 886 585 886 q 474 895 496 886 q 419 925 452 903 z "},"ä":{"ha":836,"x_min":64,"x_max":751,"o":"m 475 357 q 319 328 363 357 q 275 231 275 300 q 306 149 275 179 q 389 118 336 118 q 511 177 467 118 q 554 343 554 237 l 554 357 l 475 357 m 751 433 l 751 0 l 554 0 l 554 85 q 462 7 518 35 q 338 -20 406 -20 q 136 49 208 -20 q 64 240 64 117 q 150 436 64 373 q 416 500 236 500 l 554 500 l 554 533 q 519 606 554 581 q 416 631 484 631 q 278 613 345 631 q 139 555 212 595 l 139 725 q 273 765 205 752 q 416 778 340 778 q 676 703 602 778 q 751 433 751 627 m 472 1075 l 632 1075 l 632 908 l 472 908 l 472 1075 m 204 1075 l 364 1075 l 364 908 l 204 908 l 204 1075 z "},"å":{"ha":836,"x_min":64,"x_max":751,"o":"m 475 357 q 319 328 363 357 q 275 231 275 300 q 306 149 275 179 q 389 118 336 118 q 511 177 467 118 q 554 343 554 237 l 554 357 l 475 357 m 751 433 l 751 0 l 554 0 l 554 85 q 462 7 518 35 q 338 -20 406 -20 q 136 49 208 -20 q 64 240 64 117 q 150 436 64 373 q 416 500 236 500 l 554 500 l 554 533 q 519 606 554 581 q 416 631 484 631 q 278 613 345 631 q 139 555 212 595 l 139 725 q 273 765 205 752 q 416 778 340 778 q 676 703 602 778 q 751 433 751 627 m 225 1040 q 281 1177 225 1120 q 418 1234 338 1234 q 555 1177 498 1234 q 611 1040 611 1120 q 555 904 611 960 q 418 847 498 847 q 281 904 338 847 q 225 1040 225 960 m 329 1040 q 355 977 329 1003 q 418 951 381 951 q 481 978 455 951 q 507 1040 507 1004 q 481 1103 507 1077 q 418 1129 454 1129 q 355 1103 381 1129 q 329 1040 329 1077 z "},"æ":{"ha":836,"x_min":9,"x_max":806,"o":"m 332 272 l 332 328 l 282 328 q 193 301 223 328 q 163 224 163 275 q 184 150 163 176 q 248 125 206 125 q 311 154 290 125 q 332 243 332 183 l 332 272 m 653 468 l 653 484 q 636 600 653 568 q 576 632 619 632 q 517 600 534 632 q 500 484 500 568 l 500 468 l 653 468 m 806 325 l 500 325 q 534 176 500 227 q 632 125 568 125 q 713 145 673 125 q 794 204 754 165 l 794 39 q 718 -5 760 9 q 619 -20 675 -20 q 498 9 549 -20 q 419 92 448 37 q 347 7 391 35 q 236 -20 302 -20 q 68 43 127 -20 q 9 221 9 106 q 78 409 9 347 q 285 471 146 471 l 336 471 l 336 505 q 310 600 336 568 q 232 632 283 632 q 148 613 193 632 q 52 558 102 595 l 52 725 q 149 765 102 751 q 240 778 197 778 q 349 757 307 778 q 415 692 391 736 q 479 755 435 733 q 586 778 524 778 q 756 697 706 778 q 806 411 806 616 l 806 325 z "},"ç":{"ha":836,"x_min":114,"x_max":720,"o":"m 528 0 q 586 -78 567 -42 q 604 -146 604 -114 q 563 -241 604 -210 q 435 -272 521 -272 q 368 -268 402 -272 q 298 -254 334 -263 l 298 -149 q 357 -166 328 -160 q 410 -172 385 -172 q 471 -157 449 -172 q 493 -114 493 -141 q 479 -68 493 -96 q 433 0 465 -41 l 528 0 m 720 39 q 612 -5 669 9 q 488 -20 554 -20 q 213 86 312 -20 q 114 379 114 192 q 214 673 114 567 q 489 779 313 779 q 607 765 550 779 q 720 721 663 751 l 720 539 q 624 596 676 576 q 517 616 572 616 q 368 555 420 616 q 315 379 315 493 q 368 204 315 265 q 517 143 420 143 q 625 162 574 143 q 720 221 675 182 l 720 39 z "},"è":{"ha":836,"x_min":62,"x_max":779,"o":"m 747 37 q 606 -5 678 9 q 454 -20 534 -20 q 163 82 264 -20 q 62 376 62 184 q 159 670 62 562 q 424 778 256 778 q 686 678 593 778 q 779 396 779 578 l 779 315 l 264 315 q 317 182 265 226 q 473 138 370 138 q 608 157 542 138 q 747 220 675 177 l 747 37 m 579 465 q 539 584 578 543 q 424 624 500 624 q 315 582 355 624 q 267 464 274 541 l 579 465 m 353 1111 l 545 856 l 411 856 l 161 1111 l 353 1111 z "},"é":{"ha":836,"x_min":62,"x_max":779,"o":"m 747 37 q 606 -5 678 9 q 454 -20 534 -20 q 163 82 264 -20 q 62 376 62 184 q 159 670 62 562 q 424 778 256 778 q 686 678 593 778 q 779 396 779 578 l 779 315 l 264 315 q 317 182 265 226 q 473 138 370 138 q 608 157 542 138 q 747 220 675 177 l 747 37 m 579 465 q 539 584 578 543 q 424 624 500 624 q 315 582 355 624 q 267 464 274 541 l 579 465 m 536 1111 l 728 1111 l 478 856 l 345 856 l 536 1111 z "},"ê":{"ha":836,"x_min":62,"x_max":779,"o":"m 747 37 q 606 -5 678 9 q 454 -20 534 -20 q 163 82 264 -20 q 62 376 62 184 q 159 670 62 562 q 424 778 256 778 q 686 678 593 778 q 779 396 779 578 l 779 315 l 264 315 q 317 182 265 226 q 473 138 370 138 q 608 157 542 138 q 747 220 675 177 l 747 37 m 579 465 q 539 584 578 543 q 424 624 500 624 q 315 582 355 624 q 267 464 274 541 l 579 465 m 363 1111 l 526 1111 l 700 856 l 579 856 l 444 1008 l 310 856 l 189 856 l 363 1111 z "},"ë":{"ha":836,"x_min":62,"x_max":779,"o":"m 747 37 q 606 -5 678 9 q 454 -20 534 -20 q 163 82 264 -20 q 62 376 62 184 q 159 670 62 562 q 424 778 256 778 q 686 678 593 778 q 779 396 779 578 l 779 315 l 264 315 q 317 182 265 226 q 473 138 370 138 q 608 157 542 138 q 747 220 675 177 l 747 37 m 579 465 q 539 584 578 543 q 424 624 500 624 q 315 582 355 624 q 267 464 274 541 l 579 465 m 498 1075 l 659 1075 l 659 908 l 498 908 l 498 1075 m 231 1075 l 391 1075 l 391 908 l 231 908 l 231 1075 z "},"ì":{"ha":836,"x_min":97,"x_max":790,"o":"m 150 760 l 543 760 l 543 153 l 790 153 l 790 0 l 97 0 l 97 153 l 345 153 l 345 607 l 150 607 l 150 760 m 326 1111 l 518 856 l 385 856 l 135 1111 l 326 1111 z "},"í":{"ha":836,"x_min":97,"x_max":790,"o":"m 150 760 l 543 760 l 543 153 l 790 153 l 790 0 l 97 0 l 97 153 l 345 153 l 345 607 l 150 607 l 150 760 m 510 1111 l 701 1111 l 452 856 l 318 856 l 510 1111 z "},"î":{"ha":836,"x_min":97,"x_max":790,"o":"m 150 760 l 543 760 l 543 153 l 790 153 l 790 0 l 97 0 l 97 153 l 345 153 l 345 607 l 150 607 l 150 760 m 336 1111 l 500 1111 l 673 856 l 553 856 l 418 1008 l 283 856 l 163 856 l 336 1111 z "},"ï":{"ha":836,"x_min":97,"x_max":790,"o":"m 150 760 l 543 760 l 543 153 l 790 153 l 790 0 l 97 0 l 97 153 l 345 153 l 345 607 l 150 607 l 150 760 m 472 1075 l 632 1075 l 632 908 l 472 908 l 472 1075 m 204 1075 l 364 1075 l 364 908 l 204 908 l 204 1075 z "},"ð":{"ha":836,"x_min":66,"x_max":764,"o":"m 550 515 q 484 543 517 534 q 418 553 450 553 q 305 504 347 553 q 264 370 264 454 q 304 202 264 262 q 415 142 345 142 q 528 203 489 142 q 567 382 567 264 q 563 446 567 412 q 550 515 558 479 m 637 746 q 734 567 705 653 q 764 379 764 481 q 671 86 764 192 q 415 -20 579 -20 q 161 84 255 -20 q 66 364 66 188 q 155 619 66 524 q 390 714 243 714 q 438 710 417 714 q 478 697 460 706 l 370 846 l 158 765 l 121 844 l 313 918 l 205 1055 l 404 1055 l 467 977 l 668 1063 l 713 979 l 525 900 l 637 746 z "},"ñ":{"ha":836,"x_min":117,"x_max":726,"o":"m 726 493 l 726 0 l 529 0 l 529 463 q 506 581 529 545 q 429 616 482 616 q 345 568 376 616 q 314 435 314 520 l 314 0 l 117 0 l 117 760 l 314 760 l 314 646 q 386 743 335 709 q 509 778 437 778 q 671 706 616 778 q 726 493 726 635 m 419 925 l 382 950 q 374 956 380 951 q 326 975 345 975 q 289 954 302 975 q 277 893 277 933 l 277 888 l 182 888 q 217 1030 182 980 q 315 1080 252 1080 q 364 1071 340 1080 q 416 1042 389 1062 l 458 1013 q 485 997 473 1002 q 509 991 498 991 q 546 1013 533 991 q 559 1074 559 1034 l 559 1079 l 654 1079 q 620 937 654 987 q 521 886 585 886 q 474 895 496 886 q 419 925 452 903 z "},"ò":{"ha":836,"x_min":66,"x_max":770,"o":"m 324 1112 l 516 857 l 382 857 l 133 1112 l 324 1112 m 418 616 q 306 554 347 616 q 265 379 265 491 q 306 204 265 267 q 418 142 347 142 q 530 204 490 142 q 571 379 571 267 q 530 554 571 491 q 418 616 490 616 m 66 379 q 162 670 66 563 q 418 778 257 778 q 674 670 579 778 q 770 379 770 563 q 674 88 770 195 q 418 -20 579 -20 q 162 88 257 -20 q 66 379 66 195 z "},"ó":{"ha":836,"x_min":66,"x_max":770,"o":"m 511 1112 l 703 1112 l 453 857 l 319 857 l 511 1112 m 418 616 q 306 554 347 616 q 265 379 265 491 q 306 204 265 267 q 418 142 347 142 q 530 204 490 142 q 571 379 571 267 q 530 554 571 491 q 418 616 490 616 m 66 379 q 162 670 66 563 q 418 778 257 778 q 674 670 579 778 q 770 379 770 563 q 674 88 770 195 q 418 -20 579 -20 q 162 88 257 -20 q 66 379 66 195 z "},"ô":{"ha":836,"x_min":66,"x_max":770,"o":"m 336 1112 l 500 1112 l 673 857 l 553 857 l 418 1009 l 283 857 l 163 857 l 336 1112 m 418 616 q 306 554 347 616 q 265 379 265 491 q 306 204 265 267 q 418 142 347 142 q 530 204 490 142 q 571 379 571 267 q 530 554 571 491 q 418 616 490 616 m 66 379 q 162 670 66 563 q 418 778 257 778 q 674 670 579 778 q 770 379 770 563 q 674 88 770 195 q 418 -20 579 -20 q 162 88 257 -20 q 66 379 66 195 z "},"õ":{"ha":836,"x_min":66,"x_max":770,"o":"m 419 903 l 382 928 q 374 934 380 930 q 326 954 345 954 q 289 932 302 954 q 277 871 277 911 l 277 866 l 182 866 q 217 1008 182 958 q 315 1059 252 1059 q 364 1049 340 1059 q 416 1020 389 1040 l 458 991 q 485 975 473 981 q 509 970 498 970 q 546 991 533 970 q 559 1052 559 1013 l 559 1057 l 654 1057 q 620 915 654 965 q 521 865 585 865 q 474 873 496 865 q 419 903 452 881 m 418 616 q 306 554 347 616 q 265 379 265 491 q 306 204 265 267 q 418 142 347 142 q 530 204 490 142 q 571 379 571 267 q 530 554 571 491 q 418 616 490 616 m 66 379 q 162 670 66 563 q 418 778 257 778 q 674 670 579 778 q 770 379 770 563 q 674 88 770 195 q 418 -20 579 -20 q 162 88 257 -20 q 66 379 66 195 z "},"ö":{"ha":836,"x_min":66,"x_max":770,"o":"m 472 1059 l 632 1059 l 632 892 l 472 892 l 472 1059 m 204 1059 l 364 1059 l 364 892 l 204 892 l 204 1059 m 418 616 q 306 554 347 616 q 265 379 265 491 q 306 204 265 267 q 418 142 347 142 q 530 204 490 142 q 571 379 571 267 q 530 554 571 491 q 418 616 490 616 m 66 379 q 162 670 66 563 q 418 778 257 778 q 674 670 579 778 q 770 379 770 563 q 674 88 770 195 q 418 -20 579 -20 q 162 88 257 -20 q 66 379 66 195 z "},"÷":{"ha":836,"x_min":45,"x_max":790,"o":"m 313 812 l 522 812 l 522 603 l 313 603 l 313 812 m 313 268 l 522 268 l 522 58 l 313 58 l 313 268 m 45 517 l 790 517 l 790 355 l 45 355 l 45 517 z "},"ø":{"ha":836,"x_min":17,"x_max":815,"o":"m 564 458 l 328 178 q 371 151 349 159 q 419 142 393 142 q 530 205 490 142 q 571 379 571 269 q 569 418 571 399 q 564 458 568 438 m 271 304 l 505 583 q 467 608 488 600 q 419 616 446 616 q 306 554 347 616 q 265 379 265 491 q 267 338 265 356 q 271 304 268 321 m 127 135 q 82 245 97 184 q 66 379 66 305 q 162 670 66 563 q 418 778 257 778 q 525 763 475 778 q 621 718 575 749 l 721 838 l 815 755 l 707 628 q 754 514 738 576 q 770 379 770 452 q 674 88 770 195 q 418 -20 579 -20 q 310 -4 361 -20 q 214 41 259 11 l 111 -79 l 17 1 l 127 135 z "},"ù":{"ha":836,"x_min":109,"x_max":720,"o":"m 109 265 l 109 760 l 307 760 l 307 296 q 330 178 307 214 q 407 143 353 143 q 491 191 460 143 q 521 323 521 238 l 521 760 l 720 760 l 720 0 l 521 0 l 521 113 q 449 15 500 50 q 328 -20 399 -20 q 164 52 219 -20 q 109 265 109 124 m 326 1111 l 518 856 l 385 856 l 135 1111 l 326 1111 z "},"ú":{"ha":836,"x_min":109,"x_max":720,"o":"m 109 265 l 109 760 l 307 760 l 307 296 q 330 178 307 214 q 407 143 353 143 q 491 191 460 143 q 521 323 521 238 l 521 760 l 720 760 l 720 0 l 521 0 l 521 113 q 449 15 500 50 q 328 -20 399 -20 q 164 52 219 -20 q 109 265 109 124 m 510 1111 l 701 1111 l 452 856 l 318 856 l 510 1111 z "},"û":{"ha":836,"x_min":109,"x_max":720,"o":"m 109 265 l 109 760 l 307 760 l 307 296 q 330 178 307 214 q 407 143 353 143 q 491 191 460 143 q 521 323 521 238 l 521 760 l 720 760 l 720 0 l 521 0 l 521 113 q 449 15 500 50 q 328 -20 399 -20 q 164 52 219 -20 q 109 265 109 124 m 332 1111 l 496 1111 l 669 856 l 549 856 l 414 1008 l 279 856 l 159 856 l 332 1111 z "},"ü":{"ha":836,"x_min":109,"x_max":720,"o":"m 109 265 l 109 760 l 307 760 l 307 296 q 330 178 307 214 q 407 143 353 143 q 491 191 460 143 q 521 323 521 238 l 521 760 l 720 760 l 720 0 l 521 0 l 521 113 q 449 15 500 50 q 328 -20 399 -20 q 164 52 219 -20 q 109 265 109 124 m 468 1075 l 628 1075 l 628 908 l 468 908 l 468 1075 m 200 1075 l 360 1075 l 360 908 l 200 908 l 200 1075 z "},"ý":{"ha":836,"x_min":40,"x_max":798,"o":"m 482 -82 q 386 -238 442 -189 q 250 -288 330 -288 l 86 -288 l 86 -136 l 167 -136 q 256 -116 228 -136 q 314 -20 285 -95 l 329 21 l 40 760 l 249 760 l 422 267 l 589 760 l 798 760 l 482 -82 m 510 1111 l 701 1111 l 452 856 l 318 856 l 510 1111 z "},"þ":{"ha":836,"x_min":102,"x_max":775,"o":"m 300 107 l 300 -289 l 102 -289 l 102 1055 l 300 1055 l 300 646 q 382 745 331 711 q 501 778 433 778 q 703 673 631 778 q 775 379 775 569 q 702 83 775 186 q 494 -20 629 -20 q 385 12 433 -20 q 300 107 336 43 m 576 380 q 540 553 576 490 q 439 615 503 615 q 337 553 374 615 q 300 380 300 490 q 337 208 300 271 q 439 146 374 146 q 540 208 503 146 q 576 380 576 271 z "},"ÿ":{"ha":836,"x_min":40,"x_max":798,"o":"m 482 -82 q 386 -238 442 -189 q 250 -288 330 -288 l 86 -288 l 86 -136 l 167 -136 q 256 -116 228 -136 q 314 -20 285 -95 l 329 21 l 40 760 l 249 760 l 422 267 l 589 760 l 798 760 l 482 -82 m 473 1075 l 633 1075 l 633 908 l 473 908 l 473 1075 m 205 1075 l 365 1075 l 365 908 l 205 908 l 205 1075 z "},"Ā":{"ha":836,"x_min":22,"x_max":814,"o":"m 204 1268 l 632 1268 l 632 1141 l 204 1141 l 204 1268 m 418 829 l 323 415 l 513 415 l 418 829 m 296 1013 l 541 1013 l 814 0 l 614 0 l 551 250 l 283 250 l 222 0 l 22 0 l 296 1013 z "},"ā":{"ha":836,"x_min":64,"x_max":751,"o":"m 204 1055 l 632 1055 l 632 928 l 204 928 l 204 1055 m 475 357 q 319 328 363 357 q 275 231 275 300 q 306 149 275 179 q 389 118 336 118 q 511 177 467 118 q 554 343 554 237 l 554 357 l 475 357 m 751 433 l 751 0 l 554 0 l 554 85 q 462 7 518 35 q 338 -20 406 -20 q 136 49 208 -20 q 64 240 64 117 q 150 436 64 373 q 416 500 236 500 l 554 500 l 554 533 q 519 606 554 581 q 416 631 484 631 q 278 613 345 631 q 139 555 212 595 l 139 725 q 273 765 205 752 q 416 778 340 778 q 676 703 602 778 q 751 433 751 627 z "},"Ă":{"ha":836,"x_min":22,"x_max":814,"o":"m 418 829 l 323 415 l 513 415 l 418 829 m 296 1013 l 541 1013 l 814 0 l 614 0 l 551 250 l 283 250 l 222 0 l 22 0 l 296 1013 m 191 1288 l 286 1288 q 333 1226 300 1247 q 418 1206 366 1206 q 503 1226 470 1206 q 549 1288 535 1246 l 646 1288 q 577 1155 635 1200 q 418 1109 518 1109 q 259 1155 318 1109 q 191 1288 201 1200 z "},"ă":{"ha":836,"x_min":64,"x_max":751,"o":"m 475 357 q 319 328 363 357 q 275 231 275 300 q 306 149 275 179 q 389 118 336 118 q 511 177 467 118 q 554 343 554 237 l 554 357 l 475 357 m 751 433 l 751 0 l 554 0 l 554 85 q 462 7 518 35 q 338 -20 406 -20 q 136 49 208 -20 q 64 240 64 117 q 150 436 64 373 q 416 500 236 500 l 554 500 l 554 533 q 519 606 554 581 q 416 631 484 631 q 278 613 345 631 q 139 555 212 595 l 139 725 q 273 765 205 752 q 416 778 340 778 q 676 703 602 778 q 751 433 751 627 m 191 1089 l 286 1089 q 328 1017 294 1042 q 418 991 361 991 q 508 1017 474 991 q 549 1089 541 1042 l 646 1089 q 583 940 642 991 q 418 888 524 888 q 253 940 312 888 q 191 1089 195 991 z "},"Ą":{"ha":836,"x_min":22,"x_max":833,"o":"m 618 0 l 714 0 q 667 -72 679 -48 q 654 -113 654 -96 q 675 -156 654 -139 q 729 -172 696 -172 q 781 -167 755 -172 q 833 -151 806 -162 l 833 -257 q 765 -268 797 -264 q 705 -272 732 -272 q 585 -241 627 -272 q 543 -151 543 -210 q 562 -78 543 -115 q 618 0 581 -41 m 418 829 l 323 415 l 513 415 l 418 829 m 296 1013 l 541 1013 l 814 0 l 614 0 l 551 250 l 283 250 l 222 0 l 22 0 l 296 1013 z "},"ą":{"ha":836,"x_min":64,"x_max":768,"o":"m 553 0 l 648 0 q 601 -72 613 -48 q 589 -113 589 -96 q 609 -156 589 -139 q 663 -172 630 -172 q 715 -167 689 -172 q 768 -151 741 -162 l 768 -257 q 699 -268 731 -264 q 639 -272 667 -272 q 519 -241 562 -272 q 477 -151 477 -210 q 496 -78 477 -115 q 553 0 515 -41 m 475 357 q 319 328 363 357 q 275 231 275 300 q 306 149 275 179 q 389 118 336 118 q 511 177 467 118 q 554 343 554 237 l 554 357 l 475 357 m 751 433 l 751 0 l 554 0 l 554 85 q 462 7 518 35 q 338 -20 406 -20 q 136 49 208 -20 q 64 240 64 117 q 150 436 64 373 q 416 500 236 500 l 554 500 l 554 533 q 519 606 554 581 q 416 631 484 631 q 278 613 345 631 q 139 555 212 595 l 139 725 q 273 765 205 752 q 416 778 340 778 q 676 703 602 778 q 751 433 751 627 z "},"Ć":{"ha":836,"x_min":103,"x_max":739,"o":"m 733 29 q 633 -7 686 5 q 524 -20 581 -20 q 211 115 319 -20 q 103 505 103 250 q 211 896 103 761 q 524 1031 319 1031 q 634 1019 581 1031 q 733 982 687 1006 l 733 760 q 633 829 682 807 q 533 851 585 851 q 367 764 423 851 q 311 505 311 677 q 367 247 311 334 q 533 160 423 160 q 633 182 585 160 q 733 252 682 204 l 733 29 m 546 1288 l 739 1288 l 545 1109 l 411 1109 l 546 1288 z "},"ć":{"ha":836,"x_min":114,"x_max":770,"o":"m 720 39 q 612 -5 669 9 q 488 -20 554 -20 q 213 86 312 -20 q 114 379 114 192 q 214 673 114 567 q 489 779 313 779 q 607 765 550 779 q 720 721 663 751 l 720 539 q 624 596 676 576 q 517 616 572 616 q 368 555 420 616 q 315 379 315 493 q 368 204 315 265 q 517 143 420 143 q 625 162 574 143 q 720 221 675 182 l 720 39 m 579 1111 l 770 1111 l 521 856 l 387 856 l 579 1111 z "},"Ĉ":{"ha":836,"x_min":103,"x_max":779,"o":"m 418 1288 l 628 1288 l 779 1109 l 659 1109 l 524 1218 l 389 1109 l 269 1109 l 418 1288 m 733 29 q 633 -7 686 5 q 524 -20 581 -20 q 211 115 319 -20 q 103 505 103 250 q 211 896 103 761 q 524 1031 319 1031 q 634 1019 581 1031 q 733 982 687 1006 l 733 760 q 633 829 682 807 q 533 851 585 851 q 367 764 423 851 q 311 505 311 677 q 367 247 311 334 q 533 160 423 160 q 633 182 585 160 q 733 252 682 204 l 733 29 z "},"ĉ":{"ha":836,"x_min":114,"x_max":745,"o":"m 408 1111 l 571 1111 l 745 856 l 624 856 l 489 1008 l 355 856 l 234 856 l 408 1111 m 720 39 q 612 -5 669 9 q 488 -20 554 -20 q 213 86 312 -20 q 114 379 114 192 q 214 673 114 567 q 489 779 313 779 q 607 765 550 779 q 720 721 663 751 l 720 539 q 624 596 676 576 q 517 616 572 616 q 368 555 420 616 q 315 379 315 493 q 368 204 315 265 q 517 143 420 143 q 625 162 574 143 q 720 221 675 182 l 720 39 z "},"Ċ":{"ha":836,"x_min":103,"x_max":733,"o":"m 733 29 q 633 -7 686 5 q 524 -20 581 -20 q 211 115 319 -20 q 103 505 103 250 q 211 896 103 761 q 524 1031 319 1031 q 634 1019 581 1031 q 733 982 687 1006 l 733 760 q 633 829 682 807 q 533 851 585 851 q 367 764 423 851 q 311 505 311 677 q 367 247 311 334 q 533 160 423 160 q 633 182 585 160 q 733 252 682 204 l 733 29 m 393 1288 l 579 1288 l 579 1121 l 393 1121 l 393 1288 z "},"ċ":{"ha":836,"x_min":114,"x_max":720,"o":"m 720 39 q 612 -5 669 9 q 488 -20 554 -20 q 213 86 312 -20 q 114 379 114 192 q 214 673 114 567 q 489 779 313 779 q 607 765 550 779 q 720 721 663 751 l 720 539 q 624 596 676 576 q 517 616 572 616 q 368 555 420 616 q 315 379 315 493 q 368 204 315 265 q 517 143 420 143 q 625 162 574 143 q 720 221 675 182 l 720 39 m 376 1075 l 562 1075 l 562 908 l 376 908 l 376 1075 z "},"Č":{"ha":836,"x_min":103,"x_max":766,"o":"m 733 29 q 633 -7 686 5 q 524 -20 581 -20 q 211 115 319 -20 q 103 505 103 250 q 211 896 103 761 q 524 1031 319 1031 q 634 1019 581 1031 q 733 982 687 1006 l 733 760 q 633 829 682 807 q 533 851 585 851 q 367 764 423 851 q 311 505 311 677 q 367 247 311 334 q 533 160 423 160 q 633 182 585 160 q 733 252 682 204 l 733 29 m 406 1109 l 256 1288 l 376 1288 l 511 1178 l 646 1288 l 766 1288 l 615 1109 l 406 1109 z "},"č":{"ha":836,"x_min":114,"x_max":743,"o":"m 720 39 q 612 -5 669 9 q 488 -20 554 -20 q 213 86 312 -20 q 114 379 114 192 q 214 673 114 567 q 489 779 313 779 q 607 765 550 779 q 720 721 663 751 l 720 539 q 624 596 676 576 q 517 616 572 616 q 368 555 420 616 q 315 379 315 493 q 368 204 315 265 q 517 143 420 143 q 625 162 574 143 q 720 221 675 182 l 720 39 m 406 856 l 232 1111 l 353 1111 l 487 957 l 622 1111 l 743 1111 l 569 856 l 406 856 z "},"Ď":{"ha":836,"x_min":93,"x_max":774,"o":"m 293 832 l 293 180 l 347 180 q 515 255 465 180 q 566 507 566 329 q 515 758 566 684 q 347 832 465 832 l 293 832 m 93 1013 l 307 1013 q 665 894 555 1013 q 774 507 774 776 q 665 119 774 238 q 307 0 555 0 l 93 0 l 93 1013 m 304 1121 l 155 1300 l 275 1300 l 410 1190 l 545 1300 l 665 1300 l 514 1121 l 304 1121 z "},"ď":{"ha":836,"x_min":61,"x_max":998,"o":"m 802 1055 l 998 1055 l 886 795 l 749 795 l 802 1055 m 536 652 l 536 1055 l 734 1055 l 734 0 l 536 0 l 536 113 q 454 14 505 47 q 335 -20 404 -20 q 133 85 205 -20 q 61 379 61 189 q 134 675 61 572 q 342 778 207 778 q 451 746 403 778 q 536 652 500 715 m 260 378 q 296 205 260 268 q 397 143 333 143 q 499 205 462 143 q 536 378 536 268 q 499 550 536 488 q 397 612 462 612 q 296 550 333 612 q 260 378 260 488 z "},"Đ":{"ha":836,"x_min":0,"x_max":774,"o":"m 293 832 l 293 611 l 436 611 l 436 450 l 293 450 l 293 180 l 347 180 q 515 255 465 180 q 566 507 566 329 q 515 758 566 684 q 347 832 465 832 l 293 832 m 93 1013 l 307 1013 q 665 894 555 1013 q 774 507 774 776 q 665 119 774 238 q 307 0 555 0 l 93 0 l 93 450 l 0 450 l 0 611 l 93 611 l 93 1013 z "},"đ":{"ha":836,"x_min":61,"x_max":833,"o":"m 536 652 l 536 848 l 329 848 l 329 977 l 536 977 l 536 1055 l 734 1055 l 734 977 l 833 977 l 833 848 l 734 848 l 734 0 l 536 0 l 536 113 q 454 14 505 47 q 335 -20 404 -20 q 133 85 205 -20 q 61 379 61 189 q 134 675 61 572 q 342 778 207 778 q 451 746 403 778 q 536 652 500 715 m 260 378 q 296 205 260 268 q 397 143 333 143 q 499 205 462 143 q 536 378 536 268 q 499 550 536 488 q 397 612 462 612 q 296 550 333 612 q 260 378 260 488 z "},"Ē":{"ha":836,"x_min":114,"x_max":745,"o":"m 225 1268 l 653 1268 l 653 1141 l 225 1141 l 225 1268 m 745 0 l 114 0 l 114 1013 l 745 1013 l 745 836 l 314 836 l 314 618 l 704 618 l 704 441 l 314 441 l 314 176 l 745 176 l 745 0 z "},"ē":{"ha":836,"x_min":62,"x_max":779,"o":"m 231 1055 l 659 1055 l 659 928 l 231 928 l 231 1055 m 747 37 q 606 -5 678 9 q 454 -20 534 -20 q 163 82 264 -20 q 62 376 62 184 q 159 670 62 562 q 424 778 256 778 q 686 678 593 778 q 779 396 779 578 l 779 315 l 264 315 q 317 182 265 226 q 473 138 370 138 q 608 157 542 138 q 747 220 675 177 l 747 37 m 579 465 q 539 584 578 543 q 424 624 500 624 q 315 582 355 624 q 267 464 274 541 l 579 465 z "},"Ĕ":{"ha":836,"x_min":114,"x_max":745,"o":"m 745 0 l 114 0 l 114 1013 l 745 1013 l 745 836 l 314 836 l 314 618 l 704 618 l 704 441 l 314 441 l 314 176 l 745 176 l 745 0 m 212 1288 l 307 1288 q 354 1226 321 1247 q 439 1206 387 1206 q 524 1226 491 1206 q 570 1288 556 1246 l 667 1288 q 598 1155 656 1200 q 439 1109 539 1109 q 280 1155 339 1109 q 212 1288 222 1200 z "},"ĕ":{"ha":836,"x_min":62,"x_max":779,"o":"m 747 37 q 606 -5 678 9 q 454 -20 534 -20 q 163 82 264 -20 q 62 376 62 184 q 159 670 62 562 q 424 778 256 778 q 686 678 593 778 q 779 396 779 578 l 779 315 l 264 315 q 317 182 265 226 q 473 138 370 138 q 608 157 542 138 q 747 220 675 177 l 747 37 m 579 465 q 539 584 578 543 q 424 624 500 624 q 315 582 355 624 q 267 464 274 541 l 579 465 m 217 1089 l 313 1089 q 354 1017 320 1042 q 444 991 388 991 q 534 1017 500 991 q 575 1089 568 1042 l 672 1089 q 609 940 668 991 q 444 888 551 888 q 280 940 338 888 q 217 1089 221 991 z "},"Ė":{"ha":836,"x_min":114,"x_max":745,"o":"m 745 0 l 114 0 l 114 1013 l 745 1013 l 745 836 l 314 836 l 314 618 l 704 618 l 704 441 l 314 441 l 314 176 l 745 176 l 745 0 m 346 1288 l 532 1288 l 532 1121 l 346 1121 l 346 1288 z "},"ė":{"ha":836,"x_min":62,"x_max":779,"o":"m 747 37 q 606 -5 678 9 q 454 -20 534 -20 q 163 82 264 -20 q 62 376 62 184 q 159 670 62 562 q 424 778 256 778 q 686 678 593 778 q 779 396 779 578 l 779 315 l 264 315 q 317 182 265 226 q 473 138 370 138 q 608 157 542 138 q 747 220 675 177 l 747 37 m 579 465 q 539 584 578 543 q 424 624 500 624 q 315 582 355 624 q 267 464 274 541 l 579 465 m 351 1075 l 538 1075 l 538 908 l 351 908 l 351 1075 z "},"Ę":{"ha":836,"x_min":114,"x_max":745,"o":"m 530 0 l 626 0 q 578 -72 591 -48 q 566 -113 566 -96 q 587 -156 566 -139 q 641 -172 608 -172 q 692 -167 667 -172 q 745 -151 718 -162 l 745 -257 q 676 -268 709 -264 q 616 -272 644 -272 q 497 -241 539 -272 q 455 -151 455 -210 q 474 -78 455 -115 q 530 0 492 -41 m 745 0 l 114 0 l 114 1013 l 745 1013 l 745 836 l 314 836 l 314 618 l 704 618 l 704 441 l 314 441 l 314 176 l 745 176 l 745 0 z "},"ę":{"ha":836,"x_min":62,"x_max":779,"o":"m 534 0 l 630 0 q 583 -72 595 -48 q 570 -113 570 -96 q 591 -156 570 -139 q 645 -172 612 -172 q 696 -167 671 -172 q 749 -151 722 -162 l 749 -257 q 681 -268 713 -264 q 621 -272 648 -272 q 501 -241 543 -272 q 459 -151 459 -210 q 478 -78 459 -115 q 534 0 496 -41 m 747 37 q 606 -5 678 9 q 454 -20 534 -20 q 163 82 264 -20 q 62 376 62 184 q 159 670 62 562 q 424 778 256 778 q 686 678 593 778 q 779 396 779 578 l 779 315 l 264 315 q 317 182 265 226 q 473 138 370 138 q 608 157 542 138 q 747 220 675 177 l 747 37 m 579 465 q 539 584 578 543 q 424 624 500 624 q 315 582 355 624 q 267 464 274 541 l 579 465 z "},"Ě":{"ha":836,"x_min":114,"x_max":745,"o":"m 745 0 l 114 0 l 114 1013 l 745 1013 l 745 836 l 314 836 l 314 618 l 704 618 l 704 441 l 314 441 l 314 176 l 745 176 l 745 0 m 349 1109 l 199 1288 l 319 1288 l 454 1178 l 589 1288 l 709 1288 l 558 1109 l 349 1109 z "},"ě":{"ha":836,"x_min":62,"x_max":779,"o":"m 747 37 q 606 -5 678 9 q 454 -20 534 -20 q 163 82 264 -20 q 62 376 62 184 q 159 670 62 562 q 424 778 256 778 q 686 678 593 778 q 779 396 779 578 l 779 315 l 264 315 q 317 182 265 226 q 473 138 370 138 q 608 157 542 138 q 747 220 675 177 l 747 37 m 579 465 q 539 584 578 543 q 424 624 500 624 q 315 582 355 624 q 267 464 274 541 l 579 465 m 348 859 l 174 1114 l 295 1114 l 429 960 l 564 1114 l 685 1114 l 511 859 l 348 859 z "},"Ĝ":{"ha":836,"x_min":79,"x_max":766,"o":"m 395 1288 l 604 1288 l 755 1109 l 635 1109 l 500 1218 l 366 1109 l 245 1109 l 395 1288 m 591 183 l 591 376 l 454 376 l 454 545 l 766 545 l 766 81 q 639 6 709 31 q 490 -20 570 -20 q 186 117 294 -20 q 79 505 79 254 q 188 896 79 761 q 500 1031 296 1031 q 620 1014 561 1031 q 730 964 679 996 l 730 742 q 634 824 688 796 q 514 851 579 851 q 344 765 400 851 q 288 505 288 680 q 342 248 288 336 q 500 160 396 160 q 554 166 531 160 q 591 183 577 172 z "},"ĝ":{"ha":836,"x_min":66,"x_max":743,"o":"m 323 1111 l 487 1111 l 661 856 l 540 856 l 405 1008 l 271 856 l 150 856 l 323 1111 m 545 392 q 506 555 545 494 q 404 616 467 616 q 303 555 342 616 q 265 392 265 494 q 303 228 265 289 q 404 167 342 167 q 506 228 467 167 q 545 392 545 290 m 743 57 q 661 -207 743 -125 q 393 -288 578 -288 q 270 -278 331 -288 q 146 -250 209 -269 l 146 -68 q 260 -114 202 -99 q 380 -129 319 -129 q 505 -89 465 -129 q 545 35 545 -50 l 545 117 q 467 36 515 62 q 350 9 419 9 q 143 111 220 9 q 66 387 66 213 q 143 673 66 568 q 349 779 220 779 q 465 749 414 779 q 545 663 515 718 l 545 760 l 743 760 l 743 57 z "},"Ğ":{"ha":836,"x_min":79,"x_max":766,"o":"m 591 183 l 591 376 l 454 376 l 454 545 l 766 545 l 766 81 q 639 6 709 31 q 490 -20 570 -20 q 186 117 294 -20 q 79 505 79 254 q 188 896 79 761 q 500 1031 296 1031 q 620 1014 561 1031 q 730 964 679 996 l 730 742 q 634 824 688 796 q 514 851 579 851 q 344 765 400 851 q 288 505 288 680 q 342 248 288 336 q 500 160 396 160 q 554 166 531 160 q 591 183 577 172 m 224 1288 l 320 1288 q 367 1226 334 1247 q 452 1206 400 1206 q 536 1226 504 1206 q 583 1288 569 1246 l 680 1288 q 611 1155 669 1200 q 452 1109 552 1109 q 293 1155 352 1109 q 224 1288 235 1200 z "},"ğ":{"ha":836,"x_min":66,"x_max":743,"o":"m 545 392 q 506 555 545 494 q 404 616 467 616 q 303 555 342 616 q 265 392 265 494 q 303 228 265 289 q 404 167 342 167 q 506 228 467 167 q 545 392 545 290 m 743 57 q 661 -207 743 -125 q 393 -288 578 -288 q 270 -278 331 -288 q 146 -250 209 -269 l 146 -68 q 260 -114 202 -99 q 380 -129 319 -129 q 505 -89 465 -129 q 545 35 545 -50 l 545 117 q 467 36 515 62 q 350 9 419 9 q 143 111 220 9 q 66 387 66 213 q 143 673 66 568 q 349 779 220 779 q 465 749 414 779 q 545 663 515 718 l 545 760 l 743 760 l 743 57 m 191 1089 l 286 1089 q 328 1017 294 1042 q 418 991 361 991 q 508 1017 474 991 q 549 1089 541 1042 l 646 1089 q 583 940 642 991 q 418 888 524 888 q 253 940 312 888 q 191 1089 195 991 z "},"Ġ":{"ha":836,"x_min":79,"x_max":766,"o":"m 591 183 l 591 376 l 454 376 l 454 545 l 766 545 l 766 81 q 639 6 709 31 q 490 -20 570 -20 q 186 117 294 -20 q 79 505 79 254 q 188 896 79 761 q 500 1031 296 1031 q 620 1014 561 1031 q 730 964 679 996 l 730 742 q 634 824 688 796 q 514 851 579 851 q 344 765 400 851 q 288 505 288 680 q 342 248 288 336 q 500 160 396 160 q 554 166 531 160 q 591 183 577 172 m 359 1288 l 545 1288 l 545 1121 l 359 1121 l 359 1288 z "},"ġ":{"ha":836,"x_min":66,"x_max":743,"o":"m 545 392 q 506 555 545 494 q 404 616 467 616 q 303 555 342 616 q 265 392 265 494 q 303 228 265 289 q 404 167 342 167 q 506 228 467 167 q 545 392 545 290 m 743 57 q 661 -207 743 -125 q 393 -288 578 -288 q 270 -278 331 -288 q 146 -250 209 -269 l 146 -68 q 260 -114 202 -99 q 380 -129 319 -129 q 505 -89 465 -129 q 545 35 545 -50 l 545 117 q 467 36 515 62 q 350 9 419 9 q 143 111 220 9 q 66 387 66 213 q 143 673 66 568 q 349 779 220 779 q 465 749 414 779 q 545 663 515 718 l 545 760 l 743 760 l 743 57 m 325 1075 l 511 1075 l 511 908 l 325 908 l 325 1075 z "},"Ģ":{"ha":836,"x_min":79,"x_max":766,"o":"m 425 -127 l 616 -127 l 496 -334 l 365 -334 l 425 -127 m 591 183 l 591 376 l 454 376 l 454 545 l 766 545 l 766 81 q 639 6 709 31 q 490 -20 570 -20 q 186 117 294 -20 q 79 505 79 254 q 188 896 79 761 q 500 1031 296 1031 q 620 1014 561 1031 q 730 964 679 996 l 730 742 q 634 824 688 796 q 514 851 579 851 q 344 765 400 851 q 288 505 288 680 q 342 248 288 336 q 500 160 396 160 q 554 166 531 160 q 591 183 577 172 z "},"ģ":{"ha":836,"x_min":66,"x_max":743,"o":"m 500 854 l 309 854 l 429 1061 l 560 1061 l 500 854 m 545 392 q 506 555 545 494 q 404 616 467 616 q 303 555 342 616 q 265 392 265 494 q 303 228 265 289 q 404 167 342 167 q 506 228 467 167 q 545 392 545 290 m 743 57 q 661 -207 743 -125 q 393 -288 578 -288 q 270 -278 331 -288 q 146 -250 209 -269 l 146 -68 q 260 -114 202 -99 q 380 -129 319 -129 q 505 -89 465 -129 q 545 35 545 -50 l 545 117 q 467 36 515 62 q 350 9 419 9 q 143 111 220 9 q 66 387 66 213 q 143 673 66 568 q 349 779 220 779 q 465 749 414 779 q 545 663 515 718 l 545 760 l 743 760 l 743 57 z "},"Ĥ":{"ha":836,"x_min":93,"x_max":743,"o":"m 313 1288 l 522 1288 l 673 1109 l 553 1109 l 418 1218 l 283 1109 l 163 1109 l 313 1288 m 93 1013 l 293 1013 l 293 627 l 543 627 l 543 1013 l 743 1013 l 743 0 l 543 0 l 543 450 l 293 450 l 293 0 l 93 0 l 93 1013 z "},"ĥ":{"ha":836,"x_min":-40,"x_max":726,"o":"m 110 1288 l 319 1288 l 471 1109 l 350 1109 l 215 1218 l 81 1109 l -40 1109 l 110 1288 m 726 493 l 726 0 l 529 0 l 529 463 q 506 580 529 545 q 429 615 482 615 q 345 567 375 615 q 314 435 314 519 l 314 0 l 117 0 l 117 1055 l 314 1055 l 314 646 q 386 743 335 709 q 509 778 437 778 q 671 706 616 778 q 726 493 726 635 z "},"Ħ":{"ha":836,"x_min":2,"x_max":834,"o":"m 93 1013 l 293 1013 l 293 861 l 543 861 l 543 1013 l 743 1013 l 743 861 l 834 861 l 834 749 l 743 749 l 743 0 l 543 0 l 543 450 l 293 450 l 293 0 l 93 0 l 93 749 l 2 749 l 2 861 l 93 861 l 93 1013 m 293 749 l 293 627 l 543 627 l 543 749 l 293 749 z "},"ħ":{"ha":836,"x_min":8,"x_max":726,"o":"m 726 493 l 726 0 l 529 0 l 529 463 q 506 580 529 545 q 429 615 482 615 q 345 567 375 615 q 314 435 314 519 l 314 0 l 117 0 l 117 861 l 8 861 l 8 972 l 117 972 l 117 1055 l 314 1055 l 314 972 q 502 972 408 972 l 502 861 l 314 861 l 314 646 q 386 743 335 709 q 509 778 437 778 q 671 707 616 778 q 726 493 726 635 z "},"Ĩ":{"ha":836,"x_min":117,"x_max":720,"o":"m 419 1142 l 382 1165 q 374 1170 379 1167 q 325 1187 344 1187 q 290 1167 304 1187 q 277 1113 277 1147 l 277 1109 l 182 1109 l 182 1129 q 219 1245 182 1201 q 315 1289 256 1289 q 365 1281 340 1289 q 416 1256 391 1272 l 457 1230 q 485 1215 471 1220 q 509 1210 498 1210 q 546 1230 533 1210 q 559 1289 559 1251 l 654 1289 q 654 1279 654 1286 q 653 1268 653 1272 q 617 1153 653 1196 q 521 1109 581 1109 q 472 1116 496 1109 q 419 1142 448 1124 m 117 836 l 117 1013 l 720 1013 l 720 836 l 518 836 l 518 176 l 720 176 l 720 0 l 117 0 l 117 176 l 318 176 l 318 836 l 117 836 z "},"ĩ":{"ha":836,"x_min":97,"x_max":790,"o":"m 419 925 l 382 950 q 374 956 380 951 q 326 975 345 975 q 289 954 302 975 q 277 893 277 933 l 277 888 l 182 888 q 217 1030 182 980 q 315 1080 252 1080 q 364 1071 340 1080 q 416 1042 389 1062 l 458 1013 q 485 997 473 1002 q 509 991 498 991 q 546 1013 533 991 q 559 1074 559 1034 l 559 1079 l 654 1079 q 620 937 654 987 q 521 886 585 886 q 474 895 496 886 q 419 925 452 903 m 150 760 l 543 760 l 543 153 l 790 153 l 790 0 l 97 0 l 97 153 l 345 153 l 345 607 l 150 607 l 150 760 z "},"Ī":{"ha":836,"x_min":117,"x_max":720,"o":"m 204 1268 l 632 1268 l 632 1141 l 204 1141 l 204 1268 m 117 836 l 117 1013 l 720 1013 l 720 836 l 518 836 l 518 176 l 720 176 l 720 0 l 117 0 l 117 176 l 318 176 l 318 836 l 117 836 z "},"ī":{"ha":836,"x_min":97,"x_max":790,"o":"m 204 1055 l 632 1055 l 632 928 l 204 928 l 204 1055 m 150 760 l 543 760 l 543 153 l 790 153 l 790 0 l 97 0 l 97 153 l 345 153 l 345 607 l 150 607 l 150 760 z "},"Ĭ":{"ha":836,"x_min":117,"x_max":720,"o":"m 117 836 l 117 1013 l 720 1013 l 720 836 l 518 836 l 518 176 l 720 176 l 720 0 l 117 0 l 117 176 l 318 176 l 318 836 l 117 836 m 191 1288 l 286 1288 q 333 1226 300 1247 q 418 1206 366 1206 q 503 1226 470 1206 q 549 1288 535 1246 l 646 1288 q 577 1155 635 1200 q 418 1109 518 1109 q 259 1155 318 1109 q 191 1288 201 1200 z "},"ĭ":{"ha":836,"x_min":97,"x_max":790,"o":"m 150 760 l 543 760 l 543 153 l 790 153 l 790 0 l 97 0 l 97 153 l 345 153 l 345 607 l 150 607 l 150 760 m 191 1089 l 286 1089 q 328 1017 294 1042 q 418 991 361 991 q 508 1017 474 991 q 549 1089 541 1042 l 646 1089 q 583 940 642 991 q 418 888 524 888 q 253 940 312 888 q 191 1089 195 991 z "},"Į":{"ha":836,"x_min":117,"x_max":720,"o":"m 117 836 l 117 1013 l 720 1013 l 720 836 l 518 836 l 518 176 l 720 176 l 720 0 l 117 0 l 117 176 l 318 176 l 318 836 l 117 836 m 422 0 l 518 0 q 471 -72 483 -48 q 458 -113 458 -96 q 479 -156 458 -139 q 533 -172 500 -172 q 585 -167 559 -172 q 637 -151 610 -162 l 637 -257 q 569 -268 601 -264 q 509 -272 536 -272 q 389 -241 431 -272 q 347 -151 347 -210 q 366 -78 347 -115 q 422 0 385 -41 z "},"į":{"ha":836,"x_min":97,"x_max":790,"o":"m 150 760 l 543 760 l 543 153 l 790 153 l 790 0 l 97 0 l 97 153 l 345 153 l 345 607 l 150 607 l 150 760 m 345 1129 l 543 1129 l 543 897 l 345 897 l 345 1129 m 448 0 l 543 0 q 496 -72 508 -48 q 484 -113 484 -96 q 504 -156 484 -139 q 558 -172 525 -172 q 610 -167 584 -172 q 663 -151 635 -162 l 663 -257 q 594 -268 626 -264 q 534 -272 562 -272 q 414 -241 456 -272 q 372 -151 372 -210 q 391 -78 372 -115 q 448 0 410 -41 z "},"İ":{"ha":836,"x_min":117,"x_max":720,"o":"m 117 836 l 117 1013 l 720 1013 l 720 836 l 518 836 l 518 176 l 720 176 l 720 0 l 117 0 l 117 176 l 318 176 l 318 836 l 117 836 m 325 1288 l 511 1288 l 511 1121 l 325 1121 l 325 1288 z "},"ı":{"ha":836,"x_min":97,"x_max":790,"o":"m 150 760 l 543 760 l 543 153 l 790 153 l 790 0 l 97 0 l 97 153 l 345 153 l 345 607 l 150 607 l 150 760 z "},"Ĳ":{"ha":836,"x_min":-6,"x_max":834,"o":"m 389 52 l 389 284 q 480 193 432 224 q 577 162 528 162 q 661 201 635 162 q 688 327 688 241 l 688 838 l 509 838 l 509 1013 l 834 1013 l 834 327 q 778 62 834 142 q 591 -18 721 -18 q 493 0 544 -18 q 389 52 441 18 m -6 836 l -6 1013 l 380 1013 l 380 836 l 251 836 l 251 176 l 380 176 l 380 0 l -6 0 l -6 176 l 123 176 l 123 836 l -6 836 z "},"ĳ":{"ha":836,"x_min":7,"x_max":836,"o":"m 836 24 q 775 -221 836 -148 q 571 -294 713 -294 l 357 -294 l 357 -142 l 515 -142 q 610 -104 582 -142 q 637 22 637 -67 l 637 600 l 436 600 l 436 760 l 836 760 l 836 24 m 836 890 l 637 890 l 637 1122 l 836 1122 l 836 890 m 43 760 l 318 760 l 318 153 l 491 153 l 491 0 l 7 0 l 7 153 l 180 153 l 180 607 l 43 607 l 43 760 m 180 1129 l 318 1129 l 318 897 l 180 897 l 180 1129 z "},"Ĵ":{"ha":836,"x_min":74,"x_max":717,"o":"m 355 1288 l 566 1288 l 717 1109 l 596 1109 l 461 1218 l 326 1109 l 205 1109 l 355 1288 m 74 50 l 74 282 q 198 191 132 222 q 332 160 264 160 q 447 199 410 160 q 484 325 484 239 l 484 836 l 239 836 l 239 1013 l 684 1013 l 684 325 q 606 60 684 140 q 350 -20 528 -20 q 215 -2 286 -20 q 74 50 145 16 z "},"ĵ":{"ha":836,"x_min":97,"x_max":673,"o":"m 336 1111 l 500 1111 l 673 856 l 553 856 l 418 1008 l 283 856 l 163 856 l 336 1111 m 576 29 q 515 -215 576 -142 q 311 -288 454 -288 l 97 -288 l 97 -135 l 256 -135 q 350 -98 322 -135 q 378 29 378 -60 l 378 607 l 176 607 l 176 760 l 576 760 l 576 29 z "},"Ķ":{"ha":836,"x_min":79,"x_max":831,"o":"m 390 -107 l 581 -107 l 461 -315 l 330 -315 l 390 -107 m 79 1013 l 279 1013 l 279 612 l 593 1013 l 819 1013 l 500 614 l 831 0 l 608 0 l 368 456 l 279 343 l 279 0 l 79 0 l 79 1013 z "},"ķ":{"ha":836,"x_min":118,"x_max":812,"o":"m 399 -107 l 591 -107 l 471 -315 l 339 -315 l 399 -107 m 118 1055 l 317 1055 l 317 501 l 555 760 l 796 760 l 509 476 l 812 0 l 593 0 l 385 355 l 317 290 l 317 0 l 118 0 l 118 1055 z "},"ĸ":{"ha":836,"x_min":118,"x_max":812,"o":"m 118 760 l 317 760 l 317 501 l 555 760 l 796 760 l 509 476 l 812 0 l 593 0 l 385 355 l 317 290 l 317 0 l 118 0 l 118 760 z "},"Ĺ":{"ha":836,"x_min":153,"x_max":781,"o":"m 454 1289 l 646 1289 l 452 1109 l 319 1109 l 454 1289 m 153 0 l 153 1013 l 353 1013 l 353 176 l 781 176 l 781 0 l 153 0 z "},"ĺ":{"ha":836,"x_min":61,"x_max":742,"o":"m 454 1289 l 646 1289 l 452 1109 l 319 1109 l 454 1289 m 262 317 l 262 903 l 61 903 l 61 1055 l 461 1055 l 461 317 q 489 190 461 227 q 583 153 517 153 l 742 153 l 742 0 l 528 0 q 324 73 386 0 q 262 317 262 146 z "},"Ļ":{"ha":836,"x_min":153,"x_max":781,"o":"m 401 -107 l 592 -107 l 472 -315 l 340 -315 l 401 -107 m 153 0 l 153 1013 l 353 1013 l 353 176 l 781 176 l 781 0 l 153 0 z "},"ļ":{"ha":836,"x_min":61,"x_max":742,"o":"m 315 -107 l 507 -107 l 387 -315 l 255 -315 l 315 -107 m 262 317 l 262 903 l 61 903 l 61 1055 l 461 1055 l 461 317 q 489 190 461 227 q 583 153 517 153 l 742 153 l 742 0 l 528 0 q 324 73 386 0 q 262 317 262 146 z "},"Ľ":{"ha":836,"x_min":153,"x_max":781,"o":"m 589 1013 l 781 1013 l 671 758 l 538 758 l 589 1013 m 153 0 l 153 1013 l 353 1013 l 353 176 l 781 176 l 781 0 l 153 0 z "},"ľ":{"ha":836,"x_min":61,"x_max":807,"o":"m 616 1056 l 807 1056 l 698 801 l 564 801 l 616 1056 m 262 317 l 262 903 l 61 903 l 61 1055 l 461 1055 l 461 317 q 489 190 461 227 q 583 153 517 153 l 742 153 l 742 0 l 528 0 q 324 73 386 0 q 262 317 262 146 z "},"Ŀ":{"ha":836,"x_min":153,"x_max":794,"o":"m 568 724 l 794 724 l 794 476 l 568 476 l 568 724 m 153 0 l 153 1013 l 353 1013 l 353 176 l 781 176 l 781 0 l 153 0 z "},"ŀ":{"ha":836,"x_min":61,"x_max":830,"o":"m 604 724 l 830 724 l 830 476 l 604 476 l 604 724 m 262 317 l 262 903 l 61 903 l 61 1055 l 461 1055 l 461 317 q 489 190 461 227 q 583 153 517 153 l 742 153 l 742 0 l 528 0 q 324 73 386 0 q 262 317 262 146 z "},"Ł":{"ha":836,"x_min":-26,"x_max":781,"o":"m 153 0 l 153 364 l 50 289 l -26 393 l 153 521 l 153 1013 l 353 1013 l 353 660 l 539 791 l 615 688 l 353 503 l 353 176 l 781 176 l 781 0 l 153 0 z "},"ł":{"ha":836,"x_min":25,"x_max":757,"o":"m 278 317 l 278 429 l 93 297 l 25 407 l 278 586 l 278 903 l 78 903 l 78 1055 l 476 1055 l 476 726 l 676 868 l 746 760 l 476 570 l 476 317 q 504 190 476 227 q 599 153 532 153 l 757 153 l 757 0 l 543 0 q 340 73 401 0 q 278 317 278 146 z "},"Ń":{"ha":836,"x_min":81,"x_max":754,"o":"m 474 1289 l 667 1289 l 473 1109 l 339 1109 l 474 1289 m 81 1013 l 296 1013 l 578 277 l 578 1013 l 754 1013 l 754 0 l 541 0 l 257 736 l 257 0 l 81 0 l 81 1013 z "},"ń":{"ha":836,"x_min":117,"x_max":726,"o":"m 509 1116 l 701 1116 l 451 861 l 317 861 l 509 1116 m 726 493 l 726 0 l 529 0 l 529 463 q 506 581 529 545 q 429 616 482 616 q 345 568 376 616 q 314 435 314 520 l 314 0 l 117 0 l 117 760 l 314 760 l 314 646 q 386 743 335 709 q 509 778 437 778 q 671 706 616 778 q 726 493 726 635 z "},"Ņ":{"ha":836,"x_min":81,"x_max":754,"o":"m 352 -107 l 543 -107 l 423 -315 l 292 -315 l 352 -107 m 81 1013 l 296 1013 l 578 277 l 578 1013 l 754 1013 l 754 0 l 541 0 l 257 736 l 257 0 l 81 0 l 81 1013 z "},"ņ":{"ha":836,"x_min":117,"x_max":726,"o":"m 356 -107 l 547 -107 l 427 -315 l 296 -315 l 356 -107 m 726 493 l 726 0 l 529 0 l 529 463 q 506 581 529 545 q 429 616 482 616 q 345 568 376 616 q 314 435 314 520 l 314 0 l 117 0 l 117 760 l 314 760 l 314 646 q 386 743 335 709 q 509 778 437 778 q 671 706 616 778 q 726 493 726 635 z "},"Ň":{"ha":836,"x_min":81,"x_max":754,"o":"m 81 1013 l 296 1013 l 578 277 l 578 1013 l 754 1013 l 754 0 l 541 0 l 257 736 l 257 0 l 81 0 l 81 1013 m 340 1109 l 191 1288 l 311 1288 l 446 1178 l 581 1288 l 701 1288 l 550 1109 l 340 1109 z "},"ň":{"ha":836,"x_min":117,"x_max":726,"o":"m 726 493 l 726 0 l 529 0 l 529 463 q 506 581 529 545 q 429 616 482 616 q 345 568 376 616 q 314 435 314 520 l 314 0 l 117 0 l 117 760 l 314 760 l 314 646 q 386 743 335 709 q 509 778 437 778 q 671 706 616 778 q 726 493 726 635 m 361 856 l 187 1111 l 308 1111 l 442 957 l 577 1111 l 698 1111 l 524 856 l 361 856 z "},"ŉ":{"ha":836,"x_min":-74,"x_max":834,"o":"m 834 493 l 834 0 l 637 0 l 637 463 q 613 581 637 545 q 537 616 590 616 q 453 568 484 616 q 422 435 422 520 l 422 0 l 224 0 l 224 760 l 422 760 l 422 646 q 494 743 443 709 q 616 778 545 778 q 779 706 724 778 q 834 493 834 635 m -7 1055 l 205 1055 l 205 872 l 72 612 l -74 612 l -7 872 l -7 1055 z "},"Ŋ":{"ha":836,"x_min":72,"x_max":763,"o":"m 763 639 l 763 39 q 701 -216 763 -141 q 497 -289 638 -289 l 415 -289 l 415 -135 l 440 -135 q 536 -98 508 -135 q 564 30 564 -60 l 564 688 q 532 813 564 776 q 428 851 500 851 q 314 800 354 851 q 272 659 272 747 l 272 0 l 72 0 l 72 1013 l 272 1013 l 272 850 q 358 984 297 937 q 504 1032 418 1032 q 697 933 632 1032 q 763 639 763 835 z "},"ŋ":{"ha":836,"x_min":117,"x_max":726,"o":"m 726 493 l 726 29 q 665 -214 726 -142 q 461 -288 604 -288 l 379 -288 l 379 -135 l 406 -135 q 501 -98 473 -135 q 529 29 529 -60 l 529 463 q 506 581 529 545 q 429 616 482 616 q 345 568 376 616 q 314 435 314 520 l 314 0 l 117 0 l 117 760 l 314 760 l 314 646 q 386 743 335 709 q 509 778 437 778 q 671 707 616 778 q 726 493 726 635 z "},"Ō":{"ha":836,"x_min":62,"x_max":774,"o":"m 204 1268 l 632 1268 l 632 1141 l 204 1141 l 204 1268 m 418 851 q 306 769 341 851 q 271 505 271 688 q 306 242 271 323 q 418 160 341 160 q 530 242 495 160 q 566 505 566 323 q 530 769 566 688 q 418 851 495 851 m 62 505 q 152 898 62 765 q 418 1031 242 1031 q 684 898 594 1031 q 774 505 774 765 q 684 113 774 246 q 418 -20 594 -20 q 152 113 242 -20 q 62 505 62 246 z "},"ō":{"ha":836,"x_min":66,"x_max":770,"o":"m 204 1055 l 632 1055 l 632 928 l 204 928 l 204 1055 m 418 616 q 306 554 347 616 q 265 379 265 491 q 306 204 265 267 q 418 142 347 142 q 530 204 490 142 q 571 379 571 267 q 530 554 571 491 q 418 616 490 616 m 66 379 q 162 670 66 563 q 418 778 257 778 q 674 670 579 778 q 770 379 770 563 q 674 88 770 195 q 418 -20 579 -20 q 162 88 257 -20 q 66 379 66 195 z "},"Ŏ":{"ha":836,"x_min":62,"x_max":774,"o":"m 418 851 q 306 769 341 851 q 271 505 271 688 q 306 242 271 323 q 418 160 341 160 q 530 242 495 160 q 566 505 566 323 q 530 769 566 688 q 418 851 495 851 m 62 505 q 152 898 62 765 q 418 1031 242 1031 q 684 898 594 1031 q 774 505 774 765 q 684 113 774 246 q 418 -20 594 -20 q 152 113 242 -20 q 62 505 62 246 m 191 1288 l 286 1288 q 333 1226 300 1247 q 418 1206 366 1206 q 503 1226 470 1206 q 549 1288 535 1246 l 646 1288 q 577 1155 635 1200 q 418 1109 518 1109 q 259 1155 318 1109 q 191 1288 201 1200 z "},"ŏ":{"ha":836,"x_min":66,"x_max":770,"o":"m 418 616 q 306 554 347 616 q 265 379 265 491 q 306 204 265 267 q 418 142 347 142 q 530 204 490 142 q 571 379 571 267 q 530 554 571 491 q 418 616 490 616 m 66 379 q 162 670 66 563 q 418 778 257 778 q 674 670 579 778 q 770 379 770 563 q 674 88 770 195 q 418 -20 579 -20 q 162 88 257 -20 q 66 379 66 195 m 191 1089 l 286 1089 q 328 1017 294 1042 q 418 991 361 991 q 508 1017 474 991 q 549 1089 541 1042 l 646 1089 q 583 940 642 991 q 418 888 524 888 q 253 940 312 888 q 191 1089 195 991 z "},"Ő":{"ha":836,"x_min":62,"x_max":774,"o":"m 418 851 q 306 769 341 851 q 271 505 271 688 q 306 242 271 323 q 418 160 341 160 q 530 242 495 160 q 566 505 566 323 q 530 769 566 688 q 418 851 495 851 m 62 505 q 152 898 62 765 q 418 1031 242 1031 q 684 898 594 1031 q 774 505 774 765 q 684 113 774 246 q 418 -20 594 -20 q 152 113 242 -20 q 62 505 62 246 m 568 1288 l 761 1288 l 567 1109 l 433 1109 l 568 1288 m 314 1288 l 507 1288 l 313 1109 l 179 1109 l 314 1288 z "},"ő":{"ha":836,"x_min":66,"x_max":770,"o":"m 418 616 q 306 554 347 616 q 265 379 265 491 q 306 204 265 267 q 418 142 347 142 q 530 204 490 142 q 571 379 571 267 q 530 554 571 491 q 418 616 490 616 m 66 379 q 162 670 66 563 q 418 778 257 778 q 674 670 579 778 q 770 379 770 563 q 674 88 770 195 q 418 -20 579 -20 q 162 88 257 -20 q 66 379 66 195 m 579 1111 l 736 1111 l 551 856 l 433 856 l 579 1111 m 334 1111 l 481 1111 l 313 856 l 201 856 l 334 1111 z "},"Œ":{"ha":836,"x_min":46,"x_max":825,"o":"m 825 176 l 825 0 l 429 0 q 128 105 210 0 q 46 505 46 211 q 128 907 46 801 q 429 1013 210 1013 l 818 1013 l 818 836 l 593 836 l 593 625 l 798 625 l 798 449 l 593 449 l 593 176 l 825 176 m 386 836 q 271 776 302 836 q 240 505 240 715 q 271 235 240 294 q 386 176 302 176 l 421 176 l 421 836 l 386 836 z "},"œ":{"ha":836,"x_min":9,"x_max":821,"o":"m 821 325 l 515 325 q 549 176 515 227 q 647 125 583 125 q 728 145 688 125 q 810 204 769 165 l 810 39 q 734 -5 777 9 q 635 -20 692 -20 q 520 5 568 -20 q 440 81 472 31 q 366 4 411 28 q 253 -20 321 -20 q 67 74 124 -20 q 9 379 9 168 q 67 685 9 593 q 253 778 124 778 q 362 758 320 778 q 432 693 404 738 q 495 756 451 734 q 602 778 539 778 q 771 697 722 778 q 821 411 821 616 l 821 325 m 668 468 l 668 492 q 651 602 668 570 q 591 633 633 633 q 532 601 549 633 q 515 484 515 569 l 515 468 l 668 468 m 353 379 q 333 588 353 543 q 261 633 313 633 q 188 588 208 633 q 168 379 168 543 q 188 170 168 215 q 261 125 208 125 q 333 170 313 125 q 353 379 353 216 z "},"Ŕ":{"ha":836,"x_min":90,"x_max":836,"o":"m 454 1289 l 646 1289 l 452 1109 l 319 1109 l 454 1289 m 547 478 q 599 450 577 472 q 653 364 621 428 l 836 0 l 616 0 l 494 256 q 480 286 489 267 q 354 400 427 400 l 290 400 l 290 0 l 90 0 l 90 1013 l 379 1013 q 660 943 574 1013 q 745 718 745 874 q 694 552 745 614 q 547 478 643 490 m 290 844 l 290 568 l 385 568 q 502 601 467 568 q 538 707 538 633 q 503 812 538 781 q 385 844 467 844 l 290 844 z "},"ŕ":{"ha":836,"x_min":197,"x_max":806,"o":"m 614 1116 l 806 1116 l 556 861 l 422 861 l 614 1116 m 781 550 q 704 595 748 580 q 608 610 661 610 q 498 588 545 610 q 425 524 451 566 q 402 461 409 498 q 396 350 396 425 l 396 0 l 197 0 l 197 760 l 396 760 l 396 642 q 486 742 425 707 q 627 778 546 778 q 706 768 667 778 q 781 739 745 758 l 781 550 z "},"Ŗ":{"ha":836,"x_min":90,"x_max":836,"o":"m 398 -107 l 589 -107 l 469 -315 l 338 -315 l 398 -107 m 547 478 q 599 450 577 472 q 653 364 621 428 l 836 0 l 616 0 l 494 256 q 480 286 489 267 q 354 400 427 400 l 290 400 l 290 0 l 90 0 l 90 1013 l 379 1013 q 660 943 574 1013 q 745 718 745 874 q 694 552 745 614 q 547 478 643 490 m 290 844 l 290 568 l 385 568 q 502 601 467 568 q 538 707 538 633 q 503 812 538 781 q 385 844 467 844 l 290 844 z "},"ŗ":{"ha":836,"x_min":172,"x_max":781,"o":"m 232 -107 l 423 -107 l 303 -315 l 172 -315 l 232 -107 m 781 550 q 704 595 748 580 q 608 610 661 610 q 498 588 545 610 q 425 524 451 566 q 402 461 409 498 q 396 350 396 425 l 396 0 l 197 0 l 197 760 l 396 760 l 396 642 q 486 742 425 707 q 627 778 546 778 q 706 768 667 778 q 781 739 745 758 l 781 550 z "},"Ř":{"ha":836,"x_min":90,"x_max":836,"o":"m 547 478 q 599 450 577 472 q 653 364 621 428 l 836 0 l 616 0 l 494 256 q 480 286 489 267 q 354 400 427 400 l 290 400 l 290 0 l 90 0 l 90 1013 l 379 1013 q 660 943 574 1013 q 745 718 745 874 q 694 552 745 614 q 547 478 643 490 m 290 844 l 290 568 l 385 568 q 502 601 467 568 q 538 707 538 633 q 503 812 538 781 q 385 844 467 844 l 290 844 m 292 1109 l 142 1288 l 263 1288 l 397 1178 l 532 1288 l 653 1288 l 502 1109 l 292 1109 z "},"ř":{"ha":836,"x_min":197,"x_max":781,"o":"m 781 550 q 704 595 748 580 q 608 610 661 610 q 498 588 545 610 q 425 524 451 566 q 402 461 409 498 q 396 350 396 425 l 396 0 l 197 0 l 197 760 l 396 760 l 396 642 q 486 742 425 707 q 627 778 546 778 q 706 768 667 778 q 781 739 745 758 l 781 550 m 406 856 l 232 1111 l 353 1111 l 487 957 l 622 1111 l 743 1111 l 569 856 l 406 856 z "},"Ś":{"ha":836,"x_min":87,"x_max":753,"o":"m 474 1289 l 667 1289 l 473 1109 l 339 1109 l 474 1289 m 346 444 q 141 565 195 502 q 87 736 87 629 q 176 952 87 873 q 418 1031 264 1031 q 557 1015 488 1031 q 696 968 627 999 l 696 772 q 565 842 631 818 q 433 865 498 865 q 322 836 361 865 q 283 753 283 807 q 312 683 283 711 q 429 623 340 656 l 515 590 q 695 471 637 545 q 753 285 753 397 q 662 56 753 132 q 389 -20 572 -20 q 238 -2 313 -20 q 92 52 162 16 l 92 258 q 247 174 172 201 q 395 146 321 146 q 509 179 469 146 q 550 273 550 213 q 523 353 550 319 q 444 407 496 387 l 346 444 z "},"ś":{"ha":836,"x_min":117,"x_max":724,"o":"m 509 1116 l 701 1116 l 451 861 l 317 861 l 509 1116 m 672 736 l 672 562 q 558 615 617 597 q 439 633 498 633 q 338 614 372 633 q 304 557 304 595 q 450 469 304 503 l 457 467 l 514 453 q 673 370 623 427 q 724 215 724 313 q 647 39 724 98 q 415 -20 570 -20 q 275 -8 347 -20 q 129 28 203 4 l 129 201 q 263 144 195 164 q 395 125 331 125 q 500 145 465 125 q 536 204 536 165 q 511 262 536 242 q 390 306 486 283 l 335 318 q 169 399 221 344 q 117 546 117 454 q 196 717 117 656 q 419 778 275 778 q 548 767 484 778 q 672 736 612 757 z "},"Ŝ":{"ha":836,"x_min":87,"x_max":753,"o":"m 313 1288 l 522 1288 l 673 1109 l 553 1109 l 418 1218 l 283 1109 l 163 1109 l 313 1288 m 346 444 q 141 565 195 502 q 87 736 87 629 q 176 952 87 873 q 418 1031 264 1031 q 557 1015 488 1031 q 696 968 627 999 l 696 772 q 565 842 631 818 q 433 865 498 865 q 322 836 361 865 q 283 753 283 807 q 312 683 283 711 q 429 623 340 656 l 515 590 q 695 471 637 545 q 753 285 753 397 q 662 56 753 132 q 389 -20 572 -20 q 238 -2 313 -20 q 92 52 162 16 l 92 258 q 247 174 172 201 q 395 146 321 146 q 509 179 469 146 q 550 273 550 213 q 523 353 550 319 q 444 407 496 387 l 346 444 z "},"ŝ":{"ha":836,"x_min":117,"x_max":724,"o":"m 336 1111 l 500 1111 l 673 856 l 553 856 l 418 1008 l 283 856 l 163 856 l 336 1111 m 672 736 l 672 562 q 558 615 617 597 q 439 633 498 633 q 338 614 372 633 q 304 557 304 595 q 450 469 304 503 l 457 467 l 514 453 q 673 370 623 427 q 724 215 724 313 q 647 39 724 98 q 415 -20 570 -20 q 275 -8 347 -20 q 129 28 203 4 l 129 201 q 263 144 195 164 q 395 125 331 125 q 500 145 465 125 q 536 204 536 165 q 511 262 536 242 q 390 306 486 283 l 335 318 q 169 399 221 344 q 117 546 117 454 q 196 717 117 656 q 419 778 275 778 q 548 767 484 778 q 672 736 612 757 z "},"Ş":{"ha":836,"x_min":87,"x_max":753,"o":"m 479 0 q 537 -78 518 -42 q 555 -146 555 -114 q 514 -241 555 -210 q 386 -272 472 -272 q 319 -268 353 -272 q 249 -254 285 -263 l 249 -149 q 308 -166 279 -160 q 361 -172 336 -172 q 422 -157 400 -172 q 444 -114 444 -141 q 430 -68 444 -96 q 385 0 416 -41 l 479 0 m 346 444 q 141 565 195 502 q 87 736 87 629 q 176 952 87 873 q 418 1031 264 1031 q 557 1015 488 1031 q 696 968 627 999 l 696 772 q 565 842 631 818 q 433 865 498 865 q 322 836 361 865 q 283 753 283 807 q 312 683 283 711 q 429 623 340 656 l 515 590 q 695 471 637 545 q 753 285 753 397 q 662 56 753 132 q 389 -20 572 -20 q 238 -2 313 -20 q 92 52 162 16 l 92 258 q 247 174 172 201 q 395 146 321 146 q 509 179 469 146 q 550 273 550 213 q 523 353 550 319 q 444 407 496 387 l 346 444 z "},"ş":{"ha":836,"x_min":117,"x_max":724,"o":"m 479 0 q 537 -78 518 -42 q 555 -146 555 -114 q 514 -241 555 -210 q 386 -272 472 -272 q 319 -268 353 -272 q 249 -254 285 -263 l 249 -149 q 308 -166 279 -160 q 361 -172 336 -172 q 422 -157 400 -172 q 444 -114 444 -141 q 430 -68 444 -96 q 385 0 416 -41 l 479 0 m 672 736 l 672 562 q 558 615 617 597 q 439 633 498 633 q 338 614 372 633 q 304 557 304 595 q 450 469 304 503 l 457 467 l 514 453 q 673 370 623 427 q 724 215 724 313 q 647 39 724 98 q 415 -20 570 -20 q 275 -8 347 -20 q 129 28 203 4 l 129 201 q 263 144 195 164 q 395 125 331 125 q 500 145 465 125 q 536 204 536 165 q 511 262 536 242 q 390 306 486 283 l 335 318 q 169 399 221 344 q 117 546 117 454 q 196 717 117 656 q 419 778 275 778 q 548 767 484 778 q 672 736 612 757 z "},"Š":{"ha":836,"x_min":87,"x_max":753,"o":"m 346 444 q 141 565 195 502 q 87 736 87 629 q 176 952 87 873 q 418 1031 264 1031 q 557 1015 488 1031 q 696 968 627 999 l 696 772 q 565 842 631 818 q 433 865 498 865 q 322 836 361 865 q 283 753 283 807 q 312 683 283 711 q 429 623 340 656 l 515 590 q 695 471 637 545 q 753 285 753 397 q 662 56 753 132 q 389 -20 572 -20 q 238 -2 313 -20 q 92 52 162 16 l 92 258 q 247 174 172 201 q 395 146 321 146 q 509 179 469 146 q 550 273 550 213 q 523 353 550 319 q 444 407 496 387 l 346 444 m 313 1109 l 163 1288 l 283 1288 l 418 1178 l 553 1288 l 673 1288 l 522 1109 l 313 1109 z "},"š":{"ha":836,"x_min":117,"x_max":724,"o":"m 672 736 l 672 562 q 558 615 617 597 q 439 633 498 633 q 338 614 372 633 q 304 557 304 595 q 450 469 304 503 l 457 467 l 514 453 q 673 370 623 427 q 724 215 724 313 q 647 39 724 98 q 415 -20 570 -20 q 275 -8 347 -20 q 129 28 203 4 l 129 201 q 263 144 195 164 q 395 125 331 125 q 500 145 465 125 q 536 204 536 165 q 511 262 536 242 q 390 306 486 283 l 335 318 q 169 399 221 344 q 117 546 117 454 q 196 717 117 656 q 419 778 275 778 q 548 767 484 778 q 672 736 612 757 m 336 856 l 163 1111 l 283 1111 l 418 957 l 553 1111 l 673 1111 l 500 856 l 336 856 z "},"Ţ":{"ha":836,"x_min":61,"x_max":775,"o":"m 479 0 q 537 -78 518 -42 q 555 -146 555 -114 q 514 -241 555 -210 q 386 -272 472 -272 q 319 -268 353 -272 q 249 -254 285 -263 l 249 -149 q 308 -166 279 -160 q 361 -172 336 -172 q 422 -157 400 -172 q 444 -114 444 -141 q 430 -68 444 -96 q 385 0 416 -41 l 479 0 m 518 0 l 318 0 l 318 838 l 61 838 l 61 1013 l 775 1013 l 775 838 l 518 838 l 518 0 z "},"ţ":{"ha":836,"x_min":75,"x_max":728,"o":"m 602 0 q 660 -78 641 -42 q 678 -146 678 -114 q 636 -241 678 -210 q 509 -272 595 -272 q 442 -268 476 -272 q 372 -254 408 -263 l 372 -149 q 431 -166 402 -160 q 484 -172 459 -172 q 545 -157 523 -172 q 567 -114 567 -141 q 553 -68 567 -96 q 507 0 538 -41 l 602 0 m 468 975 l 468 760 l 728 760 l 728 607 l 468 607 l 468 248 q 493 175 468 197 q 575 153 517 153 l 728 153 l 728 0 l 561 0 q 330 55 390 0 q 269 257 269 109 l 269 607 l 75 607 l 75 760 l 269 760 l 269 975 l 468 975 z "},"Ť":{"ha":836,"x_min":61,"x_max":775,"o":"m 518 0 l 318 0 l 318 838 l 61 838 l 61 1013 l 775 1013 l 775 838 l 518 838 l 518 0 m 313 1117 l 163 1296 l 283 1296 l 418 1186 l 553 1296 l 673 1296 l 522 1117 l 313 1117 z "},"ť":{"ha":836,"x_min":75,"x_max":808,"o":"m 468 975 l 468 760 l 728 760 l 728 607 l 468 607 l 468 248 q 493 175 468 197 q 575 153 517 153 l 728 153 l 728 0 l 561 0 q 330 55 390 0 q 269 257 269 109 l 269 607 l 75 607 l 75 760 l 269 760 l 269 975 l 468 975 m 616 1144 l 808 1144 l 699 889 l 565 889 l 616 1144 z "},"Ŧ":{"ha":836,"x_min":61,"x_max":775,"o":"m 518 0 l 318 0 l 318 365 l 151 365 l 151 495 l 318 495 l 318 838 l 61 838 l 61 1013 l 775 1013 l 775 838 l 518 838 l 518 495 l 686 495 l 686 365 l 518 365 l 518 0 z "},"ŧ":{"ha":836,"x_min":75,"x_max":728,"o":"m 468 975 l 468 760 l 728 760 l 728 607 l 468 607 l 468 511 l 593 511 l 593 380 l 468 380 l 468 248 q 492 175 468 197 q 575 153 517 153 l 728 153 l 728 0 l 561 0 q 330 54 390 0 q 269 257 269 109 l 269 380 l 149 380 l 149 511 l 269 511 l 269 607 l 75 607 l 75 760 l 269 760 l 269 975 l 468 975 z "},"Ũ":{"ha":836,"x_min":72,"x_max":764,"o":"m 419 1142 l 382 1165 q 374 1170 379 1167 q 325 1187 344 1187 q 290 1167 304 1187 q 277 1113 277 1147 l 277 1109 l 182 1109 l 182 1129 q 219 1245 182 1201 q 315 1289 256 1289 q 365 1281 340 1289 q 416 1256 391 1272 l 456 1230 q 484 1215 471 1220 q 508 1210 497 1210 q 546 1230 532 1210 q 559 1289 559 1251 l 654 1289 q 653 1279 654 1286 q 652 1268 652 1272 q 616 1153 652 1196 q 520 1109 580 1109 q 471 1116 495 1109 q 419 1142 447 1124 m 72 374 l 72 1013 l 272 1013 l 272 323 q 311 204 272 248 q 418 161 349 161 q 525 204 486 161 q 564 323 564 248 l 564 1013 l 764 1013 l 764 374 q 682 74 764 168 q 418 -20 600 -20 q 154 74 237 -20 q 72 374 72 168 z "},"ũ":{"ha":836,"x_min":109,"x_max":720,"o":"m 415 925 l 378 950 q 370 956 376 951 q 322 975 340 975 q 285 954 298 975 q 273 893 273 933 l 273 888 l 178 888 q 213 1030 178 980 q 311 1080 248 1080 q 360 1071 336 1080 q 412 1042 385 1062 l 454 1013 q 481 997 469 1002 q 505 991 494 991 q 542 1013 529 991 q 555 1074 555 1034 l 555 1079 l 650 1079 q 615 937 650 987 q 517 886 581 886 q 470 895 492 886 q 415 925 448 903 m 109 265 l 109 760 l 307 760 l 307 296 q 330 178 307 214 q 407 143 353 143 q 491 191 460 143 q 521 323 521 238 l 521 760 l 720 760 l 720 0 l 521 0 l 521 113 q 449 15 500 50 q 328 -20 399 -20 q 164 52 219 -20 q 109 265 109 124 z "},"Ū":{"ha":836,"x_min":72,"x_max":764,"o":"m 204 1268 l 631 1268 l 631 1141 l 204 1141 l 204 1268 m 72 374 l 72 1013 l 272 1013 l 272 323 q 311 204 272 248 q 418 161 349 161 q 525 204 486 161 q 564 323 564 248 l 564 1013 l 764 1013 l 764 374 q 682 74 764 168 q 418 -20 600 -20 q 154 74 237 -20 q 72 374 72 168 z "},"ū":{"ha":836,"x_min":109,"x_max":720,"o":"m 200 1055 l 628 1055 l 628 928 l 200 928 l 200 1055 m 109 265 l 109 760 l 307 760 l 307 296 q 330 178 307 214 q 407 143 353 143 q 491 191 460 143 q 521 323 521 238 l 521 760 l 720 760 l 720 0 l 521 0 l 521 113 q 449 15 500 50 q 328 -20 399 -20 q 164 52 219 -20 q 109 265 109 124 z "},"Ŭ":{"ha":836,"x_min":72,"x_max":764,"o":"m 72 374 l 72 1013 l 272 1013 l 272 323 q 311 204 272 248 q 418 161 349 161 q 525 204 486 161 q 564 323 564 248 l 564 1013 l 764 1013 l 764 374 q 682 74 764 168 q 418 -20 600 -20 q 154 74 237 -20 q 72 374 72 168 m 191 1288 l 286 1288 q 333 1226 300 1247 q 418 1206 366 1206 q 503 1226 470 1206 q 549 1288 535 1246 l 646 1288 q 577 1155 635 1200 q 418 1109 518 1109 q 259 1155 318 1109 q 191 1288 201 1200 z "},"ŭ":{"ha":836,"x_min":109,"x_max":720,"o":"m 109 265 l 109 760 l 307 760 l 307 296 q 330 178 307 214 q 407 143 353 143 q 491 191 460 143 q 521 323 521 238 l 521 760 l 720 760 l 720 0 l 521 0 l 521 113 q 449 15 500 50 q 328 -20 399 -20 q 164 52 219 -20 q 109 265 109 124 m 191 1089 l 286 1089 q 328 1017 294 1042 q 418 991 361 991 q 508 1017 474 991 q 549 1089 541 1042 l 646 1089 q 583 940 642 991 q 418 888 524 888 q 253 940 312 888 q 191 1089 195 991 z "},"Ů":{"ha":836,"x_min":72,"x_max":764,"o":"m 72 374 l 72 1013 l 272 1013 l 272 323 q 311 204 272 248 q 418 161 349 161 q 525 204 486 161 q 564 323 564 248 l 564 1013 l 764 1013 l 764 374 q 682 74 764 168 q 418 -20 600 -20 q 154 74 237 -20 q 72 374 72 168 m 229 1267 q 285 1404 229 1348 q 421 1461 341 1461 q 558 1404 502 1461 q 614 1267 614 1348 q 558 1131 614 1187 q 421 1074 502 1074 q 285 1131 341 1074 q 229 1267 229 1187 m 332 1267 q 358 1204 332 1230 q 421 1179 385 1179 q 485 1205 458 1179 q 511 1267 511 1231 q 484 1330 511 1304 q 421 1356 458 1356 q 358 1330 385 1356 q 332 1267 332 1304 z "},"ů":{"ha":836,"x_min":109,"x_max":720,"o":"m 109 265 l 109 760 l 307 760 l 307 296 q 330 178 307 214 q 407 143 353 143 q 491 191 460 143 q 521 323 521 238 l 521 760 l 720 760 l 720 0 l 521 0 l 521 113 q 449 15 500 50 q 328 -20 399 -20 q 164 52 219 -20 q 109 265 109 124 m 225 1040 q 281 1177 225 1120 q 418 1234 338 1234 q 555 1177 498 1234 q 611 1040 611 1120 q 555 904 611 960 q 418 847 498 847 q 281 904 338 847 q 225 1040 225 960 m 329 1040 q 355 977 329 1003 q 418 951 381 951 q 481 978 455 951 q 507 1040 507 1004 q 481 1103 507 1077 q 418 1129 454 1129 q 355 1103 381 1129 q 329 1040 329 1077 z "},"Ű":{"ha":836,"x_min":72,"x_max":764,"o":"m 72 374 l 72 1013 l 272 1013 l 272 323 q 311 204 272 248 q 418 161 349 161 q 525 204 486 161 q 564 323 564 248 l 564 1013 l 764 1013 l 764 374 q 682 74 764 168 q 418 -20 600 -20 q 154 74 237 -20 q 72 374 72 168 m 568 1288 l 761 1288 l 567 1109 l 433 1109 l 568 1288 m 314 1288 l 507 1288 l 313 1109 l 179 1109 l 314 1288 z "},"ű":{"ha":836,"x_min":109,"x_max":736,"o":"m 109 265 l 109 760 l 307 760 l 307 296 q 330 178 307 214 q 407 143 353 143 q 491 191 460 143 q 521 323 521 238 l 521 760 l 720 760 l 720 0 l 521 0 l 521 113 q 449 15 500 50 q 328 -20 399 -20 q 164 52 219 -20 q 109 265 109 124 m 579 1111 l 736 1111 l 551 856 l 433 856 l 579 1111 m 334 1111 l 481 1111 l 313 856 l 201 856 l 334 1111 z "},"Ų":{"ha":836,"x_min":72,"x_max":764,"o":"m 72 374 l 72 1013 l 272 1013 l 272 323 q 311 204 272 248 q 418 161 349 161 q 525 204 486 161 q 564 323 564 248 l 564 1013 l 764 1013 l 764 374 q 682 74 764 168 q 418 -20 600 -20 q 154 74 237 -20 q 72 374 72 168 m 370 -10 l 466 -10 q 418 -82 431 -58 q 406 -123 406 -106 q 427 -166 406 -149 q 481 -182 448 -182 q 532 -177 507 -182 q 585 -161 558 -172 l 585 -267 q 516 -278 549 -275 q 456 -282 484 -282 q 337 -251 379 -282 q 295 -161 295 -220 q 314 -89 295 -125 q 370 -10 332 -52 z "},"ų":{"ha":836,"x_min":109,"x_max":833,"o":"m 109 265 l 109 760 l 307 760 l 307 296 q 330 178 307 214 q 407 143 353 143 q 491 191 460 143 q 521 323 521 238 l 521 760 l 720 760 l 720 0 l 521 0 l 521 113 q 449 15 500 50 q 328 -20 399 -20 q 164 52 219 -20 q 109 265 109 124 m 618 0 l 713 0 q 666 -72 678 -48 q 654 -113 654 -96 q 674 -156 654 -139 q 728 -172 695 -172 q 780 -167 754 -172 q 833 -151 806 -162 l 833 -257 q 764 -268 796 -264 q 704 -272 732 -272 q 585 -241 627 -272 q 543 -151 543 -210 q 561 -78 543 -115 q 618 0 580 -41 z "},"Ŵ":{"ha":836,"x_min":0,"x_max":836,"o":"m 313 1293 l 522 1293 l 673 1114 l 553 1114 l 418 1223 l 283 1114 l 163 1114 l 313 1293 m 0 1013 l 175 1013 l 248 269 l 335 750 l 501 750 l 603 269 l 660 1013 l 836 1013 l 720 0 l 533 0 l 418 532 l 310 0 l 125 0 l 0 1013 z "},"ŵ":{"ha":836,"x_min":0,"x_max":836,"o":"m 336 1116 l 500 1116 l 673 861 l 553 861 l 418 1013 l 283 861 l 163 861 l 336 1116 m 0 760 l 165 760 l 256 178 l 338 561 l 498 561 l 579 178 l 671 760 l 836 760 l 699 0 l 510 0 l 418 395 l 326 0 l 138 0 l 0 760 z "},"Ŷ":{"ha":836,"x_min":5,"x_max":831,"o":"m 313 1293 l 522 1293 l 673 1114 l 553 1114 l 418 1223 l 283 1114 l 163 1114 l 313 1293 m 5 1013 l 221 1013 l 418 606 l 615 1013 l 831 1013 l 518 399 l 518 0 l 318 0 l 318 399 l 5 1013 z "},"ŷ":{"ha":836,"x_min":40,"x_max":798,"o":"m 337 1116 l 500 1116 l 674 861 l 553 861 l 418 1013 l 284 861 l 163 861 l 337 1116 m 482 -82 q 386 -238 442 -189 q 250 -288 330 -288 l 86 -288 l 86 -136 l 167 -136 q 256 -116 228 -136 q 314 -20 285 -95 l 329 21 l 40 760 l 249 760 l 422 267 l 589 760 l 798 760 l 482 -82 z "},"Ÿ":{"ha":836,"x_min":5,"x_max":831,"o":"m 5 1013 l 221 1013 l 418 606 l 615 1013 l 831 1013 l 518 399 l 518 0 l 318 0 l 318 399 l 5 1013 m 472 1288 l 632 1288 l 632 1121 l 472 1121 l 472 1288 m 204 1288 l 364 1288 l 364 1121 l 204 1121 l 204 1288 z "},"Ź":{"ha":836,"x_min":78,"x_max":787,"o":"m 474 1289 l 667 1289 l 473 1109 l 339 1109 l 474 1289 m 93 1013 l 778 1013 l 778 847 l 309 176 l 787 176 l 787 0 l 78 0 l 78 165 l 533 836 l 93 836 l 93 1013 z "},"ź":{"ha":836,"x_min":110,"x_max":733,"o":"m 509 1116 l 701 1116 l 451 861 l 317 861 l 509 1116 m 126 760 l 733 760 l 733 604 l 334 149 l 733 149 l 733 0 l 110 0 l 110 155 l 510 611 l 126 611 l 126 760 z "},"Ż":{"ha":836,"x_min":78,"x_max":787,"o":"m 93 1013 l 778 1013 l 778 847 l 309 176 l 787 176 l 787 0 l 78 0 l 78 165 l 533 836 l 93 836 l 93 1013 m 359 1288 l 545 1288 l 545 1121 l 359 1121 l 359 1288 z "},"ż":{"ha":836,"x_min":110,"x_max":733,"o":"m 126 760 l 733 760 l 733 604 l 334 149 l 733 149 l 733 0 l 110 0 l 110 155 l 510 611 l 126 611 l 126 760 m 325 1075 l 511 1075 l 511 908 l 325 908 l 325 1075 z "},"Ž":{"ha":836,"x_min":78,"x_max":787,"o":"m 93 1013 l 778 1013 l 778 847 l 309 176 l 787 176 l 787 0 l 78 0 l 78 165 l 533 836 l 93 836 l 93 1013 m 313 1109 l 163 1288 l 283 1288 l 418 1178 l 553 1288 l 673 1288 l 522 1109 l 313 1109 z "},"ž":{"ha":836,"x_min":110,"x_max":733,"o":"m 126 760 l 733 760 l 733 604 l 334 149 l 733 149 l 733 0 l 110 0 l 110 155 l 510 611 l 126 611 l 126 760 m 336 856 l 163 1111 l 283 1111 l 418 957 l 553 1111 l 673 1111 l 500 856 l 336 856 z "},"ſ":{"ha":836,"x_min":118,"x_max":734,"o":"m 501 0 l 302 0 l 302 607 l 118 607 l 118 760 l 302 760 l 302 812 q 359 1002 302 949 q 571 1055 416 1055 l 734 1055 l 734 903 l 579 903 q 518 886 534 903 q 501 826 503 870 l 501 0 z "},"ƀ":{"ha":836,"x_min":8,"x_max":775,"o":"m 300 652 q 385 746 336 715 q 494 778 433 778 q 702 675 629 778 q 775 379 775 572 q 703 85 775 189 q 501 -20 631 -20 q 382 14 433 -20 q 300 113 331 47 l 300 0 l 102 0 l 102 861 l 8 861 l 8 972 l 102 972 l 102 1055 l 300 1055 l 300 972 l 502 972 l 502 861 l 300 861 l 300 652 m 540 205 q 558 237 540 205 q 576 378 576 268 q 540 550 576 488 q 439 612 503 612 q 337 550 374 612 q 300 378 300 488 q 337 205 300 268 q 439 143 374 143 q 540 205 503 143 z "},"Ɓ":{"ha":836,"x_min":0,"x_max":830,"o":"m 425 460 l 425 160 l 455 160 q 589 193 551 160 q 627 306 627 225 q 587 424 627 388 q 455 460 547 460 l 425 460 m 425 854 l 425 619 l 455 619 q 563 646 531 619 q 595 736 595 673 q 563 826 595 798 q 455 854 530 854 l 425 854 m 269 1014 l 455 1014 q 709 950 624 1014 q 794 758 794 886 q 744 606 794 661 q 597 542 694 551 q 771 464 713 530 q 830 278 830 397 q 742 66 830 132 q 455 0 654 0 l 231 0 l 231 825 q 170 809 186 825 q 153 748 153 793 l 153 731 l 0 731 l 0 771 q 57 961 0 908 q 269 1014 114 1014 z "},"Ƃ":{"ha":836,"x_min":110,"x_max":778,"o":"m 310 168 l 392 168 q 530 201 490 168 q 570 317 570 235 q 530 432 570 399 q 392 465 490 465 l 310 465 l 310 168 m 110 1013 l 778 1013 l 778 836 l 310 836 l 310 633 l 385 633 q 686 559 594 633 q 778 317 778 484 q 686 75 778 149 q 385 0 594 0 l 110 0 l 110 1013 z "},"ƃ":{"ha":836,"x_min":102,"x_max":775,"o":"m 501 -20 q 300 113 362 -20 l 300 0 l 102 0 l 102 1055 l 644 1055 l 644 913 l 300 913 l 300 652 q 494 778 373 778 q 705 672 631 778 q 775 379 775 570 q 703 85 775 189 q 501 -20 631 -20 m 540 205 q 558 237 540 205 q 576 378 576 268 q 540 550 576 488 q 439 612 503 612 q 337 550 374 612 q 300 378 300 488 q 337 205 300 268 q 439 143 374 143 q 540 205 503 143 z "},"Ƅ":{"ha":836,"x_min":29,"x_max":807,"o":"m 339 168 l 421 168 q 559 201 519 168 q 599 317 599 235 q 559 432 599 399 q 421 465 519 465 l 339 465 l 339 168 m 139 0 l 139 633 l 29 724 l 339 1013 l 339 633 l 414 633 q 715 559 623 633 q 807 317 807 484 q 715 75 807 149 q 414 0 623 0 l 139 0 z "},"ƅ":{"ha":836,"x_min":31,"x_max":806,"o":"m 570 205 q 589 237 570 205 q 607 378 607 268 q 570 550 607 488 q 469 612 534 612 q 368 550 405 612 q 330 378 330 488 q 368 205 330 268 q 469 143 405 143 q 570 205 534 143 m 331 652 q 416 746 368 715 q 526 778 465 778 q 733 675 661 778 q 806 379 806 572 q 734 85 806 189 q 532 -20 663 -20 q 413 14 464 -20 q 331 113 362 47 l 331 0 l 133 0 l 132 633 l 31 724 l 331 1055 l 331 652 z "},"Ɔ":{"ha":836,"x_min":103,"x_max":733,"o":"m 103 982 q 202 1019 149 1006 q 313 1031 255 1031 q 625 896 517 1031 q 733 505 733 761 q 625 115 733 250 q 313 -20 517 -20 q 203 -7 255 -20 q 103 29 151 5 l 103 252 q 203 182 155 204 q 303 160 252 160 q 469 247 413 160 q 525 505 525 334 q 469 764 525 677 q 303 851 413 851 q 203 829 252 851 q 103 760 155 807 l 103 982 z "},"Ƈ":{"ha":836,"x_min":103,"x_max":867,"o":"m 533 160 q 733 252 633 160 l 733 29 q 524 -20 638 -20 q 211 115 319 -20 q 103 505 103 250 q 323 987 103 876 q 524 1031 410 1031 q 587 1027 556 1031 q 801 1114 646 1114 l 867 1114 l 867 962 l 857 962 q 761 924 794 962 q 733 798 733 893 l 733 760 q 533 851 634 851 q 367 764 423 851 q 311 505 311 677 q 507 161 311 181 q 533 160 520 160 z "},"ƈ":{"ha":836,"x_min":114,"x_max":870,"o":"m 517 143 q 720 221 631 143 l 720 39 q 488 -20 619 -20 q 213 86 312 -20 q 114 379 114 192 q 214 673 114 567 q 489 779 313 779 q 525 778 507 779 q 585 982 536 924 q 788 1055 646 1055 l 870 1055 l 870 903 l 844 903 q 748 865 779 903 q 720 739 724 836 l 720 721 l 720 539 q 517 616 629 616 q 350 530 401 616 q 315 379 315 473 q 441 155 315 197 q 517 143 476 143 z "},"Ɖ":{"ha":836,"x_min":0,"x_max":774,"o":"m 293 832 l 293 611 l 436 611 l 436 450 l 293 450 l 293 180 l 347 180 q 515 255 465 180 q 566 507 566 329 q 515 758 566 684 q 347 832 465 832 l 293 832 m 93 1013 l 307 1013 q 665 894 555 1013 q 774 507 774 776 q 665 119 774 238 q 307 0 555 0 l 93 0 l 93 450 l 0 450 l 0 611 l 93 611 l 93 1013 z "},"Ɗ":{"ha":836,"x_min":-19,"x_max":818,"o":"m 191 818 q 164 792 172 818 q 154 738 154 757 q 154 722 154 738 l -19 722 l -19 774 q 14 923 -19 876 q 157 1010 64 997 q 191 1013 174 1013 l 351 1013 q 709 894 600 1013 q 818 507 818 776 q 709 119 818 238 q 351 0 600 0 l 191 0 l 191 818 m 391 832 l 391 180 q 559 255 509 180 q 610 507 610 329 q 559 758 610 684 q 391 832 509 832 z "},"Ƌ":{"ha":836,"x_min":85,"x_max":786,"o":"m 593 460 l 460 460 q 328 424 368 460 q 288 306 288 388 q 326 193 288 225 q 460 160 364 160 l 593 160 l 593 460 m 140 1013 l 786 1013 l 786 0 l 460 0 q 173 66 261 0 q 85 278 85 132 q 85 291 85 285 q 136 464 87 409 q 151 484 140 469 l 180 517 q 460 619 275 617 l 593 619 l 593 854 l 140 854 l 140 1013 z "},"ƌ":{"ha":836,"x_min":102,"x_max":775,"o":"m 376 -20 q 174 85 245 -20 q 102 379 102 189 q 172 672 102 570 q 382 778 245 778 q 577 652 504 778 l 577 913 l 233 913 l 233 1055 l 775 1055 l 775 0 l 577 0 l 577 113 q 376 -20 515 -20 m 337 550 q 319 519 337 550 q 300 378 300 488 q 337 205 300 268 q 438 143 374 143 q 540 205 503 143 q 577 378 577 268 q 540 550 577 488 q 438 612 503 612 q 337 550 374 612 z "},"ƍ":{"ha":836,"x_min":66,"x_max":769,"o":"m 614 36 q 712 -109 712 -7 q 627 -254 712 -201 q 390 -306 542 -306 q 266 -298 323 -306 q 259 -296 262 -297 q 156 -273 238 -294 l 156 -127 q 173 -133 164 -130 q 264 -159 238 -154 q 380 -169 325 -169 q 490 -146 450 -169 l 505 -136 q 528 -89 528 -119 q 418 -20 528 -20 q 161 88 256 -20 q 66 379 66 195 q 161 670 66 563 q 418 778 256 778 q 674 670 578 778 q 769 379 769 563 q 674 88 769 201 q 614 36 631 37 m 418 142 q 530 204 489 142 q 570 379 570 267 q 530 554 570 491 q 418 616 489 616 q 305 554 346 616 q 264 379 264 491 q 305 204 264 267 q 418 142 346 142 z "},"Ǝ":{"ha":836,"x_min":114,"x_max":745,"o":"m 745 1013 l 745 0 l 114 0 l 114 176 l 545 176 l 545 441 l 155 441 l 155 618 l 545 618 l 545 836 l 114 836 l 114 1013 l 745 1013 z "},"Ə":{"ha":836,"x_min":62,"x_max":774,"o":"m 62 505 l 62 570 l 564 570 l 564 573 q 527 777 564 702 q 408 851 490 851 q 308 829 357 851 q 208 760 260 807 l 208 982 q 308 1019 256 1006 q 418 1031 360 1031 q 684 898 594 1031 q 774 505 774 765 q 684 113 774 246 q 418 -20 594 -20 q 152 113 242 -20 q 62 505 62 246 m 275 393 q 318 217 282 275 q 419 160 353 160 q 519 220 487 160 q 562 393 551 279 l 275 393 z "},"Ɛ":{"ha":836,"x_min":85,"x_max":746,"o":"m 307 546 q 160 621 212 564 q 109 768 109 678 q 198 961 109 891 q 448 1031 288 1031 q 578 1020 510 1031 q 715 987 646 1008 l 715 806 q 581 847 646 833 q 458 861 515 861 q 343 830 384 861 q 302 742 302 798 q 343 659 302 688 q 458 629 384 629 l 566 629 l 566 453 l 458 453 q 324 411 372 453 q 277 290 277 368 q 324 189 277 227 q 453 151 372 151 q 608 168 534 151 q 746 216 682 184 l 746 31 q 604 -7 678 6 q 453 -20 530 -20 q 179 58 273 -20 q 85 282 85 135 q 142 459 85 392 q 307 546 199 527 z "},"Ƒ":{"ha":836,"x_min":73,"x_max":763,"o":"m 763 836 l 397 836 l 397 618 l 724 618 l 724 441 l 397 441 l 397 114 l 397 29 l 397 0 q 335 -214 391 -146 q 132 -288 274 -288 l 73 -288 l 73 -135 q 172 -98 144 -135 q 197 29 197 -64 l 197 114 l 197 1013 l 763 1013 l 763 836 z "},"ƒ":{"ha":836,"x_min":62,"x_max":774,"o":"m 541 826 l 541 760 l 774 760 l 774 607 l 541 607 l 541 0 q 480 -214 537 -147 q 276 -288 418 -288 l 62 -288 l 62 -135 l 220 -135 q 315 -98 288 -135 q 342 29 342 -60 l 342 607 l 158 607 l 158 760 l 342 760 l 342 812 q 399 1002 342 949 q 611 1055 456 1055 l 774 1055 l 774 903 l 619 903 q 541 826 544 903 z "},"Ɠ":{"ha":836,"x_min":26,"x_max":810,"o":"m 446 160 q 538 183 509 160 l 538 376 l 401 376 l 401 545 l 713 545 l 713 81 q 437 -20 596 -20 q 133 117 240 -20 q 26 505 26 254 q 243 985 26 873 q 446 1031 330 1031 q 528 1023 487 1031 q 541 1041 534 1033 q 745 1114 602 1114 l 810 1114 l 810 962 l 800 962 q 705 924 738 962 q 677 798 677 893 l 677 742 l 675 745 q 460 851 590 851 q 235 543 247 851 q 234 505 234 525 q 378 172 234 226 q 446 160 409 160 z "},"Ɣ":{"ha":836,"x_min":22,"x_max":814,"o":"m 418 346 m 292 517 l 22 1013 l 240 1013 l 418 686 l 595 1013 l 814 1013 l 544 517 q 686 -9 685 258 q 414 -197 688 -193 q 138 -9 140 -200 q 292 517 137 227 m 418 346 q 321 85 320 165 q 414 0 322 0 q 509 88 509 0 q 418 346 509 189 z "},"ƕ":{"ha":836,"x_min":8,"x_max":831,"o":"m 828 386 q 760 107 831 214 q 585 0 694 3 l 525 -1 q 387 79 433 -3 q 338 312 338 163 l 337 493 q 319 580 334 551 q 258 615 300 615 q 190 567 214 615 q 165 435 165 519 l 165 0 l 8 0 l 8 1055 l 165 1055 l 165 646 q 223 743 182 709 q 321 778 264 778 q 452 707 408 778 q 496 493 496 635 l 496 312 q 501 189 498 196 q 540 157 520 154 l 549 158 q 637 224 608 167 q 671 380 671 288 l 671 635 l 828 635 l 828 386 z "},"Ɩ":{"ha":836,"x_min":117,"x_max":765,"o":"m 318 836 l 117 836 l 117 1013 l 720 1013 l 720 836 l 518 836 l 518 336 q 544 208 518 239 q 639 177 570 178 l 765 176 l 765 0 l 606 0 q 393 80 467 0 q 319 313 319 161 l 318 836 z "},"Ɨ":{"ha":836,"x_min":117,"x_max":720,"o":"m 117 836 l 117 1013 l 720 1013 l 720 836 l 518 836 l 518 495 l 686 495 l 686 365 l 518 365 l 518 176 l 720 176 l 720 0 l 117 0 l 117 176 l 318 176 l 318 365 l 151 365 l 151 495 l 318 495 l 318 836 l 117 836 z "},"Ƙ":{"ha":836,"x_min":14,"x_max":823,"o":"m 518 719 l 434 614 l 765 0 l 543 0 l 302 456 l 214 343 l 214 0 l 14 0 l 14 1013 l 214 1013 l 214 612 l 387 834 q 595 1003 505 984 q 779 944 684 1021 l 823 909 l 728 790 q 629 821 675 831 q 518 719 593 812 z "},"ƙ":{"ha":836,"x_min":118,"x_max":812,"o":"m 118 739 q 180 982 118 908 q 383 1055 241 1055 l 465 1055 l 465 903 l 439 903 q 343 865 372 903 q 315 739 315 829 l 317 739 l 317 501 l 555 760 l 796 760 l 509 476 l 812 0 l 593 0 l 385 355 l 317 290 l 317 0 l 118 0 l 118 654 l 118 739 z "},"ƚ":{"ha":836,"x_min":61,"x_max":742,"o":"m 468 511 l 593 511 l 593 380 l 468 380 l 461 380 l 461 317 q 489 190 461 227 q 583 153 517 153 l 742 153 l 742 0 l 528 0 q 324 73 386 0 q 262 317 262 146 l 262 380 l 149 380 l 149 511 l 262 511 l 262 903 l 61 903 l 61 1055 l 461 1055 l 461 511 l 468 511 z "},"ƛ":{"ha":836,"x_min":54,"x_max":782,"o":"m 521 1029 l 591 921 l 435 810 l 782 0 l 581 0 l 408 404 l 256 0 l 54 0 l 300 654 l 280 701 l 138 600 l 70 710 l 229 823 l 129 1055 l 330 1055 l 383 932 l 521 1029 z "},"Ɯ":{"ha":836,"x_min":56,"x_max":783,"o":"m 371 76 q 314 5 349 28 q 229 -18 279 -18 q 93 50 131 -18 q 56 332 56 117 l 56 1013 l 218 1013 l 218 272 q 231 159 218 187 q 278 130 244 130 q 326 159 312 130 q 339 272 339 189 l 339 1013 l 500 1013 l 500 272 q 513 159 500 189 q 561 130 527 130 q 608 159 595 130 q 621 272 621 187 l 621 1013 l 783 1013 l 783 0 l 639 0 l 639 79 q 585 8 622 34 q 501 -18 547 -18 q 417 9 455 -18 q 371 76 379 37 z "},"Ɲ":{"ha":836,"x_min":20,"x_max":815,"o":"m 318 0 q 212 -254 312 -193 q 53 -289 155 -289 l 20 -289 l 20 -136 l 61 -136 q 130 -85 101 -136 q 142 28 142 -66 l 142 1013 l 357 1013 l 639 277 l 639 1013 l 815 1013 l 815 0 l 602 0 l 319 736 l 319 0 l 318 0 z "},"ƞ":{"ha":836,"x_min":117,"x_max":726,"o":"m 726 493 l 726 -289 l 529 -289 l 529 463 q 506 581 529 545 q 429 616 482 616 q 345 568 376 616 q 314 435 314 520 l 314 0 l 117 0 l 117 760 l 314 760 l 314 646 q 386 743 335 709 q 509 778 437 778 q 671 706 616 778 q 726 493 726 635 z "},"Ɵ":{"ha":836,"x_min":62,"x_max":774,"o":"m 418 -20 q 93 245 168 -20 q 62 505 62 354 q 299 1013 62 931 q 418 1031 353 1031 q 684 898 594 1031 q 774 505 774 765 q 527 -5 774 71 q 418 -20 477 -20 m 562 618 q 510 805 549 751 q 418 851 475 851 q 287 706 317 851 q 275 618 280 672 l 562 618 m 564 441 l 272 441 q 306 241 278 306 q 418 160 341 160 q 530 241 495 160 q 564 441 557 304 z "},"Ơ":{"ha":836,"x_min":3,"x_max":833,"o":"m 562 840 l 562 935 q 632 888 607 901 q 674 876 656 876 q 717 896 701 876 q 734 949 734 916 q 729 1001 734 975 q 713 1055 724 1027 l 819 1055 q 830 985 826 1017 q 833 926 833 954 q 802 806 833 848 q 713 764 771 764 q 640 783 677 764 q 562 840 603 801 m 359 851 q 247 769 282 851 q 212 505 212 688 q 247 242 212 323 q 359 160 282 160 q 471 242 436 160 q 507 505 507 323 q 471 769 507 688 q 359 851 436 851 m 3 505 q 93 898 3 765 q 359 1031 183 1031 q 625 898 535 1031 q 715 505 715 765 q 625 113 715 246 q 359 -20 535 -20 q 93 113 183 -20 q 3 505 3 246 z "},"ơ":{"ha":836,"x_min":7,"x_max":830,"o":"m 558 576 l 558 672 q 628 625 604 638 q 671 612 653 612 q 714 632 697 612 q 730 686 730 652 q 725 738 730 712 q 709 791 720 764 l 815 791 q 826 722 823 754 q 830 663 830 690 q 799 543 830 585 q 709 501 768 501 q 636 519 673 501 q 558 576 600 538 m 358 616 q 246 554 287 616 q 205 379 205 491 q 246 204 205 267 q 358 142 287 142 q 471 204 430 142 q 511 379 511 267 q 471 554 511 491 q 358 616 430 616 m 7 379 q 102 670 7 563 q 358 778 197 778 q 615 670 519 778 q 710 379 710 563 q 615 88 710 195 q 358 -20 519 -20 q 102 88 197 -20 q 7 379 7 195 z "},"Ƣ":{"ha":836,"x_min":20,"x_max":816,"o":"m 340 -20 q 47 245 115 -20 q 20 505 20 354 q 241 1015 20 939 q 340 1031 286 1031 q 561 926 481 1031 l 624 1013 l 816 1013 l 816 0 l 657 0 l 657 770 l 580 662 l 580 113 q 340 -20 498 -20 m 208 505 q 265 196 208 267 q 340 160 294 160 q 441 241 410 160 l 441 769 q 340 851 410 851 q 218 686 244 851 q 208 505 208 615 z "},"ƣ":{"ha":836,"x_min":12,"x_max":836,"o":"m 107 88 q 60 142 107 88 q 12 379 12 195 q 107 670 12 563 q 363 778 203 778 q 555 694 469 778 l 644 762 l 836 762 l 836 -289 l 677 -289 l 677 545 l 578 468 l 578 88 q 363 -20 483 -20 q 107 88 203 -20 m 363 616 q 252 554 292 616 q 211 379 211 491 q 252 204 211 267 q 363 142 292 142 q 434 205 393 142 l 434 553 q 363 616 393 616 z "},"Ƥ":{"ha":836,"x_min":14,"x_max":823,"o":"m 424 844 l 424 547 l 437 547 q 575 581 535 547 q 614 696 614 614 q 575 811 614 778 q 437 844 535 844 l 424 844 m 224 818 q 197 792 204 818 q 186 738 186 757 l 186 722 l 14 722 l 14 774 q 46 923 14 876 q 189 1010 97 997 q 224 1013 206 1013 l 429 1013 q 731 938 639 1013 q 823 696 823 863 q 731 454 823 528 q 429 379 639 379 l 424 379 l 424 0 l 224 0 l 224 818 z "},"ƥ":{"ha":836,"x_min":102,"x_max":775,"o":"m 540 208 q 558 239 540 208 q 576 380 576 271 q 540 553 576 490 q 439 615 503 615 q 337 553 374 615 q 300 380 300 490 q 337 208 300 271 q 439 146 374 146 q 540 208 503 146 m 494 -20 q 300 107 372 -20 l 300 -289 l 102 -289 l 102 721 l 102 721 l 102 739 q 164 982 109 916 q 368 1055 225 1055 l 450 1055 l 450 903 l 423 903 q 328 865 359 903 q 300 739 304 836 l 300 739 l 300 646 q 501 778 362 778 q 703 673 631 778 q 775 379 775 569 q 618 9 775 91 q 494 -20 564 -20 z "},"Ʀ":{"ha":836,"x_min":90,"x_max":836,"o":"m 547 317 q 600 289 577 311 q 653 203 621 267 l 836 -161 l 616 -161 l 494 94 q 480 124 480 123 q 354 239 427 239 l 290 239 l 290 0 l 90 0 l 90 1013 l 290 1013 l 290 851 l 379 851 q 660 782 574 851 q 745 557 745 713 q 694 391 745 452 q 547 317 643 329 m 290 683 l 290 407 l 385 407 q 502 439 467 407 q 538 545 538 471 q 503 651 538 619 q 385 683 467 683 l 290 683 z "},"Ƨ":{"ha":836,"x_min":87,"x_max":753,"o":"m 494 444 q 396 407 494 444 q 317 353 345 387 q 290 273 290 319 q 331 179 290 213 q 446 146 372 146 q 594 174 519 146 q 749 258 669 201 l 749 52 q 603 -2 678 16 q 452 -20 527 -20 q 178 56 269 -20 q 87 285 87 132 q 145 471 87 397 q 325 590 203 545 l 411 623 q 529 683 500 656 q 557 753 557 711 q 518 836 557 807 q 407 865 479 865 q 275 842 342 865 q 144 772 209 818 l 144 968 q 283 1015 213 999 q 422 1031 353 1031 q 665 952 576 1031 q 753 736 753 873 q 699 565 753 629 q 494 444 646 502 z "},"ƨ":{"ha":836,"x_min":117,"x_max":724,"o":"m 168 736 q 293 767 229 757 q 421 778 357 778 q 644 717 565 778 q 724 546 724 656 q 671 399 724 454 q 505 318 619 344 l 450 306 q 329 262 355 283 q 304 204 304 242 q 340 145 304 165 q 446 125 376 125 q 577 144 509 125 q 711 201 646 164 l 711 28 q 566 -8 637 4 q 425 -20 494 -20 q 194 39 271 -20 q 117 215 117 98 q 167 370 117 313 q 326 453 218 427 l 383 467 l 391 469 q 536 557 536 503 q 502 614 536 595 q 401 633 468 633 q 282 615 342 633 q 168 562 223 597 l 168 736 z "},"Ʃ":{"ha":836,"x_min":66,"x_max":776,"o":"m 66 837 l 66 1013 l 776 1013 l 776 836 l 297 836 l 570 507 l 297 176 l 776 176 l 776 0 l 66 0 l 66 176 l 338 507 l 66 837 z "},"ƪ":{"ha":836,"x_min":37,"x_max":774,"o":"m 541 669 l 541 -58 q 559 -119 541 -102 q 619 -135 576 -135 l 774 -135 l 774 -288 l 611 -288 q 399 -235 456 -288 q 342 -45 342 -182 l 342 669 l 251 669 q 40 857 42 669 q 242 1055 37 1048 l 242 1055 l 276 1055 q 480 982 418 1055 q 540 812 531 922 l 633 812 q 749 812 711 812 l 749 669 l 635 669 l 541 669 m 336 812 q 315 865 329 846 q 222 903 288 902 q 180 863 179 899 q 252 812 180 812 q 336 812 300 812 m 222 903 l 242 903 l 222 903 z "},"ƫ":{"ha":836,"x_min":75,"x_max":728,"o":"m 468 975 l 468 760 l 728 760 l 728 607 l 468 607 l 468 248 q 493 175 468 197 q 575 153 517 153 l 728 153 l 728 29 l 728 0 l 727 0 q 665 -214 722 -145 q 461 -288 604 -288 l 379 -288 l 379 -135 l 406 -135 q 501 -98 472 -135 q 528 1 524 -68 q 330 54 384 5 q 269 257 269 109 l 269 607 l 75 607 l 75 760 l 269 760 l 269 975 l 468 975 z "},"Ƭ":{"ha":836,"x_min":14,"x_max":775,"o":"m 264 839 q 251 838 252 839 q 210 825 221 838 q 188 753 192 802 q 187 722 187 744 l 14 722 l 14 774 q 47 923 14 879 q 81 959 59 939 q 226 1010 142 1010 q 264 1014 297 1010 l 775 1013 l 775 838 l 518 838 l 518 0 l 318 0 l 318 838 l 264 839 l 264 839 z "},"ƭ":{"ha":836,"x_min":75,"x_max":728,"o":"m 271 760 q 332 982 271 908 q 507 1055 388 1048 q 536 1055 521 1055 l 618 1055 l 618 903 l 591 903 q 496 865 525 903 q 468 760 468 829 l 728 760 l 728 607 l 468 607 l 468 248 q 493 175 468 197 q 575 153 517 153 l 728 153 l 728 0 l 561 0 q 330 55 390 0 q 269 257 269 109 l 269 607 l 75 607 l 75 760 l 271 760 z "},"Ʈ":{"ha":836,"x_min":61,"x_max":775,"o":"m 318 0 l 318 838 l 61 838 l 61 1013 l 775 1013 l 775 838 l 518 838 l 518 28 q 547 -100 518 -63 q 642 -136 575 -136 l 668 -136 l 668 -289 l 583 -289 q 381 -218 440 -289 q 318 0 323 -148 z "},"Ư":{"ha":836,"x_min":4,"x_max":833,"o":"m 561 840 l 561 935 q 631 888 606 901 q 673 876 656 876 q 716 896 700 876 q 733 949 733 916 q 728 1001 733 975 q 712 1055 723 1027 l 818 1055 q 829 985 825 1017 q 833 926 833 954 q 802 806 833 848 q 712 764 770 764 q 639 783 676 764 q 561 840 602 801 m 4 374 l 4 1013 l 204 1013 l 204 323 q 243 204 204 248 q 350 161 281 161 q 457 204 418 161 q 496 323 496 248 l 496 1013 l 696 1013 l 696 374 q 614 74 696 168 q 350 -20 532 -20 q 86 74 169 -20 q 4 374 4 168 z "},"ư":{"ha":836,"x_min":6,"x_max":831,"o":"m 559 576 l 559 672 q 629 625 604 638 q 671 612 654 612 q 714 632 698 612 q 731 686 731 652 q 726 738 731 712 q 710 791 721 764 l 816 791 q 827 722 823 754 q 831 663 831 690 q 800 543 831 585 q 710 501 768 501 q 637 519 674 501 q 559 576 600 538 m 6 265 l 6 760 l 205 760 l 205 296 q 228 178 205 214 q 304 143 251 143 q 388 191 358 143 q 418 323 418 238 l 418 760 l 617 760 l 617 0 l 418 0 l 418 113 q 347 15 397 50 q 225 -20 296 -20 q 61 52 117 -20 q 6 265 6 124 z "},"Ʊ":{"ha":836,"x_min":61,"x_max":775,"o":"m 775 847 l 614 847 q 732 681 695 773 q 768 460 768 589 q 674 124 768 248 q 420 0 579 0 q 163 124 259 0 q 68 460 68 248 q 104 681 68 589 q 222 847 141 773 l 61 847 l 61 990 l 380 990 l 380 808 q 299 675 326 755 q 273 483 273 596 q 311 259 273 338 q 418 180 349 180 q 526 259 488 180 q 564 483 564 338 q 537 676 564 595 q 454 808 510 756 l 454 990 l 775 990 l 775 847 z "},"Ʋ":{"ha":836,"x_min":79,"x_max":750,"o":"m 546 479 q 436 805 546 702 l 436 844 l 595 844 q 713 678 677 770 q 750 456 750 586 q 655 121 750 245 q 368 0 564 0 q 125 119 196 0 q 80 313 80 194 l 79 836 l 79 1013 l 279 1013 l 279 336 q 305 208 279 239 q 400 177 331 178 q 535 345 505 177 q 546 479 546 405 z "},"Ƴ":{"ha":836,"x_min":2,"x_max":834,"o":"m 633 696 l 493 399 l 493 0 l 293 0 l 293 399 l 2 1013 l 207 1013 l 394 606 l 460 749 q 587 985 559 966 q 793 995 678 1047 l 834 976 l 791 830 q 734 842 770 843 q 633 696 701 840 z "},"ƴ":{"ha":836,"x_min":20,"x_max":817,"o":"m 629 450 l 441 -82 q 209 -288 368 -288 l 45 -288 l 45 -136 l 125 -136 q 215 -116 186 -136 q 273 -20 243 -95 l 288 21 l 20 760 l 218 760 l 383 267 l 459 505 q 576 735 521 695 q 781 749 633 775 l 817 743 l 777 597 q 680 567 713 621 q 629 450 657 528 z "},"Ƶ":{"ha":836,"x_min":78,"x_max":787,"o":"m 93 1013 l 778 1013 l 778 847 l 532 495 l 686 495 l 686 365 l 441 365 l 309 176 l 787 176 l 787 0 l 78 0 l 78 165 l 213 365 l 151 365 l 151 495 l 302 495 l 533 836 l 93 836 l 93 1013 z "},"ƶ":{"ha":836,"x_min":106,"x_max":730,"o":"m 123 760 l 730 760 l 730 604 l 576 429 l 681 429 l 681 297 l 460 297 l 330 149 l 730 149 l 730 0 l 106 0 l 106 155 l 231 297 l 156 297 l 156 429 l 347 429 l 507 611 l 123 611 l 123 760 z "},"Ʒ":{"ha":836,"x_min":7,"x_max":829,"o":"m 829 288 q 666 24 829 98 q 422 -19 570 -19 q 104 60 193 -19 q 7 298 7 146 l 222 298 q 288 186 222 225 q 401 159 335 159 q 589 258 561 159 q 594 298 594 277 q 442 435 594 419 q 393 438 419 438 l 220 438 l 220 586 l 472 836 l 88 836 l 88 1013 l 773 1013 l 773 847 l 501 575 q 652 553 600 569 q 774 465 725 532 q 829 288 829 390 z "},"Ƹ":{"ha":836,"x_min":7,"x_max":829,"o":"m 435 159 q 581 212 530 159 q 614 298 614 248 l 829 298 q 732 60 829 146 q 414 -19 643 -19 q 28 167 103 -19 q 7 288 7 221 q 55 454 7 385 q 184 553 109 531 q 335 575 237 569 l 63 847 l 63 1013 l 748 1013 l 748 836 l 364 836 l 616 586 l 616 438 l 444 438 q 242 298 242 438 q 336 172 242 203 q 435 159 376 159 z "},"ƹ":{"ha":836,"x_min":75,"x_max":762,"o":"m 625 307 l 625 159 l 511 159 q 361 123 412 159 q 310 18 310 87 q 359 -85 310 -49 q 503 -121 409 -121 q 631 -102 566 -121 q 762 -47 696 -83 l 762 -248 q 622 -286 692 -273 q 481 -298 551 -298 q 178 -220 282 -298 q 75 9 75 -142 q 123 175 75 106 q 252 274 175 252 q 403 296 304 290 l 138 604 l 138 760 l 745 760 l 745 611 l 361 611 l 625 307 z "},"ƺ":{"ha":836,"x_min":89,"x_max":744,"o":"m 537 370 q 665 326 612 359 q 744 177 744 277 q 682 38 744 83 q 466 -24 621 -6 l 425 -29 q 332 -50 353 -37 q 308 -90 308 -62 q 342 -138 308 -122 q 444 -155 376 -155 q 591 -140 519 -155 q 732 -96 664 -125 q 732 -250 732 -96 q 576 -279 646 -271 q 428 -289 500 -289 q 174 -238 261 -289 q 89 -86 89 -188 q 151 55 89 9 q 389 119 203 94 l 429 124 q 515 142 498 133 q 540 180 540 155 q 508 224 540 211 q 306 239 474 239 l 162 239 l 492 611 l 89 611 l 89 760 l 744 760 l 744 611 l 537 370 z "},"ƻ":{"ha":836,"x_min":78,"x_max":721,"o":"m 294 176 l 721 176 l 721 0 l 78 0 l 78 171 l 186 286 l 260 365 l 151 365 l 151 495 l 381 495 l 421 539 q 494 643 472 597 q 517 732 517 688 q 476 837 517 800 q 359 873 435 873 q 239 852 306 873 q 100 790 172 831 l 100 977 q 242 1017 172 1003 q 375 1031 311 1031 q 628 956 536 1031 q 720 751 720 881 q 700 640 720 692 q 631 524 680 587 q 606 495 622 513 l 686 495 l 686 365 l 518 365 l 482 365 l 433 316 l 294 176 z "},"Ƽ":{"ha":836,"x_min":7,"x_max":829,"o":"m 220 438 l 123 438 l 123 1013 l 754 1013 l 754 836 l 323 836 l 323 597 l 501 597 q 675 553 580 597 q 781 454 726 533 q 829 288 829 385 q 726 60 829 138 q 422 -19 621 -19 q 104 60 193 -19 q 7 298 7 146 l 222 298 q 276 195 222 233 q 401 159 326 159 q 545 195 495 159 q 594 298 594 231 q 543 403 594 367 q 393 438 492 438 l 323 438 l 220 438 z "},"ƽ":{"ha":836,"x_min":75,"x_max":762,"o":"m 420 307 q 594 274 513 307 q 713 175 665 244 q 762 9 762 105 q 658 -220 762 -142 q 355 -298 553 -298 q 214 -286 285 -298 q 75 -248 144 -273 l 75 -47 q 205 -102 139 -83 q 334 -121 272 -121 q 477 -85 427 -121 q 526 18 526 -49 q 475 123 526 87 q 325 159 425 159 l 211 159 l 151 159 l 151 760 l 692 760 l 692 618 l 348 618 l 348 307 l 420 307 z "},"ƾ":{"ha":836,"x_min":99,"x_max":737,"o":"m 465 731 l 465 698 q 642 613 581 677 q 737 358 737 515 q 656 122 737 212 q 382 -20 529 -20 q 222 -8 271 -20 q 126 27 172 3 l 126 229 q 221 186 174 200 q 319 171 270 171 q 488 248 428 171 q 524 358 524 293 q 489 458 524 406 q 304 535 436 535 l 247 535 l 247 731 l 99 731 l 99 863 l 244 863 l 247 863 l 247 975 l 465 975 l 465 863 l 623 863 l 623 731 l 465 731 z "},"ƿ":{"ha":836,"x_min":55,"x_max":772,"o":"m 269 -90 l 269 -289 l 55 -289 l 55 760 l 269 760 l 269 648 q 372 748 320 723 q 549 778 434 778 q 718 702 671 778 q 772 522 772 616 q 269 -90 772 237 m 269 98 q 551 436 551 325 q 517 557 551 513 q 409 602 484 602 q 269 464 356 602 l 269 98 z "},"ǀ":{"ha":836,"x_min":328,"x_max":509,"o":"m 328 1013 l 509 1013 l 509 0 l 328 0 l 328 1013 z "},"ǁ":{"ha":836,"x_min":173,"x_max":664,"o":"m 483 1013 l 664 1013 l 664 0 l 483 0 l 483 1013 m 173 1013 l 354 1013 l 354 0 l 173 0 l 173 1013 z "},"ǂ":{"ha":836,"x_min":50,"x_max":787,"o":"m 328 1013 l 509 1013 l 509 777 l 787 777 l 787 618 l 509 618 l 509 469 l 787 469 l 787 308 l 509 308 l 509 0 l 328 0 l 328 308 l 50 308 l 50 469 l 328 469 l 328 618 l 50 618 l 50 777 l 328 777 l 328 1013 z "},"ǃ":{"ha":836,"x_min":328,"x_max":509,"o":"m 328 192 l 509 192 l 509 0 l 328 0 l 328 192 m 328 1013 l 509 1013 l 509 568 l 486 326 l 351 326 l 328 568 l 328 1013 z "},"Ǎ":{"ha":836,"x_min":22,"x_max":814,"o":"m 418 829 l 323 415 l 513 415 l 418 829 m 296 1013 l 541 1013 l 814 0 l 614 0 l 551 250 l 283 250 l 222 0 l 22 0 l 296 1013 m 313 1109 l 163 1288 l 283 1288 l 418 1178 l 553 1288 l 673 1288 l 522 1109 l 313 1109 z "},"ǎ":{"ha":836,"x_min":64,"x_max":751,"o":"m 475 357 q 319 328 363 357 q 275 231 275 300 q 306 149 275 179 q 389 118 336 118 q 511 177 467 118 q 554 343 554 237 l 554 357 l 475 357 m 751 433 l 751 0 l 554 0 l 554 85 q 462 7 518 35 q 338 -20 406 -20 q 136 49 208 -20 q 64 240 64 117 q 150 436 64 373 q 416 500 236 500 l 554 500 l 554 533 q 519 606 554 581 q 416 631 484 631 q 278 613 345 631 q 139 555 212 595 l 139 725 q 273 765 205 752 q 416 778 340 778 q 676 703 602 778 q 751 433 751 627 m 336 856 l 163 1111 l 283 1111 l 418 957 l 553 1111 l 673 1111 l 500 856 l 336 856 z "},"Ǐ":{"ha":836,"x_min":117,"x_max":720,"o":"m 117 836 l 117 1013 l 720 1013 l 720 836 l 518 836 l 518 176 l 720 176 l 720 0 l 117 0 l 117 176 l 318 176 l 318 836 l 117 836 m 313 1109 l 163 1288 l 283 1288 l 418 1178 l 553 1288 l 673 1288 l 522 1109 l 313 1109 z "},"ǐ":{"ha":836,"x_min":97,"x_max":790,"o":"m 150 760 l 543 760 l 543 153 l 790 153 l 790 0 l 97 0 l 97 153 l 345 153 l 345 607 l 150 607 l 150 760 m 336 856 l 163 1111 l 283 1111 l 418 957 l 553 1111 l 673 1111 l 500 856 l 336 856 z "},"Ǒ":{"ha":836,"x_min":62,"x_max":774,"o":"m 418 851 q 306 769 341 851 q 271 505 271 688 q 306 242 271 323 q 418 160 341 160 q 530 242 495 160 q 566 505 566 323 q 530 769 566 688 q 418 851 495 851 m 62 505 q 152 898 62 765 q 418 1031 242 1031 q 684 898 594 1031 q 774 505 774 765 q 684 113 774 246 q 418 -20 594 -20 q 152 113 242 -20 q 62 505 62 246 m 313 1109 l 163 1288 l 283 1288 l 418 1178 l 553 1288 l 673 1288 l 522 1109 l 313 1109 z "},"ǒ":{"ha":836,"x_min":66,"x_max":770,"o":"m 418 616 q 306 554 347 616 q 265 379 265 491 q 306 204 265 267 q 418 142 347 142 q 530 204 490 142 q 571 379 571 267 q 530 554 571 491 q 418 616 490 616 m 66 379 q 162 670 66 563 q 418 778 257 778 q 674 670 579 778 q 770 379 770 563 q 674 88 770 195 q 418 -20 579 -20 q 162 88 257 -20 q 66 379 66 195 m 336 856 l 163 1111 l 283 1111 l 418 957 l 553 1111 l 673 1111 l 500 856 l 336 856 z "},"Ǔ":{"ha":836,"x_min":72,"x_max":764,"o":"m 72 374 l 72 1013 l 272 1013 l 272 323 q 311 204 272 248 q 418 161 349 161 q 525 204 486 161 q 564 323 564 248 l 564 1013 l 764 1013 l 764 374 q 682 74 764 168 q 418 -20 600 -20 q 154 74 237 -20 q 72 374 72 168 m 313 1109 l 163 1288 l 283 1288 l 418 1178 l 553 1288 l 673 1288 l 522 1109 l 313 1109 z "},"ǔ":{"ha":836,"x_min":109,"x_max":720,"o":"m 109 265 l 109 760 l 307 760 l 307 296 q 330 178 307 214 q 407 143 353 143 q 491 191 460 143 q 521 323 521 238 l 521 760 l 720 760 l 720 0 l 521 0 l 521 113 q 449 15 500 50 q 328 -20 399 -20 q 164 52 219 -20 q 109 265 109 124 m 336 856 l 163 1111 l 283 1111 l 418 957 l 553 1111 l 673 1111 l 500 856 l 336 856 z "},"Ǖ":{"ha":836,"x_min":72,"x_max":764,"o":"m 472 1201 l 632 1201 l 632 1034 l 472 1034 l 472 1201 m 204 1201 l 364 1201 l 364 1034 l 204 1034 l 204 1201 m 72 374 l 72 1013 l 272 1013 l 272 323 q 311 204 272 248 q 418 161 349 161 q 525 204 486 161 q 564 323 564 248 l 564 1013 l 764 1013 l 764 374 q 682 74 764 168 q 418 -20 600 -20 q 154 74 237 -20 q 72 374 72 168 m 204 1368 l 632 1368 l 632 1240 l 204 1240 l 204 1368 z "},"ǖ":{"ha":836,"x_min":71,"x_max":750,"o":"m 71 1239 l 750 1239 l 750 1116 l 71 1116 l 71 1239 m 109 265 l 109 760 l 307 760 l 307 296 q 330 178 307 214 q 407 143 353 143 q 491 191 460 143 q 521 323 521 238 l 521 760 l 720 760 l 720 0 l 521 0 l 521 113 q 449 15 500 50 q 328 -20 399 -20 q 164 52 219 -20 q 109 265 109 124 m 472 1075 l 632 1075 l 632 908 l 472 908 l 472 1075 m 204 1075 l 364 1075 l 364 908 l 204 908 l 204 1075 z "},"Ǘ":{"ha":836,"x_min":72,"x_max":764,"o":"m 72 374 l 72 1013 l 272 1013 l 272 323 q 311 204 272 248 q 418 161 349 161 q 525 204 486 161 q 564 323 564 248 l 564 1013 l 764 1013 l 764 374 q 682 74 764 168 q 418 -20 600 -20 q 154 74 237 -20 q 72 374 72 168 m 472 1201 l 632 1201 l 632 1034 l 472 1034 l 472 1201 m 204 1201 l 364 1201 l 364 1034 l 204 1034 l 204 1201 m 453 1400 l 646 1400 l 452 1221 l 318 1221 l 453 1400 z "},"ǘ":{"ha":836,"x_min":109,"x_max":720,"o":"m 510 1392 l 701 1392 l 452 1137 l 318 1137 l 510 1392 m 109 265 l 109 760 l 307 760 l 307 296 q 330 178 307 214 q 407 143 353 143 q 491 191 460 143 q 521 323 521 238 l 521 760 l 720 760 l 720 0 l 521 0 l 521 113 q 449 15 500 50 q 328 -20 399 -20 q 164 52 219 -20 q 109 265 109 124 m 472 1075 l 632 1075 l 632 908 l 472 908 l 472 1075 m 204 1075 l 364 1075 l 364 908 l 204 908 l 204 1075 z "},"Ǚ":{"ha":836,"x_min":72,"x_max":764,"o":"m 72 374 l 72 1013 l 272 1013 l 272 323 q 311 204 272 248 q 418 161 349 161 q 525 204 486 161 q 564 323 564 248 l 564 1013 l 764 1013 l 764 374 q 682 74 764 168 q 418 -20 600 -20 q 154 74 237 -20 q 72 374 72 168 m 472 1201 l 632 1201 l 632 1034 l 472 1034 l 472 1201 m 204 1201 l 364 1201 l 364 1034 l 204 1034 l 204 1201 m 313 1221 l 163 1400 l 283 1400 l 418 1290 l 553 1400 l 673 1400 l 522 1221 l 313 1221 z "},"ǚ":{"ha":836,"x_min":109,"x_max":720,"o":"m 336 1137 l 163 1392 l 283 1392 l 418 1238 l 553 1392 l 673 1392 l 500 1137 l 336 1137 m 109 265 l 109 760 l 307 760 l 307 296 q 330 178 307 214 q 407 143 353 143 q 491 191 460 143 q 521 323 521 238 l 521 760 l 720 760 l 720 0 l 521 0 l 521 113 q 449 15 500 50 q 328 -20 399 -20 q 164 52 219 -20 q 109 265 109 124 m 472 1075 l 632 1075 l 632 908 l 472 908 l 472 1075 m 204 1075 l 364 1075 l 364 908 l 204 908 l 204 1075 z "},"Ǜ":{"ha":836,"x_min":72,"x_max":764,"o":"m 72 374 l 72 1013 l 272 1013 l 272 323 q 311 204 272 248 q 418 161 349 161 q 525 204 486 161 q 564 323 564 248 l 564 1013 l 764 1013 l 764 374 q 682 74 764 168 q 418 -20 600 -20 q 154 74 237 -20 q 72 374 72 168 m 472 1201 l 632 1201 l 632 1034 l 472 1034 l 472 1201 m 204 1201 l 364 1201 l 364 1034 l 204 1034 l 204 1201 m 385 1400 l 519 1221 l 386 1221 l 192 1400 l 385 1400 z "},"ǜ":{"ha":836,"x_min":109,"x_max":720,"o":"m 326 1392 l 518 1137 l 385 1137 l 135 1392 l 326 1392 m 109 265 l 109 760 l 307 760 l 307 296 q 330 178 307 214 q 407 143 353 143 q 491 191 460 143 q 521 323 521 238 l 521 760 l 720 760 l 720 0 l 521 0 l 521 113 q 449 15 500 50 q 328 -20 399 -20 q 164 52 219 -20 q 109 265 109 124 m 472 1075 l 632 1075 l 632 908 l 472 908 l 472 1075 m 204 1075 l 364 1075 l 364 908 l 204 908 l 204 1075 z "},"ǝ":{"ha":836,"x_min":62,"x_max":779,"o":"m 62 362 l 62 443 l 577 443 l 577 450 q 524 580 576 539 q 368 621 472 621 q 233 601 300 621 q 94 538 167 581 l 94 721 q 235 764 163 749 q 387 778 307 778 q 679 676 578 778 q 779 382 779 574 q 682 88 779 196 q 418 -20 585 -20 q 156 80 249 -20 q 62 362 62 180 m 262 294 q 303 175 264 215 q 418 134 342 134 q 527 176 486 134 q 575 294 568 217 l 262 294 z "},"Ǟ":{"ha":836,"x_min":22,"x_max":814,"o":"m 472 1223 l 632 1223 l 632 1056 l 472 1056 l 472 1223 m 204 1223 l 364 1223 l 364 1056 l 204 1056 l 204 1223 m 204 1368 l 632 1368 l 632 1240 l 204 1240 l 204 1368 m 418 829 l 323 415 l 513 415 l 418 829 m 296 1013 l 541 1013 l 814 0 l 614 0 l 551 250 l 283 250 l 222 0 l 22 0 l 296 1013 z "},"ǟ":{"ha":836,"x_min":64,"x_max":751,"o":"m 71 1239 l 750 1239 l 750 1116 l 71 1116 l 71 1239 m 475 357 q 319 328 363 357 q 275 231 275 300 q 306 149 275 179 q 389 118 336 118 q 511 177 467 118 q 554 343 554 237 l 554 357 l 475 357 m 751 433 l 751 0 l 554 0 l 554 85 q 462 7 518 35 q 338 -20 406 -20 q 136 49 208 -20 q 64 240 64 117 q 150 436 64 373 q 416 500 236 500 l 554 500 l 554 533 q 519 606 554 581 q 416 631 484 631 q 278 613 345 631 q 139 555 212 595 l 139 725 q 273 765 205 752 q 416 778 340 778 q 676 703 602 778 q 751 433 751 627 m 472 1075 l 632 1075 l 632 908 l 472 908 l 472 1075 m 204 1075 l 364 1075 l 364 908 l 204 908 l 204 1075 z "},"Ǡ":{"ha":836,"x_min":22,"x_max":814,"o":"m 325 1223 l 511 1223 l 511 1057 l 325 1057 l 325 1223 m 418 829 l 323 415 l 513 415 l 418 829 m 296 1013 l 541 1013 l 814 0 l 614 0 l 551 250 l 283 250 l 222 0 l 22 0 l 296 1013 m 204 1368 l 632 1368 l 632 1240 l 204 1240 l 204 1368 z "},"ǡ":{"ha":836,"x_min":64,"x_max":751,"o":"m 475 357 q 319 328 363 357 q 275 231 275 300 q 306 149 275 179 q 389 118 336 118 q 511 177 467 118 q 554 343 554 237 l 554 357 l 475 357 m 751 433 l 751 0 l 554 0 l 554 85 q 462 7 518 35 q 338 -20 406 -20 q 136 49 208 -20 q 64 240 64 117 q 150 436 64 373 q 416 500 236 500 l 554 500 l 554 533 q 519 606 554 581 q 416 631 484 631 q 278 613 345 631 q 139 555 212 595 l 139 725 q 273 765 205 752 q 416 778 340 778 q 676 703 602 778 q 751 433 751 627 m 325 1075 l 511 1075 l 511 908 l 325 908 l 325 1075 m 71 1239 l 750 1239 l 750 1116 l 71 1116 l 71 1239 z "},"Ǣ":{"ha":836,"x_min":0,"x_max":800,"o":"m 301 1268 l 729 1268 l 729 1141 l 301 1141 l 301 1268 m 787 1013 l 787 836 l 590 836 l 590 625 l 766 625 l 766 449 l 590 449 l 590 176 l 800 176 l 800 0 l 418 0 l 418 245 l 227 245 l 168 0 l 0 0 l 243 1013 l 787 1013 m 364 836 l 264 406 l 418 406 l 418 836 l 364 836 z "},"ǣ":{"ha":836,"x_min":9,"x_max":806,"o":"m 204 1055 l 632 1055 l 632 928 l 204 928 l 204 1055 m 332 272 l 332 328 l 282 328 q 193 301 223 328 q 163 224 163 275 q 184 150 163 176 q 248 125 206 125 q 311 154 290 125 q 332 243 332 183 l 332 272 m 653 468 l 653 484 q 636 600 653 568 q 576 632 619 632 q 517 600 534 632 q 500 484 500 568 l 500 468 l 653 468 m 806 325 l 500 325 q 534 176 500 227 q 632 125 568 125 q 713 145 673 125 q 794 204 754 165 l 794 39 q 718 -5 760 9 q 619 -20 675 -20 q 498 9 549 -20 q 419 92 448 37 q 347 7 391 35 q 236 -20 302 -20 q 68 43 127 -20 q 9 221 9 106 q 78 409 9 347 q 285 471 146 471 l 336 471 l 336 505 q 310 600 336 568 q 232 632 283 632 q 148 613 193 632 q 52 558 102 595 l 52 725 q 149 765 102 751 q 240 778 197 778 q 349 757 307 778 q 415 692 391 736 q 479 755 435 733 q 586 778 524 778 q 756 697 706 778 q 806 411 806 616 l 806 325 z "},"Ǧ":{"ha":836,"x_min":79,"x_max":766,"o":"m 395 1109 l 245 1288 l 366 1288 l 500 1178 l 635 1288 l 755 1288 l 604 1109 l 395 1109 m 591 183 l 591 376 l 454 376 l 454 545 l 766 545 l 766 81 q 639 6 709 31 q 490 -20 570 -20 q 186 117 294 -20 q 79 505 79 254 q 188 896 79 761 q 500 1031 296 1031 q 620 1014 561 1031 q 730 964 679 996 l 730 742 q 634 824 688 796 q 514 851 579 851 q 344 765 400 851 q 288 505 288 680 q 342 248 288 336 q 500 160 396 160 q 554 166 531 160 q 591 183 577 172 z "},"ǧ":{"ha":836,"x_min":66,"x_max":743,"o":"m 323 856 l 150 1111 l 271 1111 l 405 957 l 540 1111 l 661 1111 l 487 856 l 323 856 m 545 392 q 506 555 545 494 q 404 616 467 616 q 303 555 342 616 q 265 392 265 494 q 303 228 265 289 q 404 167 342 167 q 506 228 467 167 q 545 392 545 290 m 743 57 q 661 -207 743 -125 q 393 -288 578 -288 q 270 -278 331 -288 q 146 -250 209 -269 l 146 -68 q 260 -114 202 -99 q 380 -129 319 -129 q 505 -89 465 -129 q 545 35 545 -50 l 545 117 q 467 36 515 62 q 350 9 419 9 q 143 111 220 9 q 66 387 66 213 q 143 673 66 568 q 349 779 220 779 q 465 749 414 779 q 545 663 515 718 l 545 760 l 743 760 l 743 57 z "},"Ǩ":{"ha":836,"x_min":79,"x_max":831,"o":"m 313 1109 l 163 1288 l 283 1288 l 418 1178 l 553 1288 l 673 1288 l 522 1109 l 313 1109 m 79 1013 l 279 1013 l 279 612 l 593 1013 l 819 1013 l 500 614 l 831 0 l 608 0 l 368 456 l 279 343 l 279 0 l 79 0 l 79 1013 z "},"ǩ":{"ha":836,"x_min":118,"x_max":812,"o":"m 313 1109 l 163 1288 l 283 1288 l 418 1178 l 553 1288 l 673 1288 l 522 1109 l 313 1109 m 118 1055 l 317 1055 l 317 501 l 555 760 l 796 760 l 509 476 l 812 0 l 593 0 l 385 355 l 317 290 l 317 0 l 118 0 l 118 1055 z "},"Ǫ":{"ha":836,"x_min":62,"x_max":774,"o":"m 370 -10 l 466 -10 q 418 -82 431 -58 q 406 -123 406 -106 q 427 -166 406 -149 q 481 -182 448 -182 q 532 -177 507 -182 q 585 -161 558 -172 l 585 -267 q 516 -278 549 -275 q 456 -282 484 -282 q 337 -251 379 -282 q 295 -161 295 -220 q 314 -89 295 -125 q 370 -10 332 -52 m 418 851 q 306 769 341 851 q 271 505 271 688 q 306 242 271 323 q 418 160 341 160 q 530 242 495 160 q 566 505 566 323 q 530 769 566 688 q 418 851 495 851 m 62 505 q 152 898 62 765 q 418 1031 242 1031 q 684 898 594 1031 q 774 505 774 765 q 684 113 774 246 q 418 -20 594 -20 q 152 113 242 -20 q 62 505 62 246 z "},"ǫ":{"ha":836,"x_min":66,"x_max":770,"o":"m 370 -10 l 466 -10 q 418 -82 431 -58 q 406 -123 406 -106 q 427 -166 406 -149 q 481 -182 448 -182 q 532 -177 507 -182 q 585 -161 558 -172 l 585 -267 q 516 -278 549 -275 q 456 -282 484 -282 q 337 -251 379 -282 q 295 -161 295 -220 q 314 -89 295 -125 q 370 -10 332 -52 m 418 616 q 306 554 347 616 q 265 379 265 491 q 306 204 265 267 q 418 142 347 142 q 530 204 490 142 q 571 379 571 267 q 530 554 571 491 q 418 616 490 616 m 66 379 q 162 670 66 563 q 418 778 257 778 q 674 670 579 778 q 770 379 770 563 q 674 88 770 195 q 418 -20 579 -20 q 162 88 257 -20 q 66 379 66 195 z "},"Ǭ":{"ha":836,"x_min":62,"x_max":774,"o":"m 204 1268 l 632 1268 l 632 1141 l 204 1141 l 204 1268 m 370 -10 l 466 -10 q 418 -82 431 -58 q 406 -123 406 -106 q 427 -166 406 -149 q 481 -182 448 -182 q 532 -177 507 -182 q 585 -161 558 -172 l 585 -267 q 516 -278 549 -275 q 456 -282 484 -282 q 337 -251 379 -282 q 295 -161 295 -220 q 314 -89 295 -125 q 370 -10 332 -52 m 418 851 q 306 769 341 851 q 271 505 271 688 q 306 242 271 323 q 418 160 341 160 q 530 242 495 160 q 566 505 566 323 q 530 769 566 688 q 418 851 495 851 m 62 505 q 152 898 62 765 q 418 1031 242 1031 q 684 898 594 1031 q 774 505 774 765 q 684 113 774 246 q 418 -20 594 -20 q 152 113 242 -20 q 62 505 62 246 z "},"ǭ":{"ha":836,"x_min":66,"x_max":770,"o":"m 204 1055 l 632 1055 l 632 928 l 204 928 l 204 1055 m 370 -10 l 466 -10 q 418 -82 431 -58 q 406 -123 406 -106 q 427 -166 406 -149 q 481 -182 448 -182 q 532 -177 507 -182 q 585 -161 558 -172 l 585 -267 q 516 -278 549 -275 q 456 -282 484 -282 q 337 -251 379 -282 q 295 -161 295 -220 q 314 -89 295 -125 q 370 -10 332 -52 m 418 616 q 306 554 347 616 q 265 379 265 491 q 306 204 265 267 q 418 142 347 142 q 530 204 490 142 q 571 379 571 267 q 530 554 571 491 q 418 616 490 616 m 66 379 q 162 670 66 563 q 418 778 257 778 q 674 670 579 778 q 770 379 770 563 q 674 88 770 195 q 418 -20 579 -20 q 162 88 257 -20 q 66 379 66 195 z "},"Ǯ":{"ha":836,"x_min":7,"x_max":829,"o":"m 313 1109 l 163 1288 l 283 1288 l 418 1178 l 553 1288 l 673 1288 l 522 1109 l 313 1109 m 829 288 q 666 24 829 98 q 422 -19 570 -19 q 104 60 193 -19 q 7 298 7 146 l 222 298 q 288 186 222 225 q 401 159 335 159 q 589 258 561 159 q 594 298 594 277 q 442 435 594 419 q 393 438 419 438 l 220 438 l 220 586 l 472 836 l 88 836 l 88 1013 l 773 1013 l 773 847 l 501 575 q 652 553 600 569 q 774 465 725 532 q 829 288 829 390 z "},"ǯ":{"ha":836,"x_min":75,"x_max":762,"o":"m 336 856 l 163 1111 l 283 1111 l 418 957 l 553 1111 l 673 1111 l 500 856 l 336 856 m 211 307 l 475 611 l 92 611 l 92 760 l 699 760 l 699 604 l 433 296 q 585 274 532 290 q 713 175 661 252 q 762 9 762 106 q 658 -220 762 -142 q 355 -298 554 -298 q 214 -286 285 -298 q 75 -248 144 -273 l 75 -47 q 205 -102 140 -83 q 334 -121 271 -121 q 477 -85 427 -121 q 526 18 526 -49 q 475 123 526 87 q 325 159 425 159 l 211 159 l 211 307 z "},"ǰ":{"ha":836,"x_min":97,"x_max":685,"o":"m 348 859 l 174 1114 l 295 1114 l 429 960 l 564 1114 l 685 1114 l 511 859 l 348 859 m 576 29 q 515 -215 576 -142 q 311 -288 454 -288 l 97 -288 l 97 -135 l 256 -135 q 350 -98 322 -135 q 378 29 378 -60 l 378 607 l 176 607 l 176 760 l 576 760 l 576 29 z "},"Ǵ":{"ha":836,"x_min":79,"x_max":766,"o":"m 535 1288 l 728 1288 l 534 1109 l 400 1109 l 535 1288 m 591 183 l 591 376 l 454 376 l 454 545 l 766 545 l 766 81 q 639 6 709 31 q 490 -20 570 -20 q 186 117 294 -20 q 79 505 79 254 q 188 896 79 761 q 500 1031 296 1031 q 620 1014 561 1031 q 730 964 679 996 l 730 742 q 634 824 688 796 q 514 851 579 851 q 344 765 400 851 q 288 505 288 680 q 342 248 288 336 q 500 160 396 160 q 554 166 531 160 q 591 183 577 172 z "},"ǵ":{"ha":836,"x_min":66,"x_max":743,"o":"m 497 1111 l 688 1111 l 439 856 l 305 856 l 497 1111 m 545 392 q 506 555 545 494 q 404 616 467 616 q 303 555 342 616 q 265 392 265 494 q 303 228 265 289 q 404 167 342 167 q 506 228 467 167 q 545 392 545 290 m 743 57 q 661 -207 743 -125 q 393 -288 578 -288 q 270 -278 331 -288 q 146 -250 209 -269 l 146 -68 q 260 -114 202 -99 q 380 -129 319 -129 q 505 -89 465 -129 q 545 35 545 -50 l 545 117 q 467 36 515 62 q 350 9 419 9 q 143 111 220 9 q 66 387 66 213 q 143 673 66 568 q 349 779 220 779 q 465 749 414 779 q 545 663 515 718 l 545 760 l 743 760 l 743 57 z "},"Ƕ":{"ha":836,"x_min":17,"x_max":819,"o":"m 17 1013 l 187 1013 l 187 627 l 338 627 l 338 1013 l 508 1013 l 508 374 l 508 323 q 519 195 508 220 q 573 161 535 161 q 635 201 620 161 q 649 323 649 239 l 649 627 l 819 627 l 819 374 q 749 74 819 168 q 573 -20 680 -20 q 408 74 477 -20 q 338 374 338 168 l 338 450 l 187 450 l 187 0 l 17 0 l 17 1013 z "},"Ǹ":{"ha":836,"x_min":81,"x_max":754,"o":"m 385 1288 l 519 1109 l 386 1109 l 192 1288 l 385 1288 m 81 1013 l 296 1013 l 578 277 l 578 1013 l 754 1013 l 754 0 l 541 0 l 257 736 l 257 0 l 81 0 l 81 1013 z "},"ǹ":{"ha":836,"x_min":117,"x_max":726,"o":"m 324 1112 l 516 857 l 382 857 l 133 1112 l 324 1112 m 726 493 l 726 0 l 529 0 l 529 463 q 506 581 529 545 q 429 616 482 616 q 345 568 376 616 q 314 435 314 520 l 314 0 l 117 0 l 117 760 l 314 760 l 314 646 q 386 743 335 709 q 509 778 437 778 q 671 706 616 778 q 726 493 726 635 z "},"Ǽ":{"ha":836,"x_min":0,"x_max":800,"o":"m 602 1288 l 795 1288 l 601 1109 l 467 1109 l 602 1288 m 787 1013 l 787 836 l 590 836 l 590 625 l 766 625 l 766 449 l 590 449 l 590 176 l 800 176 l 800 0 l 418 0 l 418 245 l 227 245 l 168 0 l 0 0 l 243 1013 l 787 1013 m 364 836 l 264 406 l 418 406 l 418 836 l 364 836 z "},"ǽ":{"ha":836,"x_min":9,"x_max":806,"o":"m 510 1111 l 701 1111 l 452 856 l 318 856 l 510 1111 m 332 272 l 332 328 l 282 328 q 193 301 223 328 q 163 224 163 275 q 184 150 163 176 q 248 125 206 125 q 311 154 290 125 q 332 243 332 183 l 332 272 m 653 468 l 653 484 q 636 600 653 568 q 576 632 619 632 q 517 600 534 632 q 500 484 500 568 l 500 468 l 653 468 m 806 325 l 500 325 q 534 176 500 227 q 632 125 568 125 q 713 145 673 125 q 794 204 754 165 l 794 39 q 718 -5 760 9 q 619 -20 675 -20 q 498 9 549 -20 q 419 92 448 37 q 347 7 391 35 q 236 -20 302 -20 q 68 43 127 -20 q 9 221 9 106 q 78 409 9 347 q 285 471 146 471 l 336 471 l 336 505 q 310 600 336 568 q 232 632 283 632 q 148 613 193 632 q 52 558 102 595 l 52 725 q 149 765 102 751 q 240 778 197 778 q 349 757 307 778 q 415 692 391 736 q 479 755 435 733 q 586 778 524 778 q 756 697 706 778 q 806 411 806 616 l 806 325 z "},"Ǿ":{"ha":836,"x_min":-4,"x_max":828,"o":"m 306 240 q 351 181 322 201 q 418 160 380 160 q 530 242 495 160 q 566 505 566 323 q 565 545 566 524 q 562 602 564 566 l 306 240 m 524 782 q 479 834 506 817 q 418 851 453 851 q 306 770 342 851 q 271 513 271 688 l 271 427 l 524 782 m 110 196 q 74 333 86 256 q 62 505 62 410 q 152 898 62 765 q 418 1031 242 1031 q 544 1010 488 1031 q 642 947 600 989 l 718 1057 l 828 979 l 721 828 q 761 683 747 764 q 774 505 774 602 q 684 113 774 246 q 418 -20 594 -20 q 288 3 346 -20 q 187 71 231 26 l 106 -43 l -4 35 l 110 196 m 453 1288 l 646 1288 l 452 1109 l 318 1109 l 453 1288 z "},"ǿ":{"ha":836,"x_min":17,"x_max":815,"o":"m 564 458 l 328 178 q 371 151 349 159 q 419 142 393 142 q 530 205 490 142 q 571 379 571 269 q 569 418 571 399 q 564 458 568 438 m 271 304 l 505 583 q 467 608 488 600 q 419 616 446 616 q 306 554 347 616 q 265 379 265 491 q 267 338 265 356 q 271 304 268 321 m 127 135 q 82 245 97 184 q 66 379 66 305 q 162 670 66 563 q 418 778 257 778 q 525 763 475 778 q 621 718 575 749 l 721 838 l 815 755 l 707 628 q 754 514 738 576 q 770 379 770 452 q 674 88 770 195 q 418 -20 579 -20 q 310 -4 361 -20 q 214 41 259 11 l 111 -79 l 17 1 l 127 135 m 511 1112 l 703 1112 l 453 857 l 319 857 l 511 1112 z "},"Ȁ":{"ha":836,"x_min":22,"x_max":814,"o":"m 418 829 l 323 415 l 513 415 l 418 829 m 296 1013 l 541 1013 l 814 0 l 614 0 l 551 250 l 283 250 l 222 0 l 22 0 l 296 1013 m 268 1288 l 403 1109 l 269 1109 l 75 1288 l 268 1288 m 522 1288 l 657 1109 l 524 1109 l 330 1288 l 522 1288 z "},"ȁ":{"ha":836,"x_min":64,"x_max":751,"o":"m 475 357 q 319 328 363 357 q 275 231 275 300 q 306 149 275 179 q 389 118 336 118 q 511 177 467 118 q 554 343 554 237 l 554 357 l 475 357 m 751 433 l 751 0 l 554 0 l 554 85 q 462 7 518 35 q 338 -20 406 -20 q 136 49 208 -20 q 64 240 64 117 q 150 436 64 373 q 416 500 236 500 l 554 500 l 554 533 q 519 606 554 581 q 416 631 484 631 q 278 613 345 631 q 139 555 212 595 l 139 725 q 273 765 205 752 q 416 778 340 778 q 676 703 602 778 q 751 433 751 627 m 499 1111 l 631 856 l 520 856 l 352 1111 l 499 1111 m 253 1111 l 399 856 l 281 856 l 96 1111 l 253 1111 z "},"Ȃ":{"ha":836,"x_min":22,"x_max":814,"o":"m 418 829 l 323 415 l 513 415 l 418 829 m 296 1013 l 541 1013 l 814 0 l 614 0 l 551 250 l 283 250 l 222 0 l 22 0 l 296 1013 m 191 1109 q 259 1242 201 1196 q 418 1288 318 1288 q 577 1242 518 1288 q 646 1109 635 1196 l 549 1109 q 503 1171 535 1150 q 418 1191 470 1191 q 333 1170 366 1191 q 286 1109 300 1149 l 191 1109 l 191 1109 z "},"ȃ":{"ha":836,"x_min":64,"x_max":751,"o":"m 475 357 q 319 328 363 357 q 275 231 275 300 q 306 149 275 179 q 389 118 336 118 q 511 177 467 118 q 554 343 554 237 l 554 357 l 475 357 m 751 433 l 751 0 l 554 0 l 554 85 q 462 7 518 35 q 338 -20 406 -20 q 136 49 208 -20 q 64 240 64 117 q 150 436 64 373 q 416 500 236 500 l 554 500 l 554 533 q 519 606 554 581 q 416 631 484 631 q 278 613 345 631 q 139 555 212 595 l 139 725 q 273 765 205 752 q 416 778 340 778 q 676 703 602 778 q 751 433 751 627 m 191 888 q 253 1037 195 985 q 418 1089 312 1089 q 583 1037 524 1089 q 646 888 642 985 l 549 888 q 508 960 541 935 q 418 985 474 985 q 328 960 361 985 q 286 888 294 935 l 191 888 z "},"Ȅ":{"ha":836,"x_min":75,"x_max":745,"o":"m 745 0 l 114 0 l 114 1013 l 745 1013 l 745 836 l 314 836 l 314 618 l 704 618 l 704 441 l 314 441 l 314 176 l 745 176 l 745 0 m 268 1288 l 403 1109 l 269 1109 l 75 1288 l 268 1288 m 522 1288 l 657 1109 l 524 1109 l 330 1288 l 522 1288 z "},"ȅ":{"ha":836,"x_min":62,"x_max":779,"o":"m 747 37 q 606 -5 678 9 q 454 -20 534 -20 q 163 82 264 -20 q 62 376 62 184 q 159 670 62 562 q 424 778 256 778 q 686 678 593 778 q 779 396 779 578 l 779 315 l 264 315 q 317 182 265 226 q 473 138 370 138 q 608 157 542 138 q 747 220 675 177 l 747 37 m 579 465 q 539 584 578 543 q 424 624 500 624 q 315 582 355 624 q 267 464 274 541 l 579 465 m 526 1111 l 657 856 l 547 856 l 378 1111 l 526 1111 m 279 1111 l 425 856 l 307 856 l 123 1111 l 279 1111 z "},"Ȇ":{"ha":836,"x_min":114,"x_max":745,"o":"m 745 0 l 114 0 l 114 1013 l 745 1013 l 745 836 l 314 836 l 314 618 l 704 618 l 704 441 l 314 441 l 314 176 l 745 176 l 745 0 m 191 1109 q 259 1242 201 1196 q 418 1288 318 1288 q 577 1242 518 1288 q 646 1109 635 1196 l 549 1109 q 503 1171 535 1150 q 418 1191 470 1191 q 333 1170 366 1191 q 286 1109 300 1149 l 191 1109 l 191 1109 z "},"ȇ":{"ha":836,"x_min":62,"x_max":779,"o":"m 747 37 q 606 -5 678 9 q 454 -20 534 -20 q 163 82 264 -20 q 62 376 62 184 q 159 670 62 562 q 424 778 256 778 q 686 678 593 778 q 779 396 779 578 l 779 315 l 264 315 q 317 182 265 226 q 473 138 370 138 q 608 157 542 138 q 747 220 675 177 l 747 37 m 579 465 q 539 584 578 543 q 424 624 500 624 q 315 582 355 624 q 267 464 274 541 l 579 465 m 217 888 q 280 1037 221 985 q 444 1089 338 1089 q 609 1037 551 1089 q 672 888 668 985 l 575 888 q 534 960 568 935 q 444 985 500 985 q 354 960 388 985 q 313 888 320 935 l 217 888 z "},"Ȉ":{"ha":836,"x_min":75,"x_max":720,"o":"m 117 836 l 117 1013 l 720 1013 l 720 836 l 518 836 l 518 176 l 720 176 l 720 0 l 117 0 l 117 176 l 318 176 l 318 836 l 117 836 m 268 1288 l 403 1109 l 269 1109 l 75 1288 l 268 1288 m 522 1288 l 657 1109 l 524 1109 l 330 1288 l 522 1288 z "},"ȉ":{"ha":836,"x_min":96,"x_max":790,"o":"m 150 760 l 543 760 l 543 153 l 790 153 l 790 0 l 97 0 l 97 153 l 345 153 l 345 607 l 150 607 l 150 760 m 499 1111 l 631 856 l 520 856 l 352 1111 l 499 1111 m 253 1111 l 399 856 l 281 856 l 96 1111 l 253 1111 z "},"Ȋ":{"ha":836,"x_min":117,"x_max":720,"o":"m 117 836 l 117 1013 l 720 1013 l 720 836 l 518 836 l 518 176 l 720 176 l 720 0 l 117 0 l 117 176 l 318 176 l 318 836 l 117 836 m 191 1109 q 259 1242 201 1196 q 418 1288 318 1288 q 577 1242 518 1288 q 646 1109 635 1196 l 549 1109 q 503 1171 535 1150 q 418 1191 470 1191 q 333 1170 366 1191 q 286 1109 300 1149 l 191 1109 l 191 1109 z "},"ȋ":{"ha":836,"x_min":97,"x_max":790,"o":"m 150 760 l 543 760 l 543 153 l 790 153 l 790 0 l 97 0 l 97 153 l 345 153 l 345 607 l 150 607 l 150 760 m 191 888 q 253 1037 195 985 q 418 1089 312 1089 q 583 1037 524 1089 q 646 888 642 985 l 549 888 q 508 960 541 935 q 418 985 474 985 q 328 960 361 985 q 286 888 294 935 l 191 888 z "},"Ȍ":{"ha":836,"x_min":62,"x_max":774,"o":"m 418 851 q 306 769 341 851 q 271 505 271 688 q 306 242 271 323 q 418 160 341 160 q 530 242 495 160 q 566 505 566 323 q 530 769 566 688 q 418 851 495 851 m 62 505 q 152 898 62 765 q 418 1031 242 1031 q 684 898 594 1031 q 774 505 774 765 q 684 113 774 246 q 418 -20 594 -20 q 152 113 242 -20 q 62 505 62 246 m 268 1288 l 403 1109 l 269 1109 l 75 1288 l 268 1288 m 522 1288 l 657 1109 l 524 1109 l 330 1288 l 522 1288 z "},"ȍ":{"ha":836,"x_min":66,"x_max":770,"o":"m 418 616 q 306 554 347 616 q 265 379 265 491 q 306 204 265 267 q 418 142 347 142 q 530 204 490 142 q 571 379 571 267 q 530 554 571 491 q 418 616 490 616 m 66 379 q 162 670 66 563 q 418 778 257 778 q 674 670 579 778 q 770 379 770 563 q 674 88 770 195 q 418 -20 579 -20 q 162 88 257 -20 q 66 379 66 195 m 499 1111 l 631 856 l 520 856 l 352 1111 l 499 1111 m 253 1111 l 399 856 l 281 856 l 96 1111 l 253 1111 z "},"Ȏ":{"ha":836,"x_min":62,"x_max":774,"o":"m 418 851 q 306 769 341 851 q 271 505 271 688 q 306 242 271 323 q 418 160 341 160 q 530 242 495 160 q 566 505 566 323 q 530 769 566 688 q 418 851 495 851 m 62 505 q 152 898 62 765 q 418 1031 242 1031 q 684 898 594 1031 q 774 505 774 765 q 684 113 774 246 q 418 -20 594 -20 q 152 113 242 -20 q 62 505 62 246 m 191 1109 q 259 1242 201 1196 q 418 1288 318 1288 q 577 1242 518 1288 q 646 1109 635 1196 l 549 1109 q 503 1171 535 1150 q 418 1191 470 1191 q 333 1170 366 1191 q 286 1109 300 1149 l 191 1109 l 191 1109 z "},"ȏ":{"ha":836,"x_min":66,"x_max":770,"o":"m 418 616 q 306 554 347 616 q 265 379 265 491 q 306 204 265 267 q 418 142 347 142 q 530 204 490 142 q 571 379 571 267 q 530 554 571 491 q 418 616 490 616 m 66 379 q 162 670 66 563 q 418 778 257 778 q 674 670 579 778 q 770 379 770 563 q 674 88 770 195 q 418 -20 579 -20 q 162 88 257 -20 q 66 379 66 195 m 191 888 q 253 1037 195 985 q 418 1089 312 1089 q 583 1037 524 1089 q 646 888 642 985 l 549 888 q 508 960 541 935 q 418 985 474 985 q 328 960 361 985 q 286 888 294 935 l 191 888 z "},"Ȑ":{"ha":836,"x_min":42,"x_max":836,"o":"m 547 478 q 599 450 577 472 q 653 364 621 428 l 836 0 l 616 0 l 494 256 q 480 286 489 267 q 354 400 427 400 l 290 400 l 290 0 l 90 0 l 90 1013 l 379 1013 q 660 943 574 1013 q 745 718 745 874 q 694 552 745 614 q 547 478 643 490 m 290 844 l 290 568 l 385 568 q 502 601 467 568 q 538 707 538 633 q 503 812 538 781 q 385 844 467 844 l 290 844 m 235 1288 l 370 1109 l 236 1109 l 42 1288 l 235 1288 m 489 1288 l 624 1109 l 490 1109 l 296 1288 l 489 1288 z "},"ȑ":{"ha":836,"x_min":164,"x_max":781,"o":"m 781 550 q 704 595 748 580 q 608 610 661 610 q 498 588 545 610 q 425 524 451 566 q 402 461 409 498 q 396 350 396 425 l 396 0 l 197 0 l 197 760 l 396 760 l 396 642 q 486 742 425 707 q 627 778 546 778 q 706 768 667 778 q 781 739 745 758 l 781 550 m 567 1111 l 699 856 l 588 856 l 420 1111 l 567 1111 m 321 1111 l 467 856 l 349 856 l 164 1111 l 321 1111 z "},"Ȓ":{"ha":836,"x_min":90,"x_max":836,"o":"m 547 478 q 599 450 577 472 q 653 364 621 428 l 836 0 l 616 0 l 494 256 q 480 286 489 267 q 354 400 427 400 l 290 400 l 290 0 l 90 0 l 90 1013 l 379 1013 q 660 943 574 1013 q 745 718 745 874 q 694 552 745 614 q 547 478 643 490 m 290 844 l 290 568 l 385 568 q 502 601 467 568 q 538 707 538 633 q 503 812 538 781 q 385 844 467 844 l 290 844 m 157 1109 q 226 1242 168 1196 q 385 1288 285 1288 q 544 1242 485 1288 q 612 1109 602 1196 l 515 1109 q 469 1171 502 1150 q 385 1191 437 1191 q 300 1170 333 1191 q 253 1109 267 1149 l 157 1109 l 157 1109 z "},"ȓ":{"ha":836,"x_min":197,"x_max":781,"o":"m 781 550 q 704 595 748 580 q 608 610 661 610 q 498 588 545 610 q 425 524 451 566 q 402 461 409 498 q 396 350 396 425 l 396 0 l 197 0 l 197 760 l 396 760 l 396 642 q 486 742 425 707 q 627 778 546 778 q 706 768 667 778 q 781 739 745 758 l 781 550 m 258 888 q 321 1037 262 985 q 486 1089 380 1089 q 651 1037 592 1089 q 713 888 709 985 l 616 888 q 575 960 609 935 q 486 985 542 985 q 395 960 429 985 q 354 888 361 935 l 258 888 z "},"Ȕ":{"ha":836,"x_min":72,"x_max":764,"o":"m 72 374 l 72 1013 l 272 1013 l 272 323 q 311 204 272 248 q 418 161 349 161 q 525 204 486 161 q 564 323 564 248 l 564 1013 l 764 1013 l 764 374 q 682 74 764 168 q 418 -20 600 -20 q 154 74 237 -20 q 72 374 72 168 m 268 1288 l 403 1109 l 269 1109 l 75 1288 l 268 1288 m 522 1288 l 657 1109 l 524 1109 l 330 1288 l 522 1288 z "},"ȕ":{"ha":836,"x_min":96,"x_max":720,"o":"m 109 265 l 109 760 l 307 760 l 307 296 q 330 178 307 214 q 407 143 353 143 q 491 191 460 143 q 521 323 521 238 l 521 760 l 720 760 l 720 0 l 521 0 l 521 113 q 449 15 500 50 q 328 -20 399 -20 q 164 52 219 -20 q 109 265 109 124 m 499 1111 l 631 856 l 520 856 l 352 1111 l 499 1111 m 253 1111 l 399 856 l 281 856 l 96 1111 l 253 1111 z "},"Ȗ":{"ha":836,"x_min":72,"x_max":764,"o":"m 72 374 l 72 1013 l 272 1013 l 272 323 q 311 204 272 248 q 418 161 349 161 q 525 204 486 161 q 564 323 564 248 l 564 1013 l 764 1013 l 764 374 q 682 74 764 168 q 418 -20 600 -20 q 154 74 237 -20 q 72 374 72 168 m 191 1109 q 259 1242 201 1196 q 418 1288 318 1288 q 577 1242 518 1288 q 646 1109 635 1196 l 549 1109 q 503 1171 535 1150 q 418 1191 470 1191 q 333 1170 366 1191 q 286 1109 300 1149 l 191 1109 l 191 1109 z "},"ȗ":{"ha":836,"x_min":109,"x_max":720,"o":"m 109 265 l 109 760 l 307 760 l 307 296 q 330 178 307 214 q 407 143 353 143 q 491 191 460 143 q 521 323 521 238 l 521 760 l 720 760 l 720 0 l 521 0 l 521 113 q 449 15 500 50 q 328 -20 399 -20 q 164 52 219 -20 q 109 265 109 124 m 191 888 q 253 1037 195 985 q 418 1089 312 1089 q 583 1037 524 1089 q 646 888 642 985 l 549 888 q 508 960 541 935 q 418 985 474 985 q 328 960 361 985 q 286 888 294 935 l 191 888 z "},"Ș":{"ha":836,"x_min":87,"x_max":753,"o":"m 313 -134 l 504 -134 l 384 -342 l 252 -342 l 313 -134 m 346 444 q 141 565 195 502 q 87 736 87 629 q 176 952 87 873 q 418 1031 264 1031 q 557 1015 488 1031 q 696 968 627 999 l 696 772 q 565 842 631 818 q 433 865 498 865 q 322 836 361 865 q 283 753 283 807 q 312 683 283 711 q 429 623 340 656 l 515 590 q 695 471 637 545 q 753 285 753 397 q 662 56 753 132 q 389 -20 572 -20 q 238 -2 313 -20 q 92 52 162 16 l 92 258 q 247 174 172 201 q 395 146 321 146 q 509 179 469 146 q 550 273 550 213 q 523 353 550 319 q 444 407 496 387 l 346 444 z "},"ș":{"ha":836,"x_min":117,"x_max":724,"o":"m 313 -134 l 504 -134 l 384 -342 l 252 -342 l 313 -134 m 672 736 l 672 562 q 558 615 617 597 q 439 633 498 633 q 338 614 372 633 q 304 557 304 595 q 450 469 304 503 l 457 467 l 514 453 q 673 370 623 427 q 724 215 724 313 q 647 39 724 98 q 415 -20 570 -20 q 275 -8 347 -20 q 129 28 203 4 l 129 201 q 263 144 195 164 q 395 125 331 125 q 500 145 465 125 q 536 204 536 165 q 511 262 536 242 q 390 306 486 283 l 335 318 q 169 399 221 344 q 117 546 117 454 q 196 717 117 656 q 419 778 275 778 q 548 767 484 778 q 672 736 612 757 z "},"Ț":{"ha":836,"x_min":61,"x_max":775,"o":"m 313 -134 l 504 -134 l 384 -342 l 252 -342 l 313 -134 m 518 0 l 318 0 l 318 838 l 61 838 l 61 1013 l 775 1013 l 775 838 l 518 838 l 518 0 z "},"ț":{"ha":836,"x_min":75,"x_max":728,"o":"m 382 -134 l 574 -134 l 454 -342 l 322 -342 l 382 -134 m 468 975 l 468 760 l 728 760 l 728 607 l 468 607 l 468 248 q 493 175 468 197 q 575 153 517 153 l 728 153 l 728 0 l 561 0 q 330 55 390 0 q 269 257 269 109 l 269 607 l 75 607 l 75 760 l 269 760 l 269 975 l 468 975 z "},"Ȝ":{"ha":836,"x_min":37,"x_max":800,"o":"m 584 457 q 742 363 685 433 q 800 211 800 293 q 770 81 800 140 q 683 -27 740 22 q 531 -122 626 -77 q 318 -208 437 -168 q 37 -292 200 -248 l 37 -100 q 79 -90 53 -96 q 153 -67 104 -83 q 249 -34 202 -52 q 349 11 296 -16 q 439 65 401 37 q 503 130 477 94 q 528 203 528 166 q 505 278 528 247 q 449 324 481 310 q 382 338 416 338 q 300 321 344 338 l 154 263 l 154 435 l 313 500 q 408 549 368 522 q 468 598 448 576 q 499 647 488 621 q 512 689 510 673 q 514 723 514 704 q 497 786 514 760 q 453 826 480 813 q 398 846 425 840 q 344 852 371 852 q 80 746 239 852 l 80 920 q 402 1031 243 1031 q 548 1012 482 1031 q 655 963 614 993 q 725 895 696 933 q 764 821 753 857 q 776 751 776 785 q 584 457 776 557 z "},"ȝ":{"ha":836,"x_min":75,"x_max":762,"o":"m 568 313 q 666 273 625 298 q 726 219 707 248 q 753 164 745 190 q 762 113 762 139 q 75 -294 762 -163 l 75 -138 q 113 -130 90 -135 q 181 -112 136 -124 q 267 -84 225 -99 q 356 -48 309 -70 q 437 -4 403 -27 q 495 48 472 19 q 517 108 517 77 q 477 187 517 158 q 385 216 436 216 q 312 203 350 216 l 180 156 l 180 296 l 323 348 q 410 389 374 366 q 464 429 446 411 q 492 469 482 447 q 503 502 502 490 q 505 528 505 513 q 489 580 505 558 q 449 612 473 602 q 400 628 424 623 q 351 633 376 633 q 114 547 257 633 l 114 688 q 420 778 253 778 q 546 764 490 778 q 637 727 602 749 q 696 673 673 704 q 730 612 720 643 q 740 548 740 581 q 690 410 740 471 q 568 313 641 348 z "},"Ȟ":{"ha":836,"x_min":93,"x_max":743,"o":"m 313 1109 l 163 1288 l 283 1288 l 418 1178 l 553 1288 l 673 1288 l 522 1109 l 313 1109 m 93 1013 l 293 1013 l 293 627 l 543 627 l 543 1013 l 743 1013 l 743 0 l 543 0 l 543 450 l 293 450 l 293 0 l 93 0 l 93 1013 z "},"ȟ":{"ha":836,"x_min":117,"x_max":726,"o":"m 313 1109 l 163 1288 l 283 1288 l 418 1178 l 553 1288 l 673 1288 l 522 1109 l 313 1109 m 726 493 l 726 0 l 529 0 l 529 463 q 506 580 529 545 q 429 615 482 615 q 345 567 375 615 q 314 435 314 519 l 314 0 l 117 0 l 117 1055 l 314 1055 l 314 646 q 386 743 335 709 q 509 778 437 778 q 671 706 616 778 q 726 493 726 635 z "},"Ƞ":{"ha":836,"x_min":72,"x_max":763,"o":"m 763 639 l 763 -289 l 564 -289 l 564 688 q 532 813 564 776 q 428 851 500 851 q 314 800 354 851 q 272 659 272 747 l 272 0 l 72 0 l 72 1013 l 272 1013 l 272 850 q 358 984 297 937 q 504 1032 418 1032 q 697 933 632 1032 q 763 639 763 835 z "},"ȡ":{"ha":836,"x_min":5,"x_max":832,"o":"m 650 146 q 683 143 652 142 q 753 188 753 143 q 725 233 753 233 q 650 146 690 233 m 582 240 q 726 399 642 399 q 831 236 830 399 q 666 -20 832 -20 q 585 -13 587 -20 l 555 -95 l 458 -95 q 495 19 479 -29 q 408 120 449 38 q 363 22 387 47 q 269 -20 321 -20 q 77 85 149 -20 q 5 379 5 189 q 78 675 5 572 q 274 778 151 778 q 347 746 315 778 q 384 697 367 728 l 384 1055 l 582 1055 l 582 240 m 227 550 q 216 519 227 550 q 204 378 204 488 q 227 205 204 268 q 291 143 250 143 q 355 205 332 143 q 378 378 378 268 q 355 550 378 488 q 291 612 332 612 q 227 550 250 612 z "},"Ȥ":{"ha":836,"x_min":78,"x_max":787,"o":"m 93 1013 l 778 1013 l 778 847 l 309 176 l 787 176 l 787 0 l 787 0 q 726 -214 782 -146 q 522 -288 665 -288 l 440 -288 l 440 -135 l 467 -135 q 562 -98 533 -135 q 589 0 585 -68 l 78 0 l 78 165 l 533 836 l 93 836 l 93 1013 z "},"ȥ":{"ha":836,"x_min":110,"x_max":733,"o":"m 126 760 l 733 760 l 733 604 l 334 149 l 733 149 l 733 0 l 732 0 q 671 -214 728 -146 q 468 -288 610 -288 l 386 -288 l 386 -135 l 412 -135 q 508 -98 479 -135 q 535 0 531 -68 l 110 0 l 110 155 l 510 611 l 126 611 l 126 760 z "},"Ȧ":{"ha":836,"x_min":22,"x_max":814,"o":"m 418 829 l 323 415 l 513 415 l 418 829 m 296 1013 l 541 1013 l 814 0 l 614 0 l 551 250 l 283 250 l 222 0 l 22 0 l 296 1013 m 325 1288 l 511 1288 l 511 1121 l 325 1121 l 325 1288 z "},"ȧ":{"ha":836,"x_min":64,"x_max":751,"o":"m 475 357 q 319 328 363 357 q 275 231 275 300 q 306 149 275 179 q 389 118 336 118 q 511 177 467 118 q 554 343 554 237 l 554 357 l 475 357 m 751 433 l 751 0 l 554 0 l 554 85 q 462 7 518 35 q 338 -20 406 -20 q 136 49 208 -20 q 64 240 64 117 q 150 436 64 373 q 416 500 236 500 l 554 500 l 554 533 q 519 606 554 581 q 416 631 484 631 q 278 613 345 631 q 139 555 212 595 l 139 725 q 273 765 205 752 q 416 778 340 778 q 676 703 602 778 q 751 433 751 627 m 325 1075 l 511 1075 l 511 908 l 325 908 l 325 1075 z "},"Ȩ":{"ha":836,"x_min":114,"x_max":745,"o":"m 745 0 l 114 0 l 114 1013 l 745 1013 l 745 836 l 314 836 l 314 618 l 704 618 l 704 441 l 314 441 l 314 176 l 745 176 l 745 0 m 513 0 q 571 -78 552 -42 q 589 -146 589 -114 q 548 -241 589 -210 q 420 -272 506 -272 q 353 -268 387 -272 q 283 -254 319 -263 l 283 -149 q 342 -166 313 -160 q 395 -172 370 -172 q 456 -157 434 -172 q 478 -114 478 -141 q 464 -68 478 -96 q 418 0 450 -41 l 513 0 z "},"ȩ":{"ha":836,"x_min":62,"x_max":779,"o":"m 747 37 q 606 -5 678 9 q 454 -20 534 -20 q 163 82 264 -20 q 62 376 62 184 q 159 670 62 562 q 424 778 256 778 q 686 678 593 778 q 779 396 779 578 l 779 315 l 264 315 q 317 182 265 226 q 473 138 370 138 q 608 157 542 138 q 747 220 675 177 l 747 37 m 579 465 q 539 584 578 543 q 424 624 500 624 q 315 582 355 624 q 267 464 274 541 l 579 465 m 513 0 q 571 -78 552 -42 q 589 -146 589 -114 q 548 -241 589 -210 q 420 -272 506 -272 q 353 -268 387 -272 q 283 -254 319 -263 l 283 -149 q 342 -166 313 -160 q 395 -172 370 -172 q 456 -157 434 -172 q 478 -114 478 -141 q 464 -68 478 -96 q 418 0 450 -41 l 513 0 z "},"Ȫ":{"ha":836,"x_min":62,"x_max":774,"o":"m 472 1223 l 632 1223 l 632 1056 l 472 1056 l 472 1223 m 204 1223 l 364 1223 l 364 1056 l 204 1056 l 204 1223 m 204 1368 l 632 1368 l 632 1240 l 204 1240 l 204 1368 m 418 851 q 306 769 341 851 q 271 505 271 688 q 306 242 271 323 q 418 160 341 160 q 530 242 495 160 q 566 505 566 323 q 530 769 566 688 q 418 851 495 851 m 62 505 q 152 898 62 765 q 418 1031 242 1031 q 684 898 594 1031 q 774 505 774 765 q 684 113 774 246 q 418 -20 594 -20 q 152 113 242 -20 q 62 505 62 246 z "},"ȫ":{"ha":836,"x_min":66,"x_max":770,"o":"m 71 1239 l 750 1239 l 750 1116 l 71 1116 l 71 1239 m 472 1059 l 632 1059 l 632 892 l 472 892 l 472 1059 m 204 1059 l 364 1059 l 364 892 l 204 892 l 204 1059 m 418 616 q 306 554 347 616 q 265 379 265 491 q 306 204 265 267 q 418 142 347 142 q 530 204 490 142 q 571 379 571 267 q 530 554 571 491 q 418 616 490 616 m 66 379 q 162 670 66 563 q 418 778 257 778 q 674 670 579 778 q 770 379 770 563 q 674 88 770 195 q 418 -20 579 -20 q 162 88 257 -20 q 66 379 66 195 z "},"Ȭ":{"ha":836,"x_min":62,"x_max":774,"o":"m 418 851 q 306 769 341 851 q 271 505 271 688 q 306 242 271 323 q 418 160 341 160 q 530 242 495 160 q 566 505 566 323 q 530 769 566 688 q 418 851 495 851 m 62 505 q 152 898 62 765 q 418 1031 242 1031 q 684 898 594 1031 q 774 505 774 765 q 684 113 774 246 q 418 -20 594 -20 q 152 113 242 -20 q 62 505 62 246 m 419 1077 l 382 1100 q 374 1105 379 1102 q 325 1122 344 1122 q 290 1102 304 1122 q 277 1048 277 1082 l 277 1044 l 182 1044 l 182 1064 q 219 1180 182 1136 q 315 1224 256 1224 q 365 1216 340 1224 q 416 1191 391 1207 l 457 1164 q 485 1150 471 1155 q 509 1145 498 1145 q 546 1165 533 1145 q 559 1224 559 1185 l 654 1224 q 654 1214 654 1221 q 653 1203 653 1207 q 617 1087 653 1131 q 521 1044 581 1044 q 472 1051 496 1044 q 419 1077 448 1059 m 204 1368 l 632 1368 l 632 1240 l 204 1240 l 204 1368 z "},"ȭ":{"ha":836,"x_min":66,"x_max":770,"o":"m 71 1239 l 750 1239 l 750 1116 l 71 1116 l 71 1239 m 419 903 l 382 928 q 374 934 380 930 q 326 954 345 954 q 289 932 302 954 q 277 871 277 911 l 277 866 l 182 866 q 217 1008 182 958 q 315 1059 252 1059 q 364 1049 340 1059 q 416 1020 389 1040 l 458 991 q 485 975 473 981 q 509 970 498 970 q 546 991 533 970 q 559 1052 559 1013 l 559 1057 l 654 1057 q 620 915 654 965 q 521 865 585 865 q 474 873 496 865 q 419 903 452 881 m 418 616 q 306 554 347 616 q 265 379 265 491 q 306 204 265 267 q 418 142 347 142 q 530 204 490 142 q 571 379 571 267 q 530 554 571 491 q 418 616 490 616 m 66 379 q 162 670 66 563 q 418 778 257 778 q 674 670 579 778 q 770 379 770 563 q 674 88 770 195 q 418 -20 579 -20 q 162 88 257 -20 q 66 379 66 195 z "},"Ȯ":{"ha":836,"x_min":62,"x_max":774,"o":"m 418 851 q 306 769 341 851 q 271 505 271 688 q 306 242 271 323 q 418 160 341 160 q 530 242 495 160 q 566 505 566 323 q 530 769 566 688 q 418 851 495 851 m 62 505 q 152 898 62 765 q 418 1031 242 1031 q 684 898 594 1031 q 774 505 774 765 q 684 113 774 246 q 418 -20 594 -20 q 152 113 242 -20 q 62 505 62 246 m 325 1288 l 511 1288 l 511 1121 l 325 1121 l 325 1288 z "},"ȯ":{"ha":836,"x_min":66,"x_max":770,"o":"m 418 616 q 306 554 347 616 q 265 379 265 491 q 306 204 265 267 q 418 142 347 142 q 530 204 490 142 q 571 379 571 267 q 530 554 571 491 q 418 616 490 616 m 66 379 q 162 670 66 563 q 418 778 257 778 q 674 670 579 778 q 770 379 770 563 q 674 88 770 195 q 418 -20 579 -20 q 162 88 257 -20 q 66 379 66 195 m 325 1075 l 511 1075 l 511 908 l 325 908 l 325 1075 z "},"Ȱ":{"ha":836,"x_min":62,"x_max":774,"o":"m 325 1223 l 511 1223 l 511 1057 l 325 1057 l 325 1223 m 204 1368 l 632 1368 l 632 1240 l 204 1240 l 204 1368 m 418 851 q 306 769 341 851 q 271 505 271 688 q 306 242 271 323 q 418 160 341 160 q 530 242 495 160 q 566 505 566 323 q 530 769 566 688 q 418 851 495 851 m 62 505 q 152 898 62 765 q 418 1031 242 1031 q 684 898 594 1031 q 774 505 774 765 q 684 113 774 246 q 418 -20 594 -20 q 152 113 242 -20 q 62 505 62 246 z "},"ȱ":{"ha":836,"x_min":66,"x_max":770,"o":"m 71 1239 l 750 1239 l 750 1116 l 71 1116 l 71 1239 m 418 616 q 306 554 347 616 q 265 379 265 491 q 306 204 265 267 q 418 142 347 142 q 530 204 490 142 q 571 379 571 267 q 530 554 571 491 q 418 616 490 616 m 66 379 q 162 670 66 563 q 418 778 257 778 q 674 670 579 778 q 770 379 770 563 q 674 88 770 195 q 418 -20 579 -20 q 162 88 257 -20 q 66 379 66 195 m 325 1075 l 511 1075 l 511 908 l 325 908 l 325 1075 z "},"Ȳ":{"ha":836,"x_min":5,"x_max":831,"o":"m 204 1268 l 632 1268 l 632 1141 l 204 1141 l 204 1268 m 5 1013 l 221 1013 l 418 606 l 615 1013 l 831 1013 l 518 399 l 518 0 l 318 0 l 318 399 l 5 1013 z "},"ȳ":{"ha":836,"x_min":40,"x_max":798,"o":"m 204 1055 l 632 1055 l 632 928 l 204 928 l 204 1055 m 482 -82 q 386 -238 442 -189 q 250 -288 330 -288 l 86 -288 l 86 -136 l 167 -136 q 256 -116 228 -136 q 314 -20 285 -95 l 329 21 l 40 760 l 249 760 l 422 267 l 589 760 l 798 760 l 482 -82 z "},"ȴ":{"ha":836,"x_min":33,"x_max":804,"o":"m 622 146 q 655 143 625 142 q 726 188 726 143 q 697 233 726 233 q 622 146 662 233 m 509 136 l 554 240 q 698 399 614 399 q 803 236 802 399 q 638 -20 804 -20 q 557 -13 559 -20 l 528 -95 l 430 -95 q 453 -17 437 -62 q 296 54 347 -6 q 235 297 235 127 l 235 903 l 33 903 l 33 1055 l 433 1055 l 433 297 q 461 170 433 208 q 509 136 481 144 z "},"ȵ":{"ha":836,"x_min":25,"x_max":812,"o":"m 666 146 q 693 143 669 142 q 749 188 749 143 q 726 233 749 233 q 666 146 699 233 m 587 168 l 612 240 q 727 399 659 399 q 811 236 810 399 q 679 -20 812 -20 q 614 -13 616 -20 l 591 -95 l 512 -95 q 531 -17 518 -62 q 406 54 446 -6 q 356 297 356 127 l 356 463 q 344 581 356 551 q 310 616 328 616 q 246 568 267 616 q 222 435 222 513 l 222 0 l 25 0 l 25 760 l 222 760 l 222 686 q 254 743 233 721 q 343 778 286 778 q 491 706 429 778 q 553 493 553 635 l 553 297 q 587 168 553 183 z "},"ȶ":{"ha":836,"x_min":75,"x_max":728,"o":"m 579 146 q 606 143 581 142 q 662 188 662 143 q 640 233 662 233 q 579 146 611 233 m 467 297 q 500 168 466 183 l 525 240 q 640 399 572 399 q 724 236 723 399 q 592 -20 725 -20 q 527 -13 528 -20 l 504 -95 l 425 -95 q 444 -17 431 -62 q 319 54 359 -6 q 269 297 269 127 l 269 607 l 75 607 l 75 760 l 269 760 l 269 975 l 468 975 l 468 760 l 728 760 l 728 607 l 468 607 l 467 297 z "},"ȷ":{"ha":836,"x_min":97,"x_max":576,"o":"m 576 29 q 515 -215 576 -142 q 311 -288 454 -288 l 97 -288 l 97 -135 l 256 -135 q 350 -98 322 -135 q 378 29 378 -60 l 378 607 l 176 607 l 176 760 l 576 760 l 576 29 z "},"ȸ":{"ha":836,"x_min":16,"x_max":820,"o":"m 181 550 q 168 519 181 550 q 155 378 155 488 q 181 205 155 268 q 251 143 206 143 q 322 205 296 143 q 349 378 349 268 q 322 550 349 488 q 251 612 296 612 q 181 550 206 612 m 655 205 q 668 237 655 205 q 681 378 681 268 q 655 550 681 488 q 585 612 630 612 q 514 550 540 612 q 488 378 488 488 q 514 205 488 268 q 585 143 540 143 q 655 205 630 143 m 488 652 q 547 746 513 715 q 624 778 581 778 q 769 675 718 778 q 820 379 820 572 q 770 85 820 189 q 629 -20 720 -20 q 545 14 581 -20 q 488 113 509 47 l 488 0 l 349 0 l 349 113 q 291 14 326 47 q 208 -20 256 -20 q 66 85 117 -20 q 16 379 16 189 q 67 675 16 572 q 212 778 118 778 q 289 746 255 778 q 349 652 323 715 l 349 1055 l 488 1055 l 488 652 z "},"ȹ":{"ha":836,"x_min":16,"x_max":820,"o":"m 655 208 q 668 239 655 208 q 681 380 681 271 q 655 553 681 490 q 585 615 630 615 q 514 553 540 615 q 488 380 488 490 q 514 208 488 271 q 585 146 540 146 q 655 208 630 146 m 181 553 q 168 522 181 553 q 155 380 155 490 q 181 208 155 271 q 251 146 206 146 q 322 208 296 146 q 349 380 349 271 q 322 553 349 490 q 251 615 296 615 q 181 553 206 615 m 349 106 q 289 12 323 43 q 212 -20 255 -20 q 67 83 118 -20 q 16 379 16 186 q 66 673 16 569 q 208 778 117 778 q 291 745 256 778 q 349 646 327 711 l 349 758 l 488 758 l 488 646 q 545 745 510 711 q 629 778 581 778 q 770 673 720 778 q 820 379 820 569 q 769 83 820 186 q 624 -20 718 -20 q 547 12 581 -20 q 488 106 513 43 l 488 -297 l 349 -297 l 349 106 z "},"Ⱥ":{"ha":836,"x_min":-4,"x_max":828,"o":"m 296 1013 l 541 1013 l 581 863 l 718 1057 l 828 979 l 627 694 l 814 0 l 614 0 l 551 250 l 313 250 l 268 186 l 222 0 l 136 0 l 106 -43 l 45 0 l 22 0 l 26 14 l -4 35 l 54 117 l 296 1013 m 452 680 l 418 829 l 351 538 l 452 680 m 429 415 l 513 415 l 492 504 l 429 415 z "},"Ȼ":{"ha":836,"x_min":-4,"x_max":828,"o":"m 312 482 l 570 848 q 533 851 549 851 q 367 764 423 851 q 311 505 311 677 l 314 488 q 312 482 314 486 m 733 29 q 633 -7 686 5 q 524 -20 581 -20 q 214 111 322 -20 l 106 -43 l -4 35 l 142 241 q 103 505 103 352 q 211 896 103 761 q 524 1031 319 1031 q 634 1019 581 1031 q 681 1005 659 1013 l 718 1057 l 828 979 l 733 845 l 733 760 q 695 791 714 777 l 344 294 q 368 247 354 268 q 533 160 423 160 q 633 182 585 160 q 733 252 682 204 l 733 29 z "},"ȼ":{"ha":836,"x_min":17,"x_max":815,"o":"m 111 -79 l 17 1 l 157 168 q 114 379 114 256 q 214 673 114 567 q 489 779 313 779 q 606 765 550 779 q 649 752 628 760 l 721 838 l 815 755 l 720 642 l 720 539 q 665 577 694 562 l 359 215 q 368 204 363 210 q 517 143 420 143 q 625 162 574 143 q 720 221 675 182 l 720 39 q 612 -5 669 9 q 488 -20 554 -20 q 234 66 330 -20 l 111 -79 m 316 357 l 534 616 q 517 616 526 616 q 368 555 420 616 q 315 379 315 493 q 316 357 315 368 z "},"Ƚ":{"ha":836,"x_min":19,"x_max":817,"o":"m 189 495 l 189 1013 l 389 1013 l 389 495 l 555 495 l 555 365 l 389 365 l 389 176 l 817 176 l 817 0 l 189 0 l 189 365 l 19 365 l 19 495 l 189 495 z "},"Ⱦ":{"ha":836,"x_min":8,"x_max":840,"o":"m 318 0 l 318 240 l 118 -43 l 8 35 l 318 473 l 318 838 l 61 838 l 61 1013 l 699 1013 l 730 1057 l 840 979 l 775 887 l 775 838 l 740 838 l 518 524 l 518 0 l 318 0 m 518 757 l 575 838 l 518 838 l 518 757 z "},"ȿ":{"ha":836,"x_min":117,"x_max":724,"o":"m 672 736 l 672 562 q 558 615 617 597 q 439 633 498 633 q 338 614 372 633 q 304 557 304 595 q 450 469 304 503 l 457 467 l 514 453 q 673 370 623 427 q 724 215 724 313 q 647 39 724 98 q 415 -20 570 -20 q 384 -19 399 -20 l 469 -131 q 617 -185 509 -185 l 715 -185 l 715 -334 l 623 -334 q 345 -216 433 -334 l 225 -58 q 129 28 218 -50 l 129 201 q 263 144 195 164 q 395 125 331 125 q 500 145 465 125 q 536 204 536 165 q 511 262 536 242 q 390 306 486 283 l 335 318 q 169 399 221 344 q 117 546 117 454 q 196 717 117 656 q 419 778 275 778 q 548 767 484 778 q 672 736 612 757 z "},"ɀ":{"ha":836,"x_min":110,"x_max":733,"o":"m 126 760 l 733 760 l 733 604 l 284 95 q 349 27 319 67 l 469 -131 q 617 -185 509 -185 l 733 -185 l 733 -334 l 623 -334 q 345 -216 433 -334 l 225 -58 q 110 0 181 0 l 110 155 l 510 611 l 126 611 l 126 760 z "},"Ɂ":{"ha":836,"x_min":20,"x_max":816,"o":"m 311 823 q 257 823 258 823 q 216 808 228 823 q 194 751 195 784 q 193 720 193 743 l 20 720 l 20 772 q 53 922 20 877 q 87 957 65 938 q 232 1009 138 1000 q 311 1012 264 1012 l 416 1013 q 713 926 608 1013 q 816 682 816 841 q 712 437 816 523 q 416 351 609 351 l 416 0 l 216 0 l 216 541 l 448 541 q 565 577 524 541 q 606 682 606 614 q 565 787 606 750 q 448 823 524 823 l 311 823 z "},"Ʉ":{"ha":836,"x_min":14,"x_max":822,"o":"m 14 365 l 14 495 l 822 495 l 822 365 l 14 365 m 72 374 l 72 1013 l 272 1013 l 272 323 q 311 204 272 248 q 418 161 349 161 q 525 204 486 161 q 564 323 564 248 l 564 1013 l 764 1013 l 764 374 q 682 74 764 168 q 418 -20 600 -20 q 154 74 237 -20 q 72 374 72 168 z "},"Ʌ":{"ha":836,"x_min":39,"x_max":798,"o":"m 418 846 l 240 0 l 39 0 l 279 1013 l 557 1013 l 798 0 l 596 0 l 418 846 z "},"Ɍ":{"ha":836,"x_min":14,"x_max":836,"o":"m 133 1013 l 379 1013 q 660 943 574 1013 q 745 718 745 874 q 694 552 745 614 q 547 478 643 490 q 600 450 577 472 q 653 364 621 429 l 836 0 l 616 0 l 494 256 q 480 286 480 285 q 354 400 427 400 l 333 400 l 333 0 l 133 0 l 133 400 l 14 400 l 14 568 l 133 568 l 133 1013 m 333 844 l 333 568 l 385 568 q 502 601 467 568 q 538 707 538 633 q 503 812 538 781 q 385 844 467 844 l 333 844 z "},"ɍ":{"ha":836,"x_min":130,"x_max":781,"o":"m 781 550 q 704 595 748 580 q 608 610 661 610 q 498 588 545 610 q 425 524 451 566 q 403 461 409 498 q 399 429 400 448 l 655 429 l 655 297 l 396 297 l 396 0 l 197 0 l 197 297 l 130 297 l 130 429 l 197 429 l 197 760 l 396 760 l 396 642 q 486 742 425 707 q 627 778 546 778 q 706 768 667 778 q 781 739 745 758 l 781 550 z "},"ɐ":{"ha":836,"x_min":75,"x_max":762,"o":"m 351 401 q 506 430 463 401 q 551 528 551 458 q 519 610 551 579 q 437 640 490 640 q 315 581 358 640 q 271 415 271 522 l 271 401 l 351 401 m 75 325 l 75 758 l 271 758 l 271 673 q 363 751 308 724 q 488 778 420 778 q 690 709 617 778 q 762 518 762 641 q 675 321 762 385 q 410 258 590 258 l 271 258 l 271 225 q 307 152 271 177 q 410 127 342 127 q 547 145 480 127 q 686 203 614 163 l 686 33 q 553 -7 621 6 q 410 -20 486 -20 q 149 56 224 -20 q 75 325 75 131 z "},"ɑ":{"ha":836,"x_min":81,"x_max":755,"o":"m 557 652 l 557 759 l 755 759 l 755 0 l 557 0 l 557 113 q 475 14 525 47 q 355 -20 424 -20 q 153 85 225 -20 q 81 379 81 189 q 155 675 81 572 q 362 778 227 778 q 472 746 423 778 q 557 652 520 715 m 317 550 q 298 519 317 550 q 280 378 280 488 q 317 205 280 268 q 418 143 353 143 q 519 205 482 143 q 557 378 557 268 q 519 550 557 488 q 418 612 482 612 q 317 550 353 612 z "},"ɒ":{"ha":836,"x_min":81,"x_max":755,"o":"m 279 106 l 279 -1 l 81 -1 l 81 758 l 279 758 l 279 646 q 362 745 311 711 q 481 778 412 778 q 683 673 611 778 q 755 379 755 569 q 682 83 755 186 q 474 -20 609 -20 q 365 12 413 -20 q 279 106 316 43 m 519 208 q 538 239 519 208 q 556 380 556 271 q 519 553 556 490 q 418 615 483 615 q 317 553 354 615 q 279 380 279 490 q 317 208 279 271 q 418 146 354 146 q 519 208 483 146 z "},"ɓ":{"ha":836,"x_min":102,"x_max":775,"o":"m 576 378 q 540 550 576 488 q 439 612 503 612 q 337 550 374 612 q 300 378 300 488 q 337 205 300 268 q 439 143 374 143 q 540 205 503 143 q 576 378 576 268 m 300 652 q 385 746 336 715 q 494 778 433 778 q 702 675 629 778 q 775 379 775 572 q 703 85 775 189 q 501 -20 631 -20 q 382 14 433 -20 q 300 113 331 47 l 300 0 l 102 0 l 102 739 q 163 982 102 909 q 367 1055 224 1055 l 581 1055 l 581 903 l 422 903 q 328 865 356 903 q 300 738 300 828 l 300 652 z "},"ɔ":{"ha":836,"x_min":117,"x_max":722,"o":"m 117 721 q 224 765 167 750 q 349 779 282 779 q 623 673 524 779 q 722 380 722 568 q 623 86 722 193 q 347 -20 523 -20 q 230 -5 286 -20 q 117 39 173 9 l 117 220 q 212 163 160 183 q 319 143 264 143 q 469 205 416 143 q 521 380 521 267 q 469 555 521 494 q 319 616 416 616 q 212 597 262 616 q 117 538 161 578 l 117 721 z "},"ɕ":{"ha":836,"x_min":110,"x_max":730,"o":"m 449 157 q 524 140 488 141 l 528 140 q 627 179 627 140 q 537 230 626 230 q 449 157 481 230 m 344 227 l 346 238 q 530 361 416 361 q 726 199 724 357 q 516 -20 730 -20 q 444 -19 447 -20 q 440 -18 442 -19 l 440 -96 l 304 -95 q 305 16 304 -32 q 209 86 250 42 q 110 379 110 192 q 210 673 110 567 q 485 779 309 779 q 602 765 546 779 q 715 721 659 751 l 715 539 q 620 597 672 576 q 513 616 568 616 q 363 555 416 616 q 311 379 311 493 q 344 227 311 275 z "},"ɖ":{"ha":836,"x_min":52,"x_max":747,"o":"m 277 550 q 263 519 277 550 q 248 378 248 488 q 277 205 248 268 q 358 143 307 143 q 439 205 410 143 q 469 378 469 268 q 439 550 469 488 q 358 612 410 612 q 277 550 307 612 m 469 652 l 469 1055 l 666 1055 l 667 92 q 682 -35 667 3 q 733 -72 697 -72 l 747 -72 l 747 -224 l 682 -224 q 518 -151 568 -224 q 469 92 469 -79 l 469 113 q 404 14 444 47 q 309 -20 363 -20 q 119 85 186 -20 q 52 379 52 189 q 120 675 52 572 q 315 778 189 778 q 401 746 363 778 q 469 652 440 715 z "},"ɗ":{"ha":836,"x_min":47,"x_max":748,"o":"m 277 550 q 262 519 277 550 q 248 378 248 488 q 277 205 248 268 q 357 143 306 143 q 439 205 409 143 q 469 378 469 268 q 439 550 469 488 q 357 612 409 612 q 277 550 306 612 m 671 738 l 671 0 l 469 0 l 469 113 q 403 14 444 47 q 307 -20 362 -20 q 116 85 184 -20 q 47 379 47 189 q 116 675 47 572 q 313 778 185 778 q 401 746 362 778 q 469 652 439 715 l 470 738 q 519 981 473 911 q 682 1055 568 1055 l 748 1055 l 748 902 l 734 902 q 684 865 699 902 q 671 738 671 829 z "},"ɘ":{"ha":836,"x_min":60,"x_max":777,"o":"m 92 37 q 92 220 92 37 q 231 157 164 177 q 366 138 297 138 q 522 182 469 138 q 574 315 574 226 l 60 315 l 60 396 q 153 678 60 578 q 415 778 246 778 q 680 670 583 778 q 777 376 777 562 q 675 83 777 184 q 385 -20 575 -20 q 233 -5 304 -20 q 92 37 161 9 m 260 465 l 572 464 q 524 582 565 541 q 415 624 484 624 q 300 583 339 624 q 260 465 261 543 z "},"ə":{"ha":836,"x_min":62,"x_max":779,"o":"m 62 362 l 62 443 l 577 443 l 577 450 q 524 580 576 539 q 368 621 472 621 q 233 601 300 621 q 94 538 167 581 l 94 721 q 235 764 163 749 q 387 778 307 778 q 679 676 578 778 q 779 382 779 574 q 682 88 779 196 q 418 -20 585 -20 q 156 80 249 -20 q 62 362 62 180 m 262 294 q 303 175 264 215 q 418 134 342 134 q 527 176 486 134 q 575 294 568 217 l 262 294 z "},"ɚ":{"ha":836,"x_min":5,"x_max":831,"o":"m 412 366 l 196 200 q 205 184 200 192 q 285 142 236 142 q 371 182 338 142 q 412 296 404 221 l 412 366 m 589 499 q 600 379 600 444 q 515 87 600 193 q 283 -20 431 -20 q 68 88 149 -20 q 5 227 25 146 l 396 527 q 368 574 385 555 q 257 616 328 616 q 139 594 199 616 q 15 525 79 571 l 15 712 q 144 761 80 745 q 273 778 209 778 q 514 673 428 778 q 538 639 527 657 l 650 727 l 751 728 l 751 612 q 753 455 751 460 q 809 418 773 418 l 831 418 l 831 296 l 783 296 q 666 371 706 296 q 650 545 650 433 l 589 499 z "},"ɛ":{"ha":836,"x_min":101,"x_max":709,"o":"m 101 212 q 155 345 101 294 q 313 410 210 395 q 172 466 221 422 q 123 576 123 509 q 209 721 123 668 q 446 773 294 773 q 557 767 517 773 q 680 741 597 761 l 680 595 q 558 627 608 618 q 467 636 507 636 q 347 614 387 636 q 307 555 307 591 q 346 503 307 525 q 456 481 385 481 l 558 481 l 558 330 l 456 330 q 329 298 374 330 q 283 221 283 266 q 329 151 283 180 q 465 123 374 123 q 581 131 533 123 q 709 172 629 140 l 709 23 q 563 -8 618 -1 q 433 -15 507 -15 q 191 43 281 -15 q 101 212 101 102 z "},"ɜ":{"ha":836,"x_min":69,"x_max":767,"o":"m 549 389 q 709 323 652 373 q 767 185 767 273 q 660 47 767 109 q 353 -15 553 -15 q 215 -5 286 -15 q 69 23 144 4 l 69 183 q 200 148 129 160 q 349 136 271 136 q 472 150 425 136 q 519 224 519 163 q 465 295 519 277 q 376 313 410 313 l 252 313 l 252 462 l 332 462 q 451 480 402 462 q 500 545 500 498 q 455 600 500 578 q 326 621 409 621 q 258 613 323 621 q 101 585 193 606 l 101 745 q 254 770 183 762 q 389 778 326 778 q 647 724 552 778 q 742 553 742 671 q 693 450 742 494 q 549 389 644 406 z "},"ɝ":{"ha":836,"x_min":33,"x_max":804,"o":"m 393 389 q 513 323 470 373 q 556 185 556 273 q 475 47 556 109 q 245 -15 396 -15 q 142 -5 195 -15 q 33 23 90 4 l 33 183 q 131 149 78 160 q 242 136 184 136 q 317 146 291 136 q 370 224 370 167 q 321 299 370 277 q 263 313 289 313 l 170 313 l 170 462 l 230 462 q 314 478 281 462 q 357 545 357 498 q 313 604 357 576 q 226 621 288 621 q 168 612 224 621 q 57 585 126 606 l 57 745 q 172 770 118 762 q 273 778 226 778 q 466 724 395 778 q 525 640 508 693 l 633 727 l 734 728 l 734 612 q 741 455 734 468 q 781 418 760 418 l 804 418 l 804 296 l 755 296 q 653 371 694 296 q 633 545 633 433 l 474 422 l 473 425 q 393 389 441 400 z "},"ɞ":{"ha":836,"x_min":73,"x_max":763,"o":"m 440 621 q 260 374 260 621 q 462 127 260 127 q 536 146 509 127 q 572 214 572 172 q 533 285 572 263 q 457 300 507 300 l 368 300 l 368 448 l 458 448 q 530 464 501 448 q 572 537 572 487 q 532 598 572 574 q 440 621 494 621 m 277 745 q 472 777 338 776 q 688 718 613 777 q 763 559 763 659 q 724 441 763 492 q 594 374 686 392 q 724 307 683 357 q 763 189 763 259 q 688 31 763 89 q 472 -28 614 -28 q 277 12 338 -29 q 73 374 73 149 q 277 745 73 643 z "},"ɟ":{"ha":836,"x_min":97,"x_max":713,"o":"m 576 29 q 515 -215 576 -142 q 311 -288 454 -288 l 97 -288 l 97 -135 l 256 -135 q 350 -98 322 -135 q 378 29 378 -60 l 378 297 l 189 297 l 189 429 l 378 429 l 378 607 l 176 607 l 176 760 l 576 760 l 576 429 l 713 429 l 713 297 l 576 297 l 576 29 z "},"ɠ":{"ha":836,"x_min":12,"x_max":825,"o":"m 340 602 q 247 546 280 602 q 213 389 213 490 q 245 231 213 284 q 340 176 278 176 q 435 232 401 176 q 469 389 469 288 l 469 602 l 340 602 m 469 129 q 380 31 429 62 q 269 0 332 0 q 84 110 157 0 q 12 389 12 219 q 84 651 12 542 q 269 760 157 760 l 469 760 l 470 760 q 529 975 473 898 q 672 1055 588 1055 l 825 1055 l 825 896 l 734 896 q 686 865 706 896 q 665 742 665 833 l 665 593 l 664 593 l 664 77 q 571 -193 664 -96 q 303 -289 479 -289 q 193 -278 246 -289 q 86 -245 140 -267 l 86 -66 q 186 -121 137 -103 q 284 -139 235 -139 q 424 -87 380 -139 q 469 77 469 -35 l 469 129 z "},"ɡ":{"ha":836,"x_min":84,"x_max":752,"o":"m 552 129 q 461 31 511 62 q 347 0 412 0 q 159 110 233 0 q 84 389 84 219 q 159 651 84 542 q 347 760 233 760 l 552 760 l 752 760 l 752 77 q 658 -193 752 -96 q 382 -289 563 -289 q 270 -278 324 -289 q 160 -245 215 -267 l 160 -66 q 262 -121 212 -103 q 363 -139 313 -139 q 507 -87 461 -139 q 552 77 552 -35 l 552 129 m 421 602 q 325 546 359 602 q 290 389 290 490 q 323 231 290 284 q 421 176 357 176 q 517 232 483 176 q 552 389 552 288 l 552 602 l 421 602 z "},"ɢ":{"ha":836,"x_min":104,"x_max":732,"o":"m 732 68 q 600 17 669 35 q 460 0 532 0 q 200 102 296 0 q 104 379 104 204 q 202 658 104 556 q 469 759 300 759 q 595 745 534 759 q 708 705 654 732 l 708 545 q 599 594 653 578 q 490 610 544 610 q 334 550 389 610 q 279 379 279 490 q 332 209 279 269 q 481 149 385 149 q 531 153 508 149 q 572 163 553 156 l 570 277 l 402 277 l 402 427 l 732 427 l 732 68 z "},"ɣ":{"ha":836,"x_min":66,"x_max":770,"o":"m 536 400 q 703 -121 701 141 q 426 -281 703 -279 q 120 -121 121 -285 q 300 399 119 111 l 66 770 l 286 770 l 417 545 l 551 770 l 770 770 l 536 400 m 417 250 q 290 -45 288 40 q 414 -130 291 -130 q 532 -45 532 -130 q 417 250 532 64 z "},"ɤ":{"ha":836,"x_min":66,"x_max":770,"o":"m 416 92 q 447 151 447 92 q 417 240 447 191 q 387 151 387 190 q 416 92 387 95 m 296 397 l 66 760 l 286 760 l 417 534 l 551 760 l 770 760 l 536 390 q 639 90 638 228 q 418 -81 641 -81 q 190 90 190 -81 q 296 397 190 233 z "},"ɥ":{"ha":836,"x_min":113,"x_max":723,"o":"m 113 265 l 113 758 l 311 758 l 311 296 q 334 178 311 214 q 410 143 357 143 q 495 191 465 143 q 526 323 526 239 l 526 758 l 723 758 l 723 -297 l 526 -297 l 526 113 q 454 15 505 50 q 331 -20 403 -20 q 168 52 223 -20 q 113 265 113 123 z "},"ɦ":{"ha":836,"x_min":113,"x_max":723,"o":"m 723 493 l 723 0 l 526 0 l 526 463 q 502 580 526 545 q 426 615 479 615 q 341 567 372 615 q 311 435 311 519 l 311 0 l 113 0 l 113 738 q 175 981 113 909 q 378 1055 236 1055 l 460 1055 l 460 902 l 434 902 q 338 865 366 902 q 311 738 311 827 l 311 646 q 382 743 332 709 q 505 778 433 778 q 668 707 613 778 q 723 493 723 635 z "}}}
